<svg width="2160" height="2160" viewBox="0 0 2160 2160" xmlns="http://www.w3.org/2000/svg">
<g stroke="rgb(255, 255, 255)" stroke-width="1" stroke-linecap="round" stroke-linejoin="round" fill="transparent">
<path d="M1080,1080 L1114,1105 L1128,1146 L1093,1121 Z M1080,1080 L1045,1054 L1031,1013 L1066,1038 Z M1080,1080 L1066,1121 L1080,1162 L1093,1121 Z M1080,1080 L1066,1121 L1031,1146 L1045,1105 Z M1080,1080 L1093,1038 L1080,997 L1066,1038 Z M1080,1080 L1093,1038 L1128,1013 L1114,1054 Z M1080,1080 L1036,1080 L1001,1105 L1045,1105 Z M1080,1080 L1036,1080 L1001,1054 L1045,1054 Z M1080,1080 L1123,1080 L1158,1054 L1114,1054 Z M1080,1080 L1123,1080 L1158,1105 L1114,1105 Z M1045,972 L1001,972 L1036,947 L1080,947 Z M1045,1187 L1001,1187 L1036,1212 L1080,1212 Z M1080,947 L1093,905 L1080,864 L1066,905 Z M1001,972 L966,947 L953,905 L988,931 Z M953,1038 L910,1038 L875,1013 L918,1013 Z M953,988 L966,947 L931,972 L918,1013 Z M1128,931 L1171,931 L1136,905 L1093,905 Z M1158,972 L1171,931 L1206,905 L1193,947 Z M1128,1228 L1171,1228 L1136,1254 L1093,1254 Z M1080,1212 L1066,1254 L1080,1295 L1093,1254 Z M1158,1187 L1193,1212 L1206,1254 L1171,1228 Z M1206,1121 L1249,1121 L1284,1146 L1241,1146 Z M1206,1171 L1193,1212 L1228,1187 L1241,1146 Z M1001,1187 L988,1228 L953,1254 L966,1212 Z M1206,988 L1241,1013 L1228,972 L1193,947 Z M1206,1038 L1249,1038 L1284,1013 L1241,1013 Z M1236,1080 L1249,1038 L1262,1080 L1249,1121 Z M953,1171 L918,1146 L931,1187 L966,1212 Z M953,1121 L910,1121 L875,1146 L918,1146 Z M923,1080 L910,1121 L897,1080 L910,1038 Z M1093,905 L1136,905 L1171,880 L1128,880 Z M966,947 L923,947 L888,972 L931,972 Z M1093,1254 L1136,1254 L1171,1279 L1128,1279 Z M966,1212 L923,1212 L888,1187 L931,1187 Z M1080,864 L1036,864 L1001,839 L1045,839 Z M953,905 L966,864 L1001,839 L988,880 Z M875,1013 L862,1054 L827,1080 L840,1038 Z M875,1013 L888,972 L875,931 L862,972 Z M875,1013 L832,1013 L797,1038 L840,1038 Z M1206,905 L1171,880 L1158,839 L1193,864 Z M1206,905 L1249,905 L1284,880 L1241,880 Z M1206,905 L1249,905 L1284,931 L1241,931 Z M1080,1295 L1036,1295 L1001,1320 L1045,1320 Z M1206,1254 L1193,1295 L1158,1320 L1171,1279 Z M1206,1254 L1249,1254 L1284,1228 L1241,1228 Z M1206,1254 L1249,1254 L1284,1279 L1241,1279 Z M1284,1146 L1271,1187 L1284,1228 L1297,1187 Z M1284,1146 L1297,1105 L1332,1080 L1319,1121 Z M953,1254 L988,1279 L1001,1320 L966,1295 Z M1284,1013 L1319,1038 L1332,1080 L1297,1054 Z M1284,1013 L1297,972 L1284,931 L1271,972 Z M875,1146 L840,1121 L827,1080 L862,1105 Z M875,1146 L862,1187 L875,1228 L888,1187 Z M875,1146 L832,1146 L797,1121 L840,1121 Z M862,972 L818,972 L783,947 L827,947 Z M1193,864 L1206,823 L1241,798 L1228,839 Z M1193,1295 L1228,1320 L1241,1361 L1206,1336 Z M1319,1121 L1354,1146 L1367,1187 L1332,1162 Z M1319,1121 L1362,1121 L1397,1146 L1354,1146 Z M1319,1038 L1332,997 L1367,972 L1354,1013 Z M1319,1038 L1362,1038 L1397,1013 L1354,1013 Z M862,1187 L818,1187 L783,1212 L827,1212 Z M1080,814 L1093,773 L1080,731 L1066,773 Z M1128,798 L1093,773 L1080,731 L1114,757 Z M1031,798 L1045,757 L1080,731 L1066,773 Z M953,823 L910,823 L875,798 L918,798 Z M923,864 L888,839 L875,798 L910,823 Z M875,880 L888,839 L875,798 L862,839 Z M797,1038 L762,1013 L748,972 L783,997 Z M1284,880 L1297,839 L1284,798 L1271,839 Z M1128,1361 L1114,1402 L1080,1428 L1093,1386 Z M1080,1345 L1066,1386 L1080,1428 L1093,1386 Z M1031,1361 L1066,1386 L1080,1428 L1045,1402 Z M1284,1279 L1271,1320 L1284,1361 L1297,1320 Z M1332,1212 L1376,1212 L1411,1187 L1367,1187 Z M953,1336 L910,1336 L875,1361 L918,1361 Z M923,1295 L910,1336 L875,1361 L888,1320 Z M875,1279 L862,1320 L875,1361 L888,1320 Z M1332,947 L1376,947 L1411,972 L1367,972 Z M797,1121 L783,1162 L748,1187 L762,1146 Z M1114,757 L1158,757 L1123,731 L1080,731 Z M1045,757 L1001,757 L1036,731 L1080,731 Z M918,798 L875,798 L910,773 L953,773 Z M862,839 L875,798 L840,823 L827,864 Z M783,947 L797,905 L762,931 L748,972 Z M762,1013 L748,1054 L735,1013 L748,972 Z M1241,798 L1284,798 L1249,773 L1206,773 Z M1297,839 L1332,864 L1319,823 L1284,798 Z M1114,1402 L1158,1402 L1123,1428 L1080,1428 Z M1045,1402 L1001,1402 L1036,1428 L1080,1428 Z M1241,1361 L1284,1361 L1249,1386 L1206,1386 Z M1297,1320 L1284,1361 L1319,1336 L1332,1295 Z M1376,1212 L1362,1254 L1397,1228 L1411,1187 Z M1397,1146 L1411,1105 L1424,1146 L1411,1187 Z M918,1361 L875,1361 L910,1386 L953,1386 Z M862,1320 L827,1295 L840,1336 L875,1361 Z M1397,1013 L1411,972 L1424,1013 L1411,1054 Z M1376,947 L1411,972 L1397,931 L1362,905 Z M762,1146 L748,1187 L735,1146 L748,1105 Z M783,1212 L748,1187 L762,1228 L797,1254 Z M1080,731 L1093,690 L1080,649 L1066,690 Z M1080,731 L1093,690 L1128,665 L1114,706 Z M1080,731 L1123,731 L1158,706 L1114,706 Z M875,798 L840,773 L827,731 L862,757 Z M875,798 L832,798 L797,823 L840,823 Z M875,798 L832,798 L797,773 L840,773 Z M748,972 L705,972 L670,947 L714,947 Z M748,1105 L705,1105 L670,1080 L714,1080 Z M748,1054 L705,1054 L670,1080 L714,1080 Z M1284,798 L1297,757 L1332,731 L1319,773 Z M1332,864 L1376,864 L1411,839 L1367,839 Z M1080,1428 L1114,1453 L1128,1494 L1093,1469 Z M1080,1428 L1066,1469 L1080,1510 L1093,1469 Z M1080,1428 L1123,1428 L1158,1453 L1114,1453 Z M1332,1295 L1376,1295 L1411,1320 L1367,1320 Z M1284,1361 L1319,1386 L1332,1428 L1297,1402 Z M1411,1187 L1424,1146 L1459,1121 L1445,1162 Z M1411,1187 L1454,1187 L1489,1162 L1445,1162 Z M1411,1187 L1454,1187 L1489,1212 L1445,1212 Z M875,1361 L862,1402 L827,1428 L840,1386 Z M875,1361 L832,1361 L797,1386 L840,1386 Z M875,1361 L832,1361 L797,1336 L840,1336 Z M1411,972 L1445,997 L1459,1038 L1424,1013 Z M1411,972 L1454,972 L1489,947 L1445,947 Z M1411,972 L1454,972 L1489,997 L1445,997 Z M748,1187 L705,1187 L670,1212 L714,1212 Z M1066,690 L1023,690 L988,665 L1031,665 Z M1036,731 L1001,706 L988,665 L1023,690 Z M1249,773 L1262,731 L1249,690 L1236,731 Z M910,773 L923,731 L910,690 L897,731 Z M862,757 L875,716 L910,690 L897,731 Z M762,931 L727,905 L714,864 L748,890 Z M714,947 L727,905 L714,864 L700,905 Z M705,972 L692,1013 L657,1038 L670,997 Z M1319,773 L1362,773 L1397,798 L1354,798 Z M1297,757 L1262,731 L1249,690 L1284,716 Z M1397,931 L1411,890 L1445,864 L1432,905 Z M1066,1469 L1023,1469 L988,1494 L1031,1494 Z M1036,1428 L1023,1469 L988,1494 L1001,1453 Z M1249,1386 L1236,1428 L1249,1469 L1262,1428 Z M910,1386 L897,1428 L910,1469 L923,1428 Z M1397,1228 L1432,1254 L1445,1295 L1411,1269 Z M1297,1402 L1284,1443 L1249,1469 L1262,1428 Z M1319,1386 L1362,1386 L1397,1361 L1354,1361 Z M1445,1212 L1432,1254 L1445,1295 L1459,1254 Z M762,1228 L748,1269 L714,1295 L727,1254 Z M862,1402 L897,1428 L910,1469 L875,1443 Z M1445,947 L1459,905 L1445,864 L1432,905 Z M714,1212 L700,1254 L714,1295 L727,1254 Z M705,1187 L670,1162 L657,1121 L692,1146 Z M1206,690 L1171,665 L1158,624 L1193,649 Z M1206,690 L1249,690 L1284,665 L1241,665 Z M953,690 L966,649 L1001,624 L988,665 Z M953,690 L910,690 L875,665 L918,665 Z M748,839 L762,798 L748,757 L735,798 Z M748,839 L705,839 L670,864 L714,864 Z M670,1080 L635,1054 L622,1013 L657,1038 Z M670,1080 L657,1121 L622,1146 L635,1105 Z M1411,839 L1424,798 L1411,757 L1397,798 Z M1411,839 L1454,839 L1489,864 L1445,864 Z M1206,1469 L1193,1510 L1158,1535 L1171,1494 Z M1206,1469 L1249,1469 L1284,1494 L1241,1494 Z M953,1469 L988,1494 L1001,1535 L966,1510 Z M953,1469 L910,1469 L875,1494 L918,1494 Z M1411,1320 L1397,1361 L1411,1402 L1424,1361 Z M1411,1320 L1454,1320 L1489,1295 L1445,1295 Z M1489,1080 L1524,1105 L1537,1146 L1502,1121 Z M1489,1080 L1502,1038 L1537,1013 L1524,1054 Z M748,1320 L735,1361 L748,1402 L762,1361 Z M748,1320 L705,1320 L670,1295 L714,1295 Z M635,1105 L592,1105 L557,1080 L600,1080 Z M635,1054 L592,1054 L557,1080 L600,1080 Z M1424,798 L1467,798 L1502,773 L1459,773 Z M1424,1361 L1467,1361 L1502,1386 L1459,1386 Z M1031,583 L988,583 L1023,557 L1066,557 Z M1080,598 L1093,557 L1080,516 L1066,557 Z M1001,624 L966,598 L953,557 L988,583 Z M1128,583 L1093,557 L1080,516 L1114,542 Z M1158,624 L1171,583 L1206,557 L1193,598 Z M1284,665 L1297,624 L1284,583 L1271,624 Z M875,665 L888,624 L875,583 L862,624 Z M827,649 L783,649 L818,624 L862,624 Z M797,690 L762,665 L748,624 L783,649 Z M748,757 L705,757 L670,731 L714,731 Z M748,706 L762,665 L748,624 L735,665 Z M670,864 L635,839 L622,798 L657,823 Z M622,931 L579,931 L544,905 L587,905 Z M622,880 L579,880 L544,905 L587,905 Z M592,972 L557,947 L544,905 L579,931 Z M1332,649 L1376,649 L1411,624 L1367,624 Z M1362,690 L1376,649 L1411,624 L1397,665 Z M1411,706 L1424,665 L1411,624 L1397,665 Z M1489,864 L1502,823 L1537,798 L1524,839 Z M1128,1576 L1114,1617 L1080,1643 L1093,1602 Z M1080,1561 L1066,1602 L1080,1643 L1093,1602 Z M1158,1535 L1193,1561 L1206,1602 L1171,1576 Z M1031,1576 L988,1576 L1023,1602 L1066,1602 Z M1001,1535 L988,1576 L953,1602 L966,1561 Z M1284,1494 L1271,1535 L1284,1576 L1297,1535 Z M875,1494 L862,1535 L875,1576 L888,1535 Z M1489,1295 L1524,1320 L1537,1361 L1502,1336 Z M1332,1510 L1376,1510 L1411,1535 L1367,1535 Z M1362,1469 L1397,1494 L1411,1535 L1376,1510 Z M1411,1453 L1397,1494 L1411,1535 L1424,1494 Z M1537,1146 L1580,1146 L1615,1121 L1572,1121 Z M1537,1228 L1580,1228 L1615,1254 L1572,1254 Z M1567,1187 L1602,1212 L1615,1254 L1580,1228 Z M1537,1279 L1524,1320 L1559,1295 L1572,1254 Z M1537,1013 L1580,1013 L1615,1038 L1572,1038 Z M748,1402 L705,1402 L670,1428 L714,1428 Z M670,1295 L657,1336 L622,1361 L635,1320 Z M827,1510 L783,1510 L818,1535 L862,1535 Z M797,1469 L783,1510 L748,1535 L762,1494 Z M748,1453 L735,1494 L748,1535 L762,1494 Z M1537,880 L1572,905 L1559,864 L1524,839 Z M1537,931 L1580,931 L1615,905 L1572,905 Z M1567,972 L1580,931 L1615,905 L1602,947 Z M622,1279 L579,1279 L544,1254 L587,1254 Z M622,1228 L579,1228 L544,1254 L587,1254 Z M592,1187 L579,1228 L544,1254 L557,1212 Z M988,583 L1001,542 L1036,516 L1023,557 Z M1114,542 L1158,542 L1123,516 L1080,516 Z M1241,583 L1284,583 L1249,557 L1206,557 Z M918,583 L875,583 L910,557 L953,557 Z M862,624 L818,624 L783,598 L827,598 Z M735,665 L748,624 L714,649 L700,690 Z M657,773 L670,731 L635,757 L622,798 Z M579,880 L592,839 L557,864 L544,905 Z M557,947 L544,988 L531,947 L544,905 Z M557,1080 L544,1121 L531,1080 L544,1038 Z M1367,624 L1411,624 L1376,598 L1332,598 Z M1424,665 L1459,690 L1445,649 L1411,624 Z M1524,839 L1567,839 L1602,864 L1559,864 Z M1502,773 L1537,798 L1524,757 L1489,731 Z M1114,1617 L1158,1617 L1123,1643 L1080,1643 Z M988,1576 L1023,1602 L1036,1643 L1001,1617 Z M1241,1576 L1284,1576 L1249,1602 L1206,1602 Z M918,1576 L875,1576 L910,1602 L953,1602 Z M862,1535 L818,1535 L783,1561 L827,1561 Z M1502,1386 L1489,1428 L1524,1402 L1537,1361 Z M1524,1320 L1567,1320 L1602,1295 L1559,1295 Z M1367,1535 L1411,1535 L1376,1561 L1332,1561 Z M1424,1494 L1411,1535 L1445,1510 L1459,1469 Z M1602,1212 L1615,1171 L1628,1212 L1615,1254 Z M1602,1080 L1615,1038 L1628,1080 L1615,1121 Z M657,1386 L622,1361 L635,1402 L670,1428 Z M735,1494 L700,1469 L714,1510 L748,1535 Z M1602,947 L1615,905 L1628,947 L1615,988 Z M579,1279 L544,1254 L557,1295 L592,1320 Z M557,1212 L544,1254 L531,1212 L544,1171 Z M1080,516 L1045,491 L1031,450 L1066,475 Z M1080,516 L1093,475 L1080,434 L1066,475 Z M1080,516 L1093,475 L1128,450 L1114,491 Z M1080,516 L1036,516 L1001,491 L1045,491 Z M1080,516 L1123,516 L1158,491 L1114,491 Z M748,624 L714,598 L700,557 L735,583 Z M748,624 L762,583 L748,542 L735,583 Z M748,624 L762,583 L797,557 L783,598 Z M748,624 L705,624 L670,649 L714,649 Z M748,624 L705,624 L670,598 L714,598 Z M544,905 L509,880 L496,839 L531,864 Z M544,905 L531,947 L496,972 L509,931 Z M544,905 L557,864 L544,823 L531,864 Z M544,905 L501,905 L466,931 L509,931 Z M544,905 L501,905 L466,880 L509,880 Z M544,1038 L501,1038 L466,1013 L509,1013 Z M544,1121 L501,1121 L466,1146 L509,1146 Z M1411,624 L1376,598 L1362,557 L1397,583 Z M1411,624 L1424,583 L1411,542 L1397,583 Z M1411,624 L1424,583 L1459,557 L1445,598 Z M1411,624 L1454,624 L1489,598 L1445,598 Z M1411,624 L1454,624 L1489,649 L1445,649 Z M1537,798 L1580,798 L1615,773 L1572,773 Z M1080,1643 L1114,1668 L1128,1709 L1093,1684 Z M1080,1643 L1066,1684 L1080,1725 L1093,1684 Z M1080,1643 L1066,1684 L1031,1709 L1045,1668 Z M1080,1643 L1036,1643 L1001,1668 L1045,1668 Z M1080,1643 L1123,1643 L1158,1668 L1114,1668 Z M1537,1361 L1580,1361 L1615,1386 L1572,1386 Z M1411,1535 L1445,1561 L1459,1602 L1424,1576 Z M1411,1535 L1397,1576 L1411,1617 L1424,1576 Z M1411,1535 L1397,1576 L1362,1602 L1376,1561 Z M1411,1535 L1454,1535 L1489,1510 L1445,1510 Z M1411,1535 L1454,1535 L1489,1561 L1445,1561 Z M1615,1254 L1650,1279 L1663,1320 L1628,1295 Z M1615,1254 L1602,1295 L1615,1336 L1628,1295 Z M1615,1254 L1628,1212 L1663,1187 L1650,1228 Z M748,1535 L783,1561 L797,1602 L762,1576 Z M748,1535 L735,1576 L748,1617 L762,1576 Z M748,1535 L735,1576 L700,1602 L714,1561 Z M748,1535 L705,1535 L670,1561 L714,1561 Z M748,1535 L705,1535 L670,1510 L714,1510 Z M1615,905 L1650,931 L1663,972 L1628,947 Z M1615,905 L1628,864 L1615,823 L1602,864 Z M1615,905 L1628,864 L1663,839 L1650,880 Z M544,1254 L509,1228 L496,1187 L531,1212 Z M544,1254 L531,1295 L544,1336 L557,1295 Z M544,1254 L531,1295 L496,1320 L509,1279 Z M544,1254 L501,1254 L466,1279 L509,1279 Z M544,1254 L501,1254 L466,1228 L509,1228 Z M910,557 L875,532 L862,491 L897,516 Z M910,557 L923,516 L910,475 L897,516 Z M1249,557 L1262,516 L1249,475 L1236,516 Z M1249,557 L1262,516 L1297,491 L1284,532 Z M635,757 L600,731 L587,690 L622,716 Z M635,757 L592,757 L557,731 L600,731 Z M1524,757 L1537,716 L1572,690 L1559,731 Z M1249,1602 L1284,1627 L1297,1668 L1262,1643 Z M1249,1602 L1236,1643 L1249,1684 L1262,1643 Z M910,1602 L897,1643 L910,1684 L923,1643 Z M910,1602 L897,1643 L862,1668 L875,1627 Z M1524,1402 L1559,1428 L1572,1469 L1537,1443 Z M1650,1228 L1693,1228 L1728,1254 L1685,1254 Z M1650,1279 L1693,1279 L1728,1254 L1685,1254 Z M635,1402 L622,1443 L587,1469 L600,1428 Z M635,1402 L592,1402 L557,1428 L600,1428 Z M1650,880 L1693,880 L1728,905 L1685,905 Z M1650,931 L1693,931 L1728,905 L1685,905 Z M953,475 L910,475 L875,450 L918,450 Z M1206,475 L1249,475 L1284,450 L1241,450 Z M1332,516 L1297,491 L1284,450 L1319,475 Z M827,516 L840,475 L875,450 L862,491 Z M622,665 L579,665 L544,690 L587,690 Z M544,773 L557,731 L544,690 L531,731 Z M466,1013 L452,1054 L417,1080 L431,1038 Z M466,1146 L431,1121 L417,1080 L452,1105 Z M1537,665 L1580,665 L1615,690 L1572,690 Z M1615,773 L1628,731 L1615,690 L1602,731 Z M1206,1684 L1249,1684 L1284,1709 L1241,1709 Z M953,1684 L910,1684 L875,1709 L918,1709 Z M1332,1643 L1319,1684 L1284,1709 L1297,1668 Z M827,1643 L862,1668 L875,1709 L840,1684 Z M1537,1494 L1580,1494 L1615,1469 L1572,1469 Z M1615,1386 L1602,1428 L1615,1469 L1628,1428 Z M1663,1105 L1707,1105 L1742,1080 L1698,1080 Z M1693,1146 L1707,1105 L1742,1080 L1728,1121 Z M1663,1054 L1707,1054 L1742,1080 L1698,1080 Z M1693,1013 L1728,1038 L1742,1080 L1707,1054 Z M622,1494 L579,1494 L544,1469 L587,1469 Z M544,1386 L531,1428 L544,1469 L557,1428 Z M1045,409 L1001,409 L1036,383 L1080,383 Z M918,450 L875,450 L910,424 L953,424 Z M1241,450 L1206,424 L1193,383 L1228,409 Z M1319,475 L1362,475 L1397,450 L1354,450 Z M840,475 L797,475 L832,450 L875,450 Z M714,516 L670,516 L705,491 L748,491 Z M657,557 L670,516 L635,542 L622,583 Z M579,665 L592,624 L579,583 L565,624 Z M531,731 L487,731 L452,757 L496,757 Z M452,839 L466,798 L431,823 L417,864 Z M431,1038 L396,1013 L382,972 L417,997 Z M431,1038 L388,1038 L353,1013 L396,1013 Z M431,1121 L417,1162 L382,1187 L396,1146 Z M431,1121 L388,1121 L353,1146 L396,1146 Z M1580,665 L1594,624 L1580,583 L1567,624 Z M1502,557 L1537,583 L1524,542 L1489,516 Z M1628,731 L1663,757 L1650,716 L1615,690 Z M1045,1750 L1001,1750 L1036,1776 L1080,1776 Z M1241,1709 L1228,1750 L1193,1776 L1206,1735 Z M918,1709 L875,1709 L910,1735 L953,1735 Z M1319,1684 L1362,1684 L1397,1709 L1354,1709 Z M840,1684 L797,1684 L832,1709 L875,1709 Z M1580,1494 L1567,1535 L1580,1576 L1594,1535 Z M1628,1428 L1615,1469 L1650,1443 L1663,1402 Z M1502,1602 L1489,1643 L1524,1617 L1537,1576 Z M1728,1121 L1763,1146 L1777,1187 L1742,1162 Z M1707,1320 L1693,1361 L1728,1336 L1742,1295 Z M1728,1254 L1742,1212 L1755,1254 L1742,1295 Z M1728,1038 L1742,997 L1777,972 L1763,1013 Z M579,1494 L565,1535 L579,1576 L592,1535 Z M531,1428 L487,1428 L452,1402 L496,1402 Z M714,1643 L670,1643 L705,1668 L748,1668 Z M657,1602 L622,1576 L635,1617 L670,1643 Z M1728,905 L1742,864 L1755,905 L1742,947 Z M1707,839 L1742,864 L1728,823 L1693,798 Z M452,1320 L417,1295 L431,1336 L466,1361 Z M1080,383 L1093,342 L1079,301 L1066,342 Z M1001,409 L966,383 L953,342 L988,368 Z M1128,368 L1171,368 L1136,342 L1093,342 Z M1158,409 L1171,368 L1206,342 L1193,383 Z M875,450 L840,424 L827,383 L862,409 Z M875,450 L888,409 L875,368 L862,409 Z M875,450 L888,409 L923,383 L910,424 Z M875,450 L832,450 L797,424 L840,424 Z M1284,450 L1297,409 L1284,368 L1271,409 Z M1284,450 L1297,409 L1332,383 L1319,424 Z M1411,491 L1424,450 L1411,409 L1397,450 Z M748,491 L762,450 L748,409 L735,450 Z M670,516 L635,491 L622,450 L657,475 Z M622,583 L579,583 L544,557 L587,557 Z M544,690 L509,665 L496,624 L531,649 Z M544,690 L501,690 L466,665 L509,665 Z M565,624 L579,583 L544,608 L531,649 Z M466,798 L431,773 L417,731 L452,757 Z M487,731 L501,690 L466,716 L452,757 Z M417,864 L374,864 L339,839 L382,839 Z M417,947 L374,947 L339,972 L382,972 Z M388,905 L374,947 L361,905 L374,864 Z M417,1212 L374,1212 L339,1187 L382,1187 Z M1537,583 L1580,583 L1615,557 L1572,557 Z M1615,690 L1628,649 L1663,624 L1650,665 Z M1594,624 L1628,649 L1615,608 L1580,583 Z M1459,475 L1502,475 L1467,450 L1424,450 Z M1489,516 L1502,475 L1537,450 L1524,491 Z M1663,757 L1707,757 L1742,731 L1698,731 Z M1693,798 L1707,757 L1742,731 L1728,773 Z M1128,1791 L1171,1791 L1136,1817 L1093,1817 Z M1080,1776 L1066,1817 L1080,1858 L1093,1817 Z M1158,1750 L1193,1776 L1206,1817 L1171,1791 Z M1001,1750 L988,1791 L953,1817 L966,1776 Z M1284,1709 L1319,1735 L1332,1776 L1297,1750 Z M1284,1709 L1271,1750 L1284,1791 L1297,1750 Z M875,1709 L910,1735 L923,1776 L888,1750 Z M875,1709 L862,1750 L875,1791 L888,1750 Z M875,1709 L862,1750 L827,1776 L840,1735 Z M875,1709 L832,1709 L797,1735 L840,1735 Z M1411,1668 L1397,1709 L1411,1750 L1424,1709 Z M748,1668 L735,1709 L748,1750 L762,1709 Z M1537,1576 L1580,1576 L1615,1602 L1572,1602 Z M1615,1469 L1650,1494 L1663,1535 L1628,1510 Z M1594,1535 L1580,1576 L1615,1551 L1628,1510 Z M1663,1402 L1707,1402 L1742,1428 L1698,1428 Z M1693,1361 L1728,1386 L1742,1428 L1707,1402 Z M1459,1684 L1502,1684 L1467,1709 L1424,1709 Z M1489,1643 L1524,1668 L1537,1709 L1502,1684 Z M1742,1212 L1785,1212 L1820,1187 L1777,1187 Z M1742,1080 L1785,1080 L1820,1054 L1777,1054 Z M1742,1080 L1785,1080 L1820,1105 L1777,1105 Z M1763,1146 L1777,1105 L1790,1146 L1777,1187 Z M1742,1295 L1785,1295 L1820,1320 L1777,1320 Z M1742,947 L1785,947 L1820,972 L1777,972 Z M1763,1013 L1777,972 L1790,1013 L1777,1054 Z M622,1576 L579,1576 L544,1602 L587,1602 Z M544,1469 L531,1510 L496,1535 L509,1494 Z M544,1469 L501,1469 L466,1494 L509,1494 Z M565,1535 L531,1510 L544,1551 L579,1576 Z M466,1361 L452,1402 L417,1428 L431,1386 Z M487,1428 L452,1402 L466,1443 L501,1469 Z M670,1643 L657,1684 L622,1709 L635,1668 Z M1742,864 L1785,864 L1820,839 L1777,839 Z M417,1295 L374,1295 L339,1320 L382,1320 Z M388,1254 L374,1295 L361,1254 L374,1212 Z M1093,342 L1136,342 L1171,317 L1128,317 Z M1241,368 L1284,368 L1249,342 L1206,342 Z M1367,409 L1411,409 L1376,383 L1332,383 Z M657,475 L670,434 L705,409 L692,450 Z M635,491 L592,491 L557,516 L600,516 Z M374,864 L361,905 L326,931 L339,890 Z M353,1013 L339,1054 L326,1013 L339,972 Z M353,1146 L339,1187 L326,1146 L339,1105 Z M1650,665 L1693,665 L1728,690 L1685,690 Z M1502,475 L1467,450 L1454,409 L1489,434 Z M1093,1817 L1136,1817 L1171,1842 L1128,1842 Z M1241,1791 L1284,1791 L1249,1817 L1206,1817 Z M1367,1750 L1411,1750 L1376,1776 L1332,1776 Z M1650,1494 L1693,1494 L1728,1469 L1685,1469 Z M1502,1684 L1489,1725 L1454,1750 L1467,1709 Z M1777,1320 L1763,1361 L1777,1402 L1790,1361 Z M1785,1295 L1798,1254 L1833,1228 L1820,1269 Z M635,1668 L592,1668 L557,1643 L600,1643 Z M657,1684 L692,1709 L705,1750 L670,1725 Z M1777,839 L1790,798 L1777,757 L1763,798 Z M1785,864 L1820,890 L1833,931 L1798,905 Z M374,1295 L339,1269 L326,1228 L361,1254 Z M1079,301 L1036,301 L1001,276 L1045,276 Z M953,342 L966,301 L1001,276 L988,317 Z M1206,342 L1171,317 L1158,276 L1193,301 Z M1206,342 L1249,342 L1284,317 L1241,317 Z M1411,409 L1376,383 L1362,342 L1397,368 Z M1411,409 L1454,409 L1489,383 L1445,383 Z M748,409 L762,368 L797,342 L783,383 Z M748,409 L705,409 L670,383 L714,383 Z M544,557 L557,516 L544,475 L531,516 Z M544,557 L501,557 L466,583 L509,583 Z M417,731 L374,731 L339,757 L382,757 Z M339,839 L353,798 L339,757 L326,798 Z M339,972 L304,947 L291,905 L326,931 Z M339,972 L326,1013 L291,1038 L304,997 Z M339,972 L296,972 L261,997 L304,997 Z M339,972 L296,972 L261,947 L304,947 Z M339,1187 L304,1162 L291,1121 L326,1146 Z M339,1187 L326,1228 L291,1254 L304,1212 Z M339,1187 L296,1187 L261,1212 L304,1212 Z M339,1187 L296,1187 L261,1162 L304,1162 Z M1615,557 L1628,516 L1615,475 L1602,516 Z M1537,450 L1580,450 L1615,475 L1572,475 Z M1742,731 L1755,690 L1742,649 L1728,690 Z M1742,731 L1785,731 L1820,757 L1777,757 Z M1080,1858 L1036,1858 L1001,1883 L1045,1883 Z M1206,1817 L1193,1858 L1158,1883 L1171,1842 Z M1206,1817 L1249,1817 L1284,1842 L1241,1842 Z M953,1817 L988,1842 L1001,1883 L966,1858 Z M1411,1750 L1397,1791 L1362,1817 L1376,1776 Z M1411,1750 L1454,1750 L1489,1776 L1445,1776 Z M748,1750 L783,1776 L797,1817 L762,1791 Z M748,1750 L705,1750 L670,1776 L714,1776 Z M1615,1602 L1602,1643 L1615,1684 L1628,1643 Z M1742,1428 L1728,1469 L1742,1510 L1755,1469 Z M1742,1428 L1785,1428 L1820,1402 L1777,1402 Z M1537,1709 L1580,1709 L1615,1684 L1572,1684 Z M1820,1187 L1855,1212 L1868,1254 L1833,1228 Z M1820,1187 L1833,1146 L1868,1121 L1855,1162 Z M1820,972 L1855,997 L1868,1038 L1833,1013 Z M1820,972 L1833,931 L1868,905 L1855,947 Z M544,1602 L531,1643 L544,1684 L557,1643 Z M544,1602 L501,1602 L466,1576 L509,1576 Z M417,1428 L374,1428 L339,1402 L382,1402 Z M339,1320 L326,1361 L339,1402 L353,1361 Z M966,301 L931,276 L918,235 L953,260 Z M966,301 L923,301 L888,276 L931,276 Z M1193,301 L1206,260 L1241,235 L1228,276 Z M1445,383 L1459,342 L1445,301 L1432,342 Z M714,383 L727,342 L714,301 L700,342 Z M531,516 L487,516 L452,491 L496,491 Z M374,731 L339,706 L326,665 L361,690 Z M374,731 L388,690 L374,649 L361,690 Z M326,798 L283,798 L248,823 L291,823 Z M326,798 L283,798 L248,773 L291,773 Z M1755,690 L1798,690 L1833,665 L1790,665 Z M1785,731 L1798,690 L1833,665 L1820,706 Z M1193,1858 L1228,1883 L1241,1924 L1206,1899 Z M966,1858 L953,1899 L918,1924 L931,1883 Z M966,1858 L923,1858 L888,1883 L931,1883 Z M1445,1776 L1432,1817 L1445,1858 L1459,1817 Z M714,1776 L700,1817 L714,1858 L727,1817 Z M1755,1469 L1798,1469 L1833,1494 L1790,1494 Z M1785,1428 L1820,1453 L1833,1494 L1798,1469 Z M1855,1212 L1898,1212 L1933,1187 L1890,1187 Z M1855,947 L1898,947 L1933,972 L1890,972 Z M531,1643 L487,1643 L452,1668 L496,1668 Z M374,1428 L361,1469 L374,1510 L388,1469 Z M374,1428 L361,1469 L326,1494 L339,1453 Z M326,1361 L283,1361 L248,1386 L291,1386 Z M326,1361 L283,1361 L248,1336 L291,1336 Z M1079,250 L1093,209 L1079,168 L1066,209 Z M1128,235 L1093,209 L1079,168 L1114,194 Z M1031,235 L1045,194 L1079,168 L1066,209 Z M875,317 L888,276 L875,235 L862,276 Z M1284,317 L1297,276 L1284,235 L1271,276 Z M827,301 L783,301 L818,276 L862,276 Z M797,342 L762,317 L748,276 L783,301 Z M1332,301 L1297,276 L1284,235 L1319,260 Z M1332,301 L1376,301 L1411,276 L1367,276 Z M1362,342 L1376,301 L1411,276 L1397,317 Z M622,368 L579,368 L544,342 L587,342 Z M592,409 L557,383 L544,342 L579,368 Z M544,424 L557,383 L544,342 L531,383 Z M466,583 L431,557 L417,516 L452,542 Z M417,649 L374,649 L339,624 L382,624 Z M417,598 L374,598 L339,624 L382,624 Z M261,864 L226,839 L213,798 L248,823 Z M261,1080 L226,1054 L213,1013 L248,1038 Z M261,1080 L248,1121 L213,1146 L226,1105 Z M1663,542 L1707,542 L1742,516 L1698,516 Z M1693,583 L1707,542 L1742,516 L1728,557 Z M1663,491 L1707,491 L1742,516 L1698,516 Z M1742,598 L1755,557 L1742,516 L1728,557 Z M1537,368 L1580,368 L1615,342 L1572,342 Z M1567,409 L1580,368 L1615,342 L1602,383 Z M1615,424 L1628,383 L1615,342 L1602,383 Z M1128,1924 L1114,1965 L1080,1991 L1093,1950 Z M1080,1909 L1066,1950 L1080,1991 L1093,1950 Z M1031,1924 L1066,1950 L1080,1991 L1045,1965 Z M1284,1842 L1271,1883 L1284,1924 L1297,1883 Z M875,1842 L862,1883 L875,1924 L888,1883 Z M1332,1858 L1319,1899 L1284,1924 L1297,1883 Z M1332,1858 L1376,1858 L1411,1883 L1367,1883 Z M1362,1817 L1397,1842 L1411,1883 L1376,1858 Z M827,1858 L783,1858 L818,1883 L862,1883 Z M797,1817 L783,1858 L748,1883 L762,1842 Z M1663,1617 L1707,1617 L1742,1643 L1698,1643 Z M1663,1668 L1707,1668 L1742,1643 L1698,1643 Z M1693,1576 L1728,1602 L1742,1643 L1707,1617 Z M1742,1561 L1728,1602 L1742,1643 L1755,1602 Z M1537,1791 L1580,1791 L1615,1817 L1572,1817 Z M1567,1750 L1602,1776 L1615,1817 L1580,1791 Z M1615,1735 L1602,1776 L1615,1817 L1628,1776 Z M1868,1121 L1911,1121 L1946,1146 L1903,1146 Z M1868,1038 L1911,1038 L1946,1013 L1903,1013 Z M1898,1080 L1933,1105 L1946,1146 L1911,1121 Z M1898,1080 L1911,1038 L1946,1013 L1933,1054 Z M1868,1336 L1911,1336 L1946,1361 L1903,1361 Z M1868,1386 L1911,1386 L1946,1361 L1903,1361 Z M1898,1295 L1933,1320 L1946,1361 L1911,1336 Z M466,1576 L452,1617 L417,1643 L431,1602 Z M417,1561 L374,1561 L339,1535 L382,1535 Z M417,1510 L374,1510 L339,1535 L382,1535 Z M622,1791 L579,1791 L544,1817 L587,1817 Z M592,1750 L579,1791 L544,1817 L557,1776 Z M544,1735 L531,1776 L544,1817 L557,1776 Z M1868,773 L1911,773 L1946,798 L1903,798 Z M1868,823 L1911,823 L1946,798 L1903,798 Z M1898,864 L1911,823 L1946,798 L1933,839 Z M261,1295 L248,1336 L213,1361 L226,1320 Z M1114,194 L1158,194 L1123,168 L1079,168 Z M1045,194 L1001,194 L1036,168 L1079,168 Z M918,235 L875,235 L910,209 L953,209 Z M1241,235 L1284,235 L1249,209 L1206,209 Z M783,301 L797,260 L832,235 L818,276 Z M1445,301 L1489,301 L1454,276 L1411,276 Z M714,301 L670,301 L705,276 L748,276 Z M587,342 L544,342 L579,317 L622,317 Z M531,383 L544,342 L509,368 L496,409 Z M452,491 L466,450 L431,475 L417,516 Z M374,598 L388,557 L374,516 L361,557 Z M326,665 L339,624 L304,649 L291,690 Z M248,773 L261,731 L226,757 L213,798 Z M226,839 L213,880 L199,839 L213,798 Z M226,972 L213,1013 L199,972 L213,931 Z M226,1187 L213,1228 L199,1187 L213,1146 Z M1707,491 L1742,516 L1728,475 L1693,450 Z M1755,557 L1790,583 L1777,542 L1742,516 Z M1572,342 L1615,342 L1580,317 L1537,317 Z M1628,383 L1663,409 L1650,368 L1615,342 Z M1833,665 L1868,690 L1855,649 L1820,624 Z M1114,1965 L1158,1965 L1123,1991 L1080,1991 Z M1045,1965 L1001,1965 L1036,1991 L1080,1991 Z M1241,1924 L1284,1924 L1249,1950 L1206,1950 Z M918,1924 L875,1924 L910,1950 L953,1950 Z M783,1858 L818,1883 L832,1924 L797,1899 Z M1445,1858 L1489,1858 L1454,1883 L1411,1883 Z M714,1858 L670,1858 L705,1883 L748,1883 Z M1707,1668 L1693,1709 L1728,1684 L1742,1643 Z M1755,1602 L1742,1643 L1777,1617 L1790,1576 Z M1833,1494 L1820,1535 L1855,1510 L1868,1469 Z M1572,1817 L1615,1817 L1580,1842 L1537,1842 Z M1628,1776 L1615,1817 L1650,1791 L1663,1750 Z M1933,1187 L1946,1146 L1960,1187 L1946,1228 Z M1911,1386 L1898,1428 L1933,1402 L1946,1361 Z M1933,1320 L1946,1279 L1960,1320 L1946,1361 Z M1933,972 L1946,931 L1960,972 L1946,1013 Z M452,1668 L417,1643 L431,1684 L466,1709 Z M374,1561 L361,1602 L374,1643 L388,1602 Z M326,1494 L291,1469 L304,1510 L339,1535 Z M587,1817 L544,1817 L579,1842 L622,1842 Z M531,1776 L496,1750 L509,1791 L544,1817 Z M1911,773 L1946,798 L1933,757 L1898,731 Z M1933,839 L1946,798 L1960,839 L1946,880 Z M226,1320 L213,1361 L199,1320 L213,1279 Z M248,1386 L213,1361 L226,1402 L261,1428 Z M1079,168 L1045,143 L1031,102 L1066,127 Z M1079,168 L1093,127 L1079,86 L1066,127 Z M1079,168 L1093,127 L1128,102 L1114,143 Z M1079,168 L1036,168 L1001,143 L1045,143 Z M1079,168 L1123,168 L1158,143 L1114,143 Z M875,235 L840,209 L827,168 L862,194 Z M875,235 L832,235 L797,209 L840,209 Z M1284,235 L1297,194 L1332,168 L1319,209 Z M748,276 L762,235 L748,194 L735,235 Z M1354,235 L1397,235 L1362,209 L1319,209 Z M1411,276 L1424,235 L1411,194 L1397,235 Z M544,342 L509,317 L496,276 L531,301 Z M544,342 L557,301 L544,260 L531,301 Z M544,342 L557,301 L592,276 L579,317 Z M544,342 L501,342 L466,368 L509,368 Z M544,342 L501,342 L466,317 L509,317 Z M417,516 L374,516 L339,491 L382,491 Z M339,624 L304,598 L291,557 L326,583 Z M339,624 L296,624 L261,649 L304,649 Z M339,624 L296,624 L261,598 L304,598 Z M361,557 L374,516 L339,542 L326,583 Z M213,798 L178,773 L165,731 L199,757 Z M213,798 L199,839 L165,864 L178,823 Z M213,798 L226,757 L213,716 L199,757 Z M213,798 L170,798 L135,823 L178,823 Z M213,798 L170,798 L135,773 L178,773 Z M213,931 L170,931 L135,905 L178,905 Z M213,1013 L170,1013 L135,1038 L178,1038 Z M213,1146 L170,1146 L135,1121 L178,1121 Z M191,1080 L178,1121 L165,1080 L178,1038 Z M213,1228 L170,1228 L135,1254 L178,1254 Z M1742,516 L1785,516 L1820,491 L1777,491 Z M1742,516 L1785,516 L1820,542 L1777,542 Z M1820,624 L1833,583 L1868,557 L1855,598 Z M1615,342 L1580,317 L1567,276 L1602,301 Z M1615,342 L1628,301 L1615,260 L1602,301 Z M1615,342 L1628,301 L1663,276 L1650,317 Z M1868,690 L1911,690 L1946,665 L1903,665 Z M1080,1991 L1114,2016 L1128,2057 L1093,2032 Z M1080,1991 L1066,2032 L1080,2073 L1093,2032 Z M1080,1991 L1066,2032 L1031,2057 L1045,2016 Z M1080,1991 L1036,1991 L1001,2016 L1045,2016 Z M1080,1991 L1123,1991 L1158,2016 L1114,2016 Z M1284,1924 L1319,1950 L1332,1991 L1297,1965 Z M875,1924 L862,1965 L827,1991 L840,1950 Z M875,1924 L832,1924 L797,1950 L840,1950 Z M1354,1924 L1397,1924 L1362,1950 L1319,1950 Z M1411,1883 L1397,1924 L1411,1965 L1424,1924 Z M748,1883 L735,1924 L748,1965 L762,1924 Z M1742,1643 L1785,1643 L1820,1617 L1777,1617 Z M1742,1643 L1785,1643 L1820,1668 L1777,1668 Z M1820,1535 L1855,1561 L1868,1602 L1833,1576 Z M1868,1469 L1911,1469 L1946,1494 L1903,1494 Z M1615,1817 L1650,1842 L1663,1883 L1628,1858 Z M1615,1817 L1602,1858 L1615,1899 L1628,1858 Z M1615,1817 L1602,1858 L1567,1883 L1580,1842 Z M1946,1146 L1989,1146 L2024,1121 L1981,1121 Z M1946,1013 L1989,1013 L2024,1038 L1981,1038 Z M1968,1080 L1981,1038 L1994,1080 L1981,1121 Z M1946,1361 L1981,1386 L1994,1428 L1960,1402 Z M1946,1361 L1933,1402 L1946,1443 L1960,1402 Z M1946,1361 L1960,1320 L1994,1295 L1981,1336 Z M1946,1361 L1989,1361 L2024,1336 L1981,1336 Z M1946,1361 L1989,1361 L2024,1386 L1981,1386 Z M417,1643 L374,1643 L339,1668 L382,1668 Z M339,1535 L326,1576 L291,1602 L304,1561 Z M339,1535 L296,1535 L261,1561 L304,1561 Z M339,1535 L296,1535 L261,1510 L304,1510 Z M361,1602 L326,1576 L339,1617 L374,1643 Z M544,1817 L579,1842 L592,1883 L557,1858 Z M544,1817 L531,1858 L544,1899 L557,1858 Z M544,1817 L531,1858 L496,1883 L509,1842 Z M544,1817 L501,1817 L466,1842 L509,1842 Z M544,1817 L501,1817 L466,1791 L509,1791 Z M1946,798 L1981,823 L1994,864 L1960,839 Z M1946,798 L1960,757 L1946,716 L1933,757 Z M1946,798 L1960,757 L1994,731 L1981,773 Z M1946,798 L1989,798 L2024,773 L1981,773 Z M1946,798 L1989,798 L2024,823 L1981,823 Z M213,1361 L178,1336 L165,1295 L199,1320 Z M213,1361 L199,1402 L213,1443 L226,1402 Z M213,1361 L199,1402 L165,1428 L178,1386 Z M213,1361 L170,1361 L135,1386 L178,1386 Z M213,1361 L170,1361 L135,1336 L178,1336 Z M1249,209 L1262,168 L1249,127 L1236,168 Z M910,209 L923,168 L910,127 L897,168 Z M862,194 L875,153 L910,127 L897,168 Z M1297,194 L1262,168 L1249,127 L1284,153 Z M705,276 L670,250 L657,209 L692,235 Z M1424,235 L1467,235 L1502,209 L1459,209 Z M1454,276 L1467,235 L1502,209 L1489,250 Z M431,475 L396,450 L382,409 L417,434 Z M170,1013 L135,988 L121,947 L156,972 Z M170,1146 L156,1187 L121,1212 L135,1171 Z M1650,368 L1693,368 L1728,342 L1685,342 Z M1728,475 L1742,434 L1777,409 L1763,450 Z M1777,491 L1790,450 L1777,409 L1763,450 Z M1650,317 L1693,317 L1728,342 L1685,342 Z M1249,1950 L1236,1991 L1249,2032 L1262,1991 Z M910,1950 L897,1991 L910,2032 L923,1991 Z M1297,1965 L1284,2006 L1249,2032 L1262,1991 Z M862,1965 L897,1991 L910,2032 L875,2006 Z M1424,1924 L1467,1924 L1502,1950 L1459,1950 Z M1454,1883 L1489,1909 L1502,1950 L1467,1924 Z M705,1883 L692,1924 L657,1950 L670,1909 Z M1650,1791 L1693,1791 L1728,1817 L1685,1817 Z M1728,1684 L1763,1709 L1777,1750 L1742,1725 Z M1777,1668 L1763,1709 L1777,1750 L1790,1709 Z M1650,1842 L1693,1842 L1728,1817 L1685,1817 Z M1960,1187 L2003,1187 L2038,1212 L1994,1212 Z M1989,1146 L2024,1171 L2038,1212 L2003,1187 Z M1960,972 L2003,972 L2038,947 L1994,947 Z M1989,1013 L2003,972 L2038,947 L2024,988 Z M431,1684 L417,1725 L382,1750 L396,1709 Z M1206,127 L1171,102 L1158,61 L1193,86 Z M1206,127 L1249,127 L1284,102 L1241,102 Z M953,127 L966,86 L1001,61 L988,102 Z M953,127 L910,127 L875,102 L918,102 Z M748,194 L705,194 L670,168 L714,168 Z M1537,235 L1502,209 L1489,168 L1524,194 Z M1537,235 L1580,235 L1615,209 L1572,209 Z M622,235 L635,194 L670,168 L657,209 Z M417,383 L374,383 L339,409 L382,409 Z M339,491 L353,450 L339,409 L326,450 Z M213,665 L226,624 L213,583 L199,624 Z M213,665 L170,665 L135,690 L178,690 Z M135,905 L100,880 L86,839 L121,864 Z M135,905 L121,947 L86,972 L100,931 Z M135,1254 L100,1228 L86,1187 L121,1212 Z M135,1254 L121,1295 L86,1320 L100,1279 Z M1742,383 L1755,342 L1742,301 L1728,342 Z M1742,383 L1785,383 L1820,409 L1777,409 Z M1868,557 L1911,557 L1946,583 L1903,583 Z M1946,665 L1960,624 L1946,583 L1933,624 Z M1206,2032 L1193,2073 L1158,2098 L1171,2057 Z M1206,2032 L1249,2032 L1284,2057 L1241,2057 Z M953,2032 L988,2057 L1001,2098 L966,2073 Z M953,2032 L910,2032 L875,2057 L918,2057 Z M748,1965 L705,1965 L670,1991 L714,1991 Z M1537,1924 L1524,1965 L1489,1991 L1502,1950 Z M1537,1924 L1580,1924 L1615,1950 L1572,1950 Z M622,1924 L657,1950 L670,1991 L635,1965 Z M1742,1776 L1728,1817 L1742,1858 L1755,1817 Z M1742,1776 L1785,1776 L1820,1750 L1777,1750 Z M1868,1602 L1911,1602 L1946,1576 L1903,1576 Z M1946,1494 L1933,1535 L1946,1576 L1960,1535 Z M2024,1254 L2059,1279 L2073,1320 L2038,1295 Z M2024,1254 L2038,1212 L2073,1187 L2059,1228 Z M2024,905 L2059,931 L2073,972 L2038,947 Z M2024,905 L2038,864 L2073,839 L2059,880 Z M417,1776 L374,1776 L339,1750 L382,1750 Z M339,1668 L326,1709 L339,1750 L353,1709 Z M213,1494 L199,1535 L213,1576 L226,1535 Z M213,1494 L170,1494 L135,1469 L178,1469 Z M635,194 L592,194 L557,168 L600,168 Z M374,383 L388,342 L374,301 L361,342 Z M326,450 L283,450 L248,475 L291,475 Z M326,450 L283,450 L248,424 L291,424 Z M100,931 L57,931 L22,905 L65,905 Z M100,1228 L57,1228 L22,1254 L65,1254 Z M1960,624 L2003,624 L2038,598 L1994,598 Z M1960,624 L2003,624 L2038,649 L1994,649 Z M635,1965 L592,1965 L557,1991 L600,1991 Z M1960,1535 L2003,1535 L2038,1510 L1994,1510 Z M1960,1535 L2003,1535 L2038,1561 L1994,1561 Z M374,1776 L361,1817 L374,1858 L388,1817 Z M326,1709 L283,1709 L248,1735 L291,1735 Z M326,1709 L283,1709 L248,1684 L291,1684 Z M1284,102 L1297,61 L1284,20 L1271,61 Z M875,102 L888,61 L875,20 L862,61 Z M827,86 L783,86 L818,61 L862,61 Z M797,127 L762,102 L748,61 L783,86 Z M748,143 L762,102 L748,61 L735,102 Z M1332,86 L1376,86 L1411,61 L1367,61 Z M1362,127 L1376,86 L1411,61 L1397,102 Z M1411,143 L1424,102 L1411,61 L1397,102 Z M700,127 L657,127 L692,102 L735,102 Z M670,168 L635,143 L622,102 L657,127 Z M1459,127 L1424,102 L1411,61 L1445,86 Z M1489,168 L1502,127 L1537,102 L1524,143 Z M339,409 L304,383 L291,342 L326,368 Z M261,516 L226,491 L213,450 L248,475 Z M213,583 L170,583 L135,557 L178,557 Z M213,532 L226,491 L213,450 L199,491 Z M86,1105 L43,1105 L8,1080 L51,1080 Z M86,1054 L43,1054 L8,1080 L51,1080 Z M57,1013 L43,1054 L8,1080 L22,1038 Z M57,1146 L22,1121 L8,1080 L43,1105 Z M1820,409 L1833,368 L1868,342 L1855,383 Z M1868,424 L1903,450 L1890,409 L1855,383 Z M1868,475 L1911,475 L1946,450 L1903,450 Z M1898,516 L1911,475 L1946,450 L1933,491 Z M1946,532 L1960,491 L1946,450 L1933,491 Z M1284,2057 L1271,2098 L1284,2139 L1297,2098 Z M875,2057 L862,2098 L875,2139 L888,2098 Z M1332,2073 L1376,2073 L1411,2098 L1367,2098 Z M1362,2032 L1397,2057 L1411,2098 L1376,2073 Z M1411,2016 L1397,2057 L1411,2098 L1424,2057 Z M827,2073 L783,2073 L818,2098 L862,2098 Z M797,2032 L783,2073 L748,2098 L762,2057 Z M748,2016 L735,2057 L748,2098 L762,2057 Z M1459,2032 L1445,2073 L1411,2098 L1424,2057 Z M1489,1991 L1524,2016 L1537,2057 L1502,2032 Z M700,2032 L657,2032 L692,2057 L735,2057 Z M670,1991 L657,2032 L622,2057 L635,2016 Z M1820,1750 L1855,1776 L1868,1817 L1833,1791 Z M1868,1684 L1911,1684 L1946,1709 L1903,1709 Z M1898,1643 L1933,1668 L1946,1709 L1911,1684 Z M1868,1735 L1855,1776 L1890,1750 L1903,1709 Z M1946,1627 L1933,1668 L1946,1709 L1960,1668 Z M2073,1187 L2116,1187 L2151,1212 L2108,1212 Z M2073,1054 L2116,1054 L2151,1080 L2108,1080 Z M2073,1105 L2116,1105 L2151,1080 L2108,1080 Z M2102,1146 L2116,1105 L2151,1080 L2137,1121 Z M2073,972 L2116,972 L2151,947 L2108,947 Z M2102,1013 L2137,1038 L2151,1080 L2116,1054 Z M339,1750 L326,1791 L291,1817 L304,1776 Z M261,1643 L248,1684 L213,1709 L226,1668 Z M213,1627 L199,1668 L213,1709 L226,1668 Z M213,1576 L170,1576 L135,1602 L178,1602 Z " fill="transparent"/>
<path d="M1066,1038 L1080,997 L1045,972 L1031,1013 Z M1093,1121 L1080,1162 L1114,1187 L1128,1146 Z M1114,1054 L1158,1054 L1171,1013 L1128,1013 Z M1045,1105 L1001,1105 L988,1146 L1031,1146 Z M1114,1105 L1158,1105 L1171,1146 L1128,1146 Z M1045,1054 L1001,1054 L988,1013 L1031,1013 Z M1066,1121 L1031,1146 L1045,1187 L1080,1162 Z M1093,1038 L1128,1013 L1114,972 L1080,997 Z M1036,1080 L1001,1054 L966,1080 L1001,1105 Z M1123,1080 L1158,1105 L1193,1080 L1158,1054 Z M1031,1013 L988,1013 L1001,972 L1045,972 Z M1080,997 L1045,972 L1080,947 L1114,972 Z M1128,1146 L1171,1146 L1158,1187 L1114,1187 Z M1080,1162 L1114,1187 L1080,1212 L1045,1187 Z M1128,1013 L1171,1013 L1158,972 L1114,972 Z M1158,1054 L1171,1013 L1206,1038 L1193,1080 Z M1031,1146 L988,1146 L1001,1187 L1045,1187 Z M1001,1105 L988,1146 L953,1121 L966,1080 Z M1158,1105 L1193,1080 L1206,1121 L1171,1146 Z M1001,1054 L966,1080 L953,1038 L988,1013 Z M988,1013 L953,988 L918,1013 L953,1038 Z M988,1013 L1001,972 L966,947 L953,988 Z M1114,972 L1128,931 L1093,905 L1080,947 Z M1114,972 L1158,972 L1171,931 L1128,931 Z M1114,1187 L1080,1212 L1093,1254 L1128,1228 Z M1114,1187 L1158,1187 L1171,1228 L1128,1228 Z M1171,1146 L1206,1171 L1241,1146 L1206,1121 Z M1171,1146 L1158,1187 L1193,1212 L1206,1171 Z M1171,1013 L1206,988 L1193,947 L1158,972 Z M1171,1013 L1206,1038 L1241,1013 L1206,988 Z M1193,1080 L1236,1080 L1249,1121 L1206,1121 Z M1193,1080 L1236,1080 L1249,1038 L1206,1038 Z M988,1146 L953,1171 L966,1212 L1001,1187 Z M988,1146 L953,1121 L918,1146 L953,1171 Z M966,1080 L923,1080 L910,1038 L953,1038 Z M966,1080 L923,1080 L910,1121 L953,1121 Z M1080,947 L1036,947 L1023,905 L1066,905 Z M1001,972 L1036,947 L1023,905 L988,931 Z M1080,1212 L1036,1212 L1023,1254 L1066,1254 Z M1001,1187 L988,1228 L1023,1254 L1036,1212 Z M1066,905 L1023,905 L1036,864 L1080,864 Z M1093,905 L1128,880 L1114,839 L1080,864 Z M988,931 L953,905 L988,880 L1023,905 Z M966,947 L923,947 L910,905 L953,905 Z M918,1013 L875,1013 L888,972 L931,972 Z M910,1038 L897,1080 L862,1054 L875,1013 Z M1171,931 L1136,905 L1171,880 L1206,905 Z M1193,947 L1206,905 L1241,931 L1228,972 Z M1093,1254 L1080,1295 L1114,1320 L1128,1279 Z M1171,1228 L1206,1254 L1171,1279 L1136,1254 Z M1066,1254 L1023,1254 L1036,1295 L1080,1295 Z M1193,1212 L1228,1187 L1241,1228 L1206,1254 Z M1241,1146 L1284,1146 L1271,1187 L1228,1187 Z M1249,1121 L1262,1080 L1297,1105 L1284,1146 Z M966,1212 L923,1212 L910,1254 L953,1254 Z M988,1228 L1023,1254 L988,1279 L953,1254 Z M1241,1013 L1284,1013 L1271,972 L1228,972 Z M1249,1038 L1284,1013 L1297,1054 L1262,1080 Z M918,1146 L875,1146 L888,1187 L931,1187 Z M910,1121 L875,1146 L862,1105 L897,1080 Z M1080,864 L1045,839 L1080,814 L1114,839 Z M1023,905 L1036,864 L1001,839 L988,880 Z M1128,880 L1171,880 L1158,839 L1114,839 Z M953,905 L910,905 L923,864 L966,864 Z M923,947 L888,972 L875,931 L910,905 Z M875,1013 L832,1013 L818,972 L862,972 Z M897,1080 L862,1054 L827,1080 L862,1105 Z M1206,905 L1241,880 L1228,839 L1193,864 Z M1228,972 L1271,972 L1284,931 L1241,931 Z M1128,1279 L1171,1279 L1158,1320 L1114,1320 Z M1080,1295 L1114,1320 L1080,1345 L1045,1320 Z M1206,1254 L1193,1295 L1228,1320 L1241,1279 Z M1023,1254 L988,1279 L1001,1320 L1036,1295 Z M1228,1187 L1271,1187 L1284,1228 L1241,1228 Z M1284,1146 L1319,1121 L1332,1162 L1297,1187 Z M1262,1080 L1297,1105 L1332,1080 L1297,1054 Z M953,1254 L910,1254 L923,1295 L966,1295 Z M923,1212 L910,1254 L875,1228 L888,1187 Z M1284,1013 L1297,972 L1332,997 L1319,1038 Z M875,1146 L832,1146 L818,1187 L862,1187 Z M1114,839 L1128,798 L1093,773 L1080,814 Z M1114,839 L1158,839 L1171,798 L1128,798 Z M1045,839 L1080,814 L1066,773 L1031,798 Z M1045,839 L1001,839 L988,798 L1031,798 Z M966,864 L1001,839 L988,798 L953,823 Z M966,864 L923,864 L910,823 L953,823 Z M910,905 L875,880 L840,905 L875,931 Z M910,905 L923,864 L888,839 L875,880 Z M862,972 L875,931 L840,905 L827,947 Z M840,1038 L797,1038 L783,1080 L827,1080 Z M832,1013 L797,1038 L783,997 L818,972 Z M1193,864 L1206,823 L1171,798 L1158,839 Z M1241,880 L1284,880 L1271,839 L1228,839 Z M1249,905 L1284,931 L1319,905 L1284,880 Z M1114,1320 L1080,1345 L1093,1386 L1128,1361 Z M1114,1320 L1158,1320 L1171,1361 L1128,1361 Z M1045,1320 L1031,1361 L1066,1386 L1080,1345 Z M1045,1320 L1001,1320 L988,1361 L1031,1361 Z M1241,1279 L1284,1279 L1271,1320 L1228,1320 Z M1193,1295 L1158,1320 L1171,1361 L1206,1336 Z M1249,1254 L1284,1279 L1319,1254 L1284,1228 Z M1297,1187 L1332,1212 L1367,1187 L1332,1162 Z M1297,1187 L1284,1228 L1319,1254 L1332,1212 Z M1319,1121 L1362,1121 L1376,1080 L1332,1080 Z M966,1295 L953,1336 L988,1361 L1001,1320 Z M966,1295 L923,1295 L910,1336 L953,1336 Z M910,1254 L875,1279 L888,1320 L923,1295 Z M910,1254 L875,1228 L840,1254 L875,1279 Z M1319,1038 L1362,1038 L1376,1080 L1332,1080 Z M1297,972 L1332,947 L1319,905 L1284,931 Z M1297,972 L1332,997 L1367,972 L1332,947 Z M840,1121 L797,1121 L783,1080 L827,1080 Z M862,1187 L827,1212 L840,1254 L875,1228 Z M832,1146 L818,1187 L783,1162 L797,1121 Z M1128,798 L1171,798 L1158,757 L1114,757 Z M1031,798 L988,798 L1001,757 L1045,757 Z M953,823 L918,798 L953,773 L988,798 Z M875,880 L840,905 L827,864 L862,839 Z M827,947 L783,947 L797,905 L840,905 Z M818,972 L783,947 L748,972 L783,997 Z M797,1038 L783,1080 L748,1054 L762,1013 Z M1228,839 L1271,839 L1284,798 L1241,798 Z M1206,823 L1171,798 L1206,773 L1241,798 Z M1284,880 L1297,839 L1332,864 L1319,905 Z M1128,1361 L1171,1361 L1158,1402 L1114,1402 Z M1031,1361 L988,1361 L1001,1402 L1045,1402 Z M1228,1320 L1271,1320 L1284,1361 L1241,1361 Z M1284,1279 L1319,1254 L1332,1295 L1297,1320 Z M1206,1336 L1241,1361 L1206,1386 L1171,1361 Z M1332,1212 L1376,1212 L1362,1254 L1319,1254 Z M1354,1146 L1397,1146 L1411,1187 L1367,1187 Z M1362,1121 L1376,1080 L1411,1105 L1397,1146 Z M953,1336 L988,1361 L953,1386 L918,1361 Z M875,1279 L862,1320 L827,1295 L840,1254 Z M1354,1013 L1397,1013 L1411,972 L1367,972 Z M1362,1038 L1397,1013 L1411,1054 L1376,1080 Z M1332,947 L1376,947 L1362,905 L1319,905 Z M797,1121 L762,1146 L748,1105 L783,1080 Z M827,1212 L783,1212 L797,1254 L840,1254 Z M818,1187 L783,1162 L748,1187 L783,1212 Z M1171,798 L1206,773 L1193,731 L1158,757 Z M988,798 L1001,757 L966,731 L953,773 Z M840,905 L797,905 L783,864 L827,864 Z M783,1080 L748,1054 L714,1080 L748,1105 Z M1319,905 L1362,905 L1376,864 L1332,864 Z M1171,1361 L1158,1402 L1193,1428 L1206,1386 Z M988,1361 L953,1386 L966,1428 L1001,1402 Z M1319,1254 L1362,1254 L1376,1295 L1332,1295 Z M1376,1080 L1411,1105 L1445,1080 L1411,1054 Z M840,1254 L797,1254 L783,1295 L827,1295 Z M1080,731 L1036,731 L1023,690 L1066,690 Z M1158,757 L1123,731 L1158,706 L1193,731 Z M1206,773 L1249,773 L1236,731 L1193,731 Z M1001,757 L966,731 L1001,706 L1036,731 Z M953,773 L910,773 L923,731 L966,731 Z M875,798 L910,773 L897,731 L862,757 Z M827,864 L783,864 L797,823 L840,823 Z M797,905 L762,931 L748,890 L783,864 Z M748,972 L762,931 L727,905 L714,947 Z M748,972 L705,972 L692,1013 L735,1013 Z M748,1105 L705,1105 L692,1146 L735,1146 Z M748,1054 L705,1054 L692,1013 L735,1013 Z M1284,798 L1319,823 L1354,798 L1319,773 Z M1284,798 L1297,757 L1262,731 L1249,773 Z M1332,864 L1367,839 L1354,798 L1319,823 Z M1362,905 L1376,864 L1411,890 L1397,931 Z M1080,1428 L1036,1428 L1023,1469 L1066,1469 Z M1158,1402 L1193,1428 L1158,1453 L1123,1428 Z M1206,1386 L1249,1386 L1236,1428 L1193,1428 Z M1001,1402 L1036,1428 L1001,1453 L966,1428 Z M953,1386 L910,1386 L923,1428 L966,1428 Z M1332,1295 L1319,1336 L1354,1361 L1367,1320 Z M1362,1254 L1397,1228 L1411,1269 L1376,1295 Z M1284,1361 L1249,1386 L1262,1428 L1297,1402 Z M1284,1361 L1319,1386 L1354,1361 L1319,1336 Z M1411,1187 L1397,1228 L1432,1254 L1445,1212 Z M1411,1105 L1445,1080 L1459,1121 L1424,1146 Z M1411,1054 L1424,1013 L1459,1038 L1445,1080 Z M827,1295 L783,1295 L797,1336 L840,1336 Z M797,1254 L783,1295 L748,1269 L762,1228 Z M875,1361 L862,1402 L897,1428 L910,1386 Z M1411,972 L1445,947 L1432,905 L1397,931 Z M748,1187 L714,1212 L727,1254 L762,1228 Z M748,1187 L705,1187 L692,1146 L735,1146 Z M1066,690 L1080,649 L1045,624 L1031,665 Z M1114,706 L1158,706 L1171,665 L1128,665 Z M1093,690 L1128,665 L1114,624 L1080,649 Z M1193,731 L1206,690 L1171,665 L1158,706 Z M1193,731 L1236,731 L1249,690 L1206,690 Z M966,731 L1001,706 L988,665 L953,690 Z M966,731 L923,731 L910,690 L953,690 Z M862,757 L875,716 L840,690 L827,731 Z M840,773 L797,773 L783,731 L827,731 Z M832,798 L797,773 L762,798 L797,823 Z M783,864 L748,839 L714,864 L748,890 Z M783,864 L797,823 L762,798 L748,839 Z M714,947 L670,947 L657,905 L700,905 Z M705,972 L670,947 L635,972 L670,997 Z M705,1105 L692,1146 L657,1121 L670,1080 Z M705,1054 L670,1080 L657,1038 L692,1013 Z M1319,773 L1362,773 L1376,731 L1332,731 Z M1297,757 L1332,731 L1319,690 L1284,716 Z M1367,839 L1411,839 L1397,798 L1354,798 Z M1376,864 L1411,890 L1445,864 L1411,839 Z M1093,1469 L1080,1510 L1114,1535 L1128,1494 Z M1114,1453 L1158,1453 L1171,1494 L1128,1494 Z M1066,1469 L1031,1494 L1045,1535 L1080,1510 Z M1193,1428 L1158,1453 L1171,1494 L1206,1469 Z M1193,1428 L1236,1428 L1249,1469 L1206,1469 Z M966,1428 L953,1469 L988,1494 L1001,1453 Z M966,1428 L923,1428 L910,1469 L953,1469 Z M1367,1320 L1411,1320 L1397,1361 L1354,1361 Z M1376,1295 L1411,1320 L1445,1295 L1411,1269 Z M1297,1402 L1284,1443 L1319,1469 L1332,1428 Z M1319,1386 L1362,1386 L1376,1428 L1332,1428 Z M1445,1162 L1489,1162 L1502,1121 L1459,1121 Z M1445,1212 L1489,1212 L1502,1254 L1459,1254 Z M1454,1187 L1489,1212 L1524,1187 L1489,1162 Z M1445,1080 L1489,1080 L1502,1121 L1459,1121 Z M1445,1080 L1489,1080 L1502,1038 L1459,1038 Z M783,1295 L748,1320 L762,1361 L797,1336 Z M783,1295 L748,1269 L714,1295 L748,1320 Z M840,1386 L797,1386 L783,1428 L827,1428 Z M862,1402 L827,1428 L840,1469 L875,1443 Z M832,1361 L797,1336 L762,1361 L797,1386 Z M1445,947 L1489,947 L1502,905 L1459,905 Z M1445,997 L1489,997 L1502,1038 L1459,1038 Z M1454,972 L1489,997 L1524,972 L1489,947 Z M714,1212 L670,1212 L657,1254 L700,1254 Z M705,1187 L670,1162 L635,1187 L670,1212 Z M1031,665 L988,665 L1001,624 L1045,624 Z M1080,649 L1045,624 L1080,598 L1114,624 Z M1128,665 L1171,665 L1158,624 L1114,624 Z M1206,690 L1241,665 L1228,624 L1193,649 Z M953,690 L966,649 L931,624 L918,665 Z M827,731 L783,731 L797,690 L840,690 Z M875,716 L840,690 L875,665 L910,690 Z M797,773 L762,798 L748,757 L783,731 Z M748,839 L705,839 L692,798 L735,798 Z M700,905 L657,905 L670,864 L714,864 Z M670,947 L635,972 L622,931 L657,905 Z M670,997 L657,1038 L622,1013 L635,972 Z M670,1080 L635,1054 L600,1080 L635,1105 Z M1332,731 L1376,731 L1362,690 L1319,690 Z M1362,773 L1376,731 L1411,757 L1397,798 Z M1284,716 L1249,690 L1284,665 L1319,690 Z M1411,839 L1454,839 L1467,798 L1424,798 Z M1128,1494 L1171,1494 L1158,1535 L1114,1535 Z M1080,1510 L1114,1535 L1080,1561 L1045,1535 Z M1031,1494 L988,1494 L1001,1535 L1045,1535 Z M1206,1469 L1193,1510 L1228,1535 L1241,1494 Z M953,1469 L918,1494 L931,1535 L966,1510 Z M1411,1320 L1454,1320 L1467,1361 L1424,1361 Z M1332,1428 L1376,1428 L1362,1469 L1319,1469 Z M1284,1443 L1319,1469 L1284,1494 L1249,1469 Z M1362,1386 L1397,1361 L1411,1402 L1376,1428 Z M1489,1162 L1502,1121 L1537,1146 L1524,1187 Z M1459,1254 L1502,1254 L1489,1295 L1445,1295 Z M1489,1212 L1524,1187 L1537,1228 L1502,1254 Z M1489,1080 L1524,1105 L1559,1080 L1524,1054 Z M748,1320 L705,1320 L692,1361 L735,1361 Z M827,1428 L783,1428 L797,1469 L840,1469 Z M797,1386 L783,1428 L748,1402 L762,1361 Z M875,1443 L910,1469 L875,1494 L840,1469 Z M1459,905 L1502,905 L1489,864 L1445,864 Z M1489,947 L1502,905 L1537,931 L1524,972 Z M1489,997 L1524,972 L1537,1013 L1502,1038 Z M700,1254 L657,1254 L670,1295 L714,1295 Z M670,1212 L657,1254 L622,1228 L635,1187 Z M670,1162 L635,1187 L622,1146 L657,1121 Z M1045,624 L1080,598 L1066,557 L1031,583 Z M1045,624 L1001,624 L988,583 L1031,583 Z M1114,624 L1128,583 L1093,557 L1080,598 Z M1114,624 L1158,624 L1171,583 L1128,583 Z M1193,649 L1158,624 L1193,598 L1228,624 Z M1241,665 L1284,665 L1271,624 L1228,624 Z M918,665 L875,665 L888,624 L931,624 Z M966,649 L931,624 L966,598 L1001,624 Z M840,690 L875,665 L862,624 L827,649 Z M840,690 L797,690 L783,649 L827,649 Z M783,731 L748,706 L714,731 L748,757 Z M783,731 L797,690 L762,665 L748,706 Z M735,798 L692,798 L705,757 L748,757 Z M705,839 L670,864 L657,823 L692,798 Z M657,905 L622,880 L587,905 L622,931 Z M657,905 L670,864 L635,839 L622,880 Z M635,972 L592,972 L579,931 L622,931 Z M635,972 L592,972 L579,1013 L622,1013 Z M635,1105 L592,1105 L579,1146 L622,1146 Z M635,1054 L592,1054 L579,1013 L622,1013 Z M1319,690 L1332,649 L1297,624 L1284,665 Z M1319,690 L1362,690 L1376,649 L1332,649 Z M1376,731 L1411,706 L1397,665 L1362,690 Z M1376,731 L1411,757 L1445,731 L1411,706 Z M1424,798 L1459,773 L1445,731 L1411,757 Z M1454,839 L1467,798 L1502,823 L1489,864 Z M1114,1535 L1080,1561 L1093,1602 L1128,1576 Z M1114,1535 L1158,1535 L1171,1576 L1128,1576 Z M1045,1535 L1031,1576 L1066,1602 L1080,1561 Z M1045,1535 L1001,1535 L988,1576 L1031,1576 Z M1241,1494 L1284,1494 L1271,1535 L1228,1535 Z M1193,1510 L1228,1535 L1193,1561 L1158,1535 Z M966,1510 L1001,1535 L966,1561 L931,1535 Z M918,1494 L875,1494 L888,1535 L931,1535 Z M1424,1361 L1411,1402 L1445,1428 L1459,1386 Z M1454,1320 L1489,1295 L1502,1336 L1467,1361 Z M1319,1469 L1284,1494 L1297,1535 L1332,1510 Z M1319,1469 L1362,1469 L1376,1510 L1332,1510 Z M1376,1428 L1411,1453 L1445,1428 L1411,1402 Z M1376,1428 L1362,1469 L1397,1494 L1411,1453 Z M1524,1187 L1567,1187 L1580,1228 L1537,1228 Z M1524,1187 L1567,1187 L1580,1146 L1537,1146 Z M1502,1254 L1537,1279 L1572,1254 L1537,1228 Z M1502,1254 L1489,1295 L1524,1320 L1537,1279 Z M1524,1054 L1537,1013 L1572,1038 L1559,1080 Z M1524,1105 L1559,1080 L1572,1121 L1537,1146 Z M735,1361 L692,1361 L705,1402 L748,1402 Z M705,1320 L692,1361 L657,1336 L670,1295 Z M840,1469 L827,1510 L862,1535 L875,1494 Z M840,1469 L797,1469 L783,1510 L827,1510 Z M783,1428 L748,1453 L762,1494 L797,1469 Z M783,1428 L748,1402 L714,1428 L748,1453 Z M1502,905 L1537,880 L1524,839 L1489,864 Z M1502,905 L1537,931 L1572,905 L1537,880 Z M1524,972 L1567,972 L1580,1013 L1537,1013 Z M1524,972 L1567,972 L1580,931 L1537,931 Z M657,1254 L622,1279 L635,1320 L670,1295 Z M657,1254 L622,1228 L587,1254 L622,1279 Z M635,1187 L592,1187 L579,1146 L622,1146 Z M635,1187 L592,1187 L579,1228 L622,1228 Z M1128,583 L1171,583 L1158,542 L1114,542 Z M1228,624 L1241,583 L1206,557 L1193,598 Z M1228,624 L1271,624 L1284,583 L1241,583 Z M931,624 L966,598 L953,557 L918,583 Z M931,624 L888,624 L875,583 L918,583 Z M748,706 L714,731 L700,690 L735,665 Z M692,798 L657,773 L622,798 L657,823 Z M692,798 L705,757 L670,731 L657,773 Z M622,880 L579,880 L592,839 L635,839 Z M592,972 L579,1013 L544,988 L557,947 Z M592,1105 L579,1146 L544,1121 L557,1080 Z M592,1054 L557,1080 L544,1038 L579,1013 Z M1332,649 L1297,624 L1332,598 L1367,624 Z M1411,706 L1424,665 L1459,690 L1445,731 Z M1459,773 L1502,773 L1489,731 L1445,731 Z M1467,798 L1502,823 L1537,798 L1502,773 Z M1128,1576 L1171,1576 L1158,1617 L1114,1617 Z M1228,1535 L1193,1561 L1206,1602 L1241,1576 Z M1228,1535 L1271,1535 L1284,1576 L1241,1576 Z M931,1535 L918,1576 L953,1602 L966,1561 Z M931,1535 L888,1535 L875,1576 L918,1576 Z M1459,1386 L1502,1386 L1489,1428 L1445,1428 Z M1467,1361 L1502,1386 L1537,1361 L1502,1336 Z M1332,1510 L1367,1535 L1332,1561 L1297,1535 Z M1411,1453 L1445,1428 L1459,1469 L1424,1494 Z M1567,1187 L1580,1146 L1615,1171 L1602,1212 Z M1559,1080 L1602,1080 L1615,1121 L1572,1121 Z M1559,1080 L1602,1080 L1615,1038 L1572,1038 Z M692,1361 L657,1386 L670,1428 L705,1402 Z M692,1361 L657,1336 L622,1361 L657,1386 Z M748,1453 L735,1494 L700,1469 L714,1428 Z M1567,972 L1602,947 L1615,988 L1580,1013 Z M622,1279 L579,1279 L592,1320 L635,1320 Z M592,1187 L557,1212 L544,1171 L579,1146 Z M1066,557 L1023,557 L1036,516 L1080,516 Z M988,583 L1001,542 L966,516 L953,557 Z M1171,583 L1206,557 L1193,516 L1158,542 Z M1297,624 L1332,598 L1319,557 L1284,583 Z M862,624 L875,583 L840,557 L827,598 Z M783,649 L748,624 L783,598 L818,624 Z M714,731 L670,731 L657,690 L700,690 Z M635,839 L592,839 L579,798 L622,798 Z M579,1013 L544,988 L509,1013 L544,1038 Z M579,1146 L544,1121 L509,1146 L544,1171 Z M1445,731 L1489,731 L1502,690 L1459,690 Z M1524,839 L1567,839 L1580,798 L1537,798 Z M1171,1576 L1158,1617 L1193,1643 L1206,1602 Z M1066,1602 L1023,1602 L1036,1643 L1080,1643 Z M988,1576 L953,1602 L966,1643 L1001,1617 Z M1297,1535 L1284,1576 L1319,1602 L1332,1561 Z M862,1535 L827,1561 L840,1602 L875,1576 Z M1445,1428 L1489,1428 L1502,1469 L1459,1469 Z M1524,1320 L1567,1320 L1580,1361 L1537,1361 Z M1580,1146 L1615,1171 L1650,1146 L1615,1121 Z M1572,1254 L1615,1254 L1602,1295 L1559,1295 Z M1580,1013 L1615,1038 L1650,1013 L1615,988 Z M714,1428 L670,1428 L657,1469 L700,1469 Z M635,1320 L592,1320 L579,1361 L622,1361 Z M783,1510 L818,1535 L783,1561 L748,1535 Z M1572,905 L1615,905 L1602,864 L1559,864 Z M953,557 L910,557 L923,516 L966,516 Z M1001,542 L966,516 L1001,491 L1036,516 Z M1158,542 L1123,516 L1158,491 L1193,516 Z M1206,557 L1249,557 L1236,516 L1193,516 Z M1284,583 L1249,557 L1284,532 L1319,557 Z M1332,598 L1376,598 L1362,557 L1319,557 Z M875,583 L840,557 L875,532 L910,557 Z M827,598 L783,598 L797,557 L840,557 Z M700,690 L657,690 L670,649 L714,649 Z M670,731 L635,757 L622,716 L657,690 Z M622,798 L579,798 L592,757 L635,757 Z M592,839 L557,864 L544,823 L579,798 Z M544,1038 L501,1038 L487,1080 L531,1080 Z M544,988 L509,1013 L496,972 L531,947 Z M544,1121 L501,1121 L487,1080 L531,1080 Z M544,1171 L531,1212 L496,1187 L509,1146 Z M1459,690 L1502,690 L1489,649 L1445,649 Z M1489,731 L1502,690 L1537,716 L1524,757 Z M1537,798 L1572,773 L1559,731 L1524,757 Z M1567,839 L1580,798 L1615,823 L1602,864 Z M1158,1617 L1193,1643 L1158,1668 L1123,1643 Z M1206,1602 L1249,1602 L1236,1643 L1193,1643 Z M1001,1617 L1036,1643 L1001,1668 L966,1643 Z M953,1602 L910,1602 L923,1643 L966,1643 Z M1284,1576 L1319,1602 L1284,1627 L1249,1602 Z M1332,1561 L1376,1561 L1362,1602 L1319,1602 Z M875,1576 L910,1602 L875,1627 L840,1602 Z M827,1561 L783,1561 L797,1602 L840,1602 Z M1459,1469 L1502,1469 L1489,1510 L1445,1510 Z M1489,1428 L1524,1402 L1537,1443 L1502,1469 Z M1537,1361 L1524,1402 L1559,1428 L1572,1386 Z M1567,1320 L1602,1295 L1615,1336 L1580,1361 Z M1615,1121 L1628,1080 L1663,1105 L1650,1146 Z M1615,1171 L1650,1146 L1663,1187 L1628,1212 Z M1615,1254 L1650,1279 L1685,1254 L1650,1228 Z M1615,1038 L1650,1013 L1663,1054 L1628,1080 Z M1615,988 L1628,947 L1663,972 L1650,1013 Z M700,1469 L657,1469 L670,1510 L714,1510 Z M670,1428 L657,1469 L622,1443 L635,1402 Z M622,1361 L579,1361 L592,1402 L635,1402 Z M592,1320 L579,1361 L544,1336 L557,1295 Z M1615,905 L1650,931 L1685,905 L1650,880 Z M1066,475 L1080,434 L1045,409 L1031,450 Z M1114,491 L1158,491 L1171,450 L1128,450 Z M1045,491 L1001,491 L988,450 L1031,450 Z M1093,475 L1128,450 L1114,409 L1080,434 Z M966,516 L1001,491 L988,450 L953,475 Z M966,516 L923,516 L910,475 L953,475 Z M1193,516 L1206,475 L1171,450 L1158,491 Z M1193,516 L1236,516 L1249,475 L1206,475 Z M1319,557 L1332,516 L1297,491 L1284,532 Z M1319,557 L1362,557 L1376,516 L1332,516 Z M840,557 L875,532 L862,491 L827,516 Z M840,557 L797,557 L783,516 L827,516 Z M735,583 L748,542 L714,516 L700,557 Z M714,598 L670,598 L657,557 L700,557 Z M762,583 L797,557 L783,516 L748,542 Z M705,624 L670,598 L635,624 L670,649 Z M657,690 L622,665 L587,690 L622,716 Z M657,690 L670,649 L635,624 L622,665 Z M579,798 L544,773 L509,798 L544,823 Z M579,798 L592,757 L557,731 L544,773 Z M531,864 L544,823 L509,798 L496,839 Z M509,931 L466,931 L452,972 L496,972 Z M509,880 L466,880 L452,839 L496,839 Z M501,905 L466,880 L431,905 L466,931 Z M509,1013 L466,1013 L452,972 L496,972 Z M501,1038 L487,1080 L452,1054 L466,1013 Z M509,1146 L466,1146 L452,1187 L496,1187 Z M501,1121 L466,1146 L452,1105 L487,1080 Z M1502,690 L1537,665 L1524,624 L1489,649 Z M1502,690 L1537,716 L1572,690 L1537,665 Z M1397,583 L1411,542 L1376,516 L1362,557 Z M1445,598 L1489,598 L1502,557 L1459,557 Z M1424,583 L1459,557 L1445,516 L1411,542 Z M1454,624 L1489,649 L1524,624 L1489,598 Z M1572,773 L1615,773 L1602,731 L1559,731 Z M1580,798 L1615,823 L1650,798 L1615,773 Z M1093,1684 L1080,1725 L1114,1750 L1128,1709 Z M1045,1668 L1001,1668 L988,1709 L1031,1709 Z M1114,1668 L1158,1668 L1171,1709 L1128,1709 Z M1066,1684 L1031,1709 L1045,1750 L1080,1725 Z M1193,1643 L1158,1668 L1171,1709 L1206,1684 Z M1193,1643 L1236,1643 L1249,1684 L1206,1684 Z M966,1643 L953,1684 L988,1709 L1001,1668 Z M966,1643 L923,1643 L910,1684 L953,1684 Z M1319,1602 L1284,1627 L1297,1668 L1332,1643 Z M1319,1602 L1362,1602 L1376,1643 L1332,1643 Z M840,1602 L827,1643 L862,1668 L875,1627 Z M840,1602 L797,1602 L783,1643 L827,1643 Z M1502,1469 L1537,1494 L1572,1469 L1537,1443 Z M1502,1469 L1489,1510 L1524,1535 L1537,1494 Z M1572,1386 L1615,1386 L1602,1428 L1559,1428 Z M1580,1361 L1615,1386 L1650,1361 L1615,1336 Z M1424,1576 L1411,1617 L1445,1643 L1459,1602 Z M1445,1561 L1489,1561 L1502,1602 L1459,1602 Z M1397,1576 L1362,1602 L1376,1643 L1411,1617 Z M1454,1535 L1489,1561 L1524,1535 L1489,1510 Z M1650,1146 L1693,1146 L1707,1187 L1663,1187 Z M1650,1146 L1693,1146 L1707,1105 L1663,1105 Z M1628,1080 L1663,1105 L1698,1080 L1663,1054 Z M1628,1295 L1615,1336 L1650,1361 L1663,1320 Z M1650,1228 L1693,1228 L1707,1187 L1663,1187 Z M1650,1279 L1693,1279 L1707,1320 L1663,1320 Z M1650,1013 L1693,1013 L1707,1054 L1663,1054 Z M1650,1013 L1693,1013 L1707,972 L1663,972 Z M657,1469 L622,1494 L635,1535 L670,1510 Z M657,1469 L622,1443 L587,1469 L622,1494 Z M579,1361 L544,1386 L557,1428 L592,1402 Z M579,1361 L544,1336 L509,1361 L544,1386 Z M762,1576 L748,1617 L783,1643 L797,1602 Z M714,1561 L670,1561 L657,1602 L700,1602 Z M735,1576 L700,1602 L714,1643 L748,1617 Z M705,1535 L670,1510 L635,1535 L670,1561 Z M1650,880 L1693,880 L1707,839 L1663,839 Z M1650,931 L1693,931 L1707,972 L1663,972 Z M1628,864 L1663,839 L1650,798 L1615,823 Z M509,1279 L466,1279 L452,1320 L496,1320 Z M509,1228 L466,1228 L452,1187 L496,1187 Z M531,1295 L496,1320 L509,1361 L544,1336 Z M501,1254 L466,1228 L431,1254 L466,1279 Z M1031,450 L988,450 L1001,409 L1045,409 Z M1080,434 L1045,409 L1080,383 L1114,409 Z M1128,450 L1171,450 L1158,409 L1114,409 Z M953,475 L918,450 L953,424 L988,450 Z M897,516 L910,475 L875,450 L862,491 Z M1206,475 L1171,450 L1206,424 L1241,450 Z M1262,516 L1297,491 L1284,450 L1249,475 Z M1332,516 L1376,516 L1362,475 L1319,475 Z M827,516 L783,516 L797,475 L840,475 Z M700,557 L657,557 L670,516 L714,516 Z M748,542 L714,516 L748,491 L783,516 Z M670,598 L635,624 L622,583 L657,557 Z M622,665 L579,665 L592,624 L635,624 Z M600,731 L557,731 L544,690 L587,690 Z M544,773 L509,798 L496,757 L531,731 Z M496,839 L452,839 L466,798 L509,798 Z M466,931 L452,972 L417,947 L431,905 Z M466,880 L431,905 L417,864 L452,839 Z M466,1013 L431,1038 L417,997 L452,972 Z M487,1080 L452,1054 L417,1080 L452,1105 Z M466,1146 L452,1187 L417,1162 L431,1121 Z M1537,665 L1580,665 L1567,624 L1524,624 Z M1559,731 L1602,731 L1615,690 L1572,690 Z M1411,542 L1376,516 L1411,491 L1445,516 Z M1459,557 L1502,557 L1489,516 L1445,516 Z M1489,598 L1502,557 L1537,583 L1524,624 Z M1615,773 L1628,731 L1663,757 L1650,798 Z M1128,1709 L1171,1709 L1158,1750 L1114,1750 Z M1080,1725 L1114,1750 L1080,1776 L1045,1750 Z M1031,1709 L988,1709 L1001,1750 L1045,1750 Z M1206,1684 L1241,1709 L1206,1735 L1171,1709 Z M1262,1643 L1249,1684 L1284,1709 L1297,1668 Z M953,1684 L988,1709 L953,1735 L918,1709 Z M897,1643 L862,1668 L875,1709 L910,1684 Z M1332,1643 L1376,1643 L1362,1684 L1319,1684 Z M827,1643 L783,1643 L797,1684 L840,1684 Z M1537,1494 L1580,1494 L1567,1535 L1524,1535 Z M1559,1428 L1602,1428 L1615,1469 L1572,1469 Z M1615,1386 L1650,1361 L1663,1402 L1628,1428 Z M1459,1602 L1502,1602 L1489,1643 L1445,1643 Z M1411,1617 L1445,1643 L1411,1668 L1376,1643 Z M1489,1561 L1524,1535 L1537,1576 L1502,1602 Z M1693,1146 L1728,1121 L1742,1162 L1707,1187 Z M1663,1320 L1707,1320 L1693,1361 L1650,1361 Z M1693,1228 L1707,1187 L1742,1212 L1728,1254 Z M1693,1279 L1728,1254 L1742,1295 L1707,1320 Z M1693,1013 L1707,972 L1742,997 L1728,1038 Z M622,1494 L579,1494 L592,1535 L635,1535 Z M600,1428 L557,1428 L544,1469 L587,1469 Z M544,1386 L531,1428 L496,1402 L509,1361 Z M748,1617 L783,1643 L748,1668 L714,1643 Z M700,1602 L657,1602 L670,1643 L714,1643 Z M670,1561 L657,1602 L622,1576 L635,1535 Z M1663,839 L1707,839 L1693,798 L1650,798 Z M1693,880 L1707,839 L1742,864 L1728,905 Z M1693,931 L1728,905 L1742,947 L1707,972 Z M496,1320 L452,1320 L466,1361 L509,1361 Z M466,1279 L452,1320 L417,1295 L431,1254 Z M466,1228 L431,1254 L417,1212 L452,1187 Z M988,450 L1001,409 L966,383 L953,424 Z M1114,409 L1128,368 L1093,342 L1080,383 Z M1114,409 L1158,409 L1171,368 L1128,368 Z M1171,450 L1206,424 L1193,383 L1158,409 Z M1241,450 L1284,450 L1271,409 L1228,409 Z M1319,475 L1284,450 L1319,424 L1354,450 Z M1376,516 L1411,491 L1397,450 L1362,475 Z M783,516 L797,475 L762,450 L748,491 Z M635,624 L592,624 L579,583 L622,583 Z M579,665 L544,690 L531,649 L565,624 Z M509,798 L466,798 L452,757 L496,757 Z M531,731 L487,731 L501,690 L544,690 Z M452,972 L417,947 L382,972 L417,997 Z M431,905 L388,905 L374,864 L417,864 Z M431,905 L388,905 L374,947 L417,947 Z M431,1038 L388,1038 L374,1080 L417,1080 Z M452,1187 L417,1162 L382,1187 L417,1212 Z M431,1121 L388,1121 L374,1080 L417,1080 Z M1524,624 L1567,624 L1580,583 L1537,583 Z M1580,665 L1594,624 L1628,649 L1615,690 Z M1445,516 L1459,475 L1424,450 L1411,491 Z M1445,516 L1489,516 L1502,475 L1459,475 Z M1650,798 L1693,798 L1707,757 L1663,757 Z M1114,1750 L1080,1776 L1093,1817 L1128,1791 Z M1114,1750 L1158,1750 L1171,1791 L1128,1791 Z M1171,1709 L1158,1750 L1193,1776 L1206,1735 Z M988,1709 L953,1735 L966,1776 L1001,1750 Z M1241,1709 L1284,1709 L1271,1750 L1228,1750 Z M1319,1684 L1354,1709 L1319,1735 L1284,1709 Z M1376,1643 L1362,1684 L1397,1709 L1411,1668 Z M783,1643 L748,1668 L762,1709 L797,1684 Z M1524,1535 L1567,1535 L1580,1576 L1537,1576 Z M1580,1494 L1615,1469 L1628,1510 L1594,1535 Z M1650,1361 L1693,1361 L1707,1402 L1663,1402 Z M1445,1643 L1411,1668 L1424,1709 L1459,1684 Z M1445,1643 L1489,1643 L1502,1684 L1459,1684 Z M1707,1187 L1742,1212 L1777,1187 L1742,1162 Z M1728,1121 L1742,1080 L1777,1105 L1763,1146 Z M1707,972 L1742,997 L1777,972 L1742,947 Z M1728,1038 L1763,1013 L1777,1054 L1742,1080 Z M635,1535 L592,1535 L579,1576 L622,1576 Z M579,1494 L565,1535 L531,1510 L544,1469 Z M509,1361 L466,1361 L452,1402 L496,1402 Z M531,1428 L487,1428 L501,1469 L544,1469 Z M431,1254 L388,1254 L374,1212 L417,1212 Z M431,1254 L388,1254 L374,1295 L417,1295 Z M1080,383 L1036,383 L1023,342 L1066,342 Z M1001,409 L1036,383 L1023,342 L988,368 Z M953,424 L910,424 L923,383 L966,383 Z M1228,409 L1241,368 L1206,342 L1193,383 Z M1228,409 L1271,409 L1284,368 L1241,368 Z M1354,450 L1367,409 L1332,383 L1319,424 Z M1354,450 L1397,450 L1411,409 L1367,409 Z M797,475 L762,450 L797,424 L832,450 Z M748,491 L705,491 L692,450 L735,450 Z M670,516 L705,491 L692,450 L657,475 Z M670,516 L635,491 L600,516 L635,542 Z M622,583 L635,542 L600,516 L587,557 Z M466,798 L431,773 L396,798 L431,823 Z M417,864 L431,823 L396,798 L382,839 Z M396,1013 L353,1013 L339,972 L382,972 Z M388,1038 L374,1080 L339,1054 L353,1013 Z M396,1146 L353,1146 L339,1187 L382,1187 Z M388,1121 L353,1146 L339,1105 L374,1080 Z M1537,583 L1572,557 L1559,516 L1524,542 Z M1615,690 L1650,716 L1685,690 L1650,665 Z M1489,516 L1524,542 L1559,516 L1524,491 Z M1663,757 L1698,731 L1685,690 L1650,716 Z M1693,798 L1728,823 L1763,798 L1728,773 Z M1080,1776 L1036,1776 L1023,1817 L1066,1817 Z M1001,1750 L988,1791 L1023,1817 L1036,1776 Z M953,1735 L910,1735 L923,1776 L966,1776 Z M1228,1750 L1193,1776 L1206,1817 L1241,1791 Z M1228,1750 L1271,1750 L1284,1791 L1241,1791 Z M1354,1709 L1319,1735 L1332,1776 L1367,1750 Z M1354,1709 L1397,1709 L1411,1750 L1367,1750 Z M797,1684 L832,1709 L797,1735 L762,1709 Z M748,1668 L705,1668 L692,1709 L735,1709 Z M1537,1576 L1524,1617 L1559,1643 L1572,1602 Z M1615,1469 L1650,1494 L1685,1469 L1650,1443 Z M1663,1402 L1650,1443 L1685,1469 L1698,1428 Z M1693,1361 L1728,1386 L1763,1361 L1728,1336 Z M1489,1643 L1524,1668 L1559,1643 L1524,1617 Z M1742,1212 L1785,1212 L1798,1254 L1755,1254 Z M1742,1295 L1728,1336 L1763,1361 L1777,1320 Z M1742,1295 L1785,1295 L1798,1254 L1755,1254 Z M1742,947 L1785,947 L1798,905 L1755,905 Z M622,1576 L587,1602 L600,1643 L635,1617 Z M466,1361 L431,1336 L396,1361 L431,1386 Z M670,1643 L635,1617 L600,1643 L635,1668 Z M670,1643 L657,1684 L692,1709 L705,1668 Z M1742,864 L1777,839 L1763,798 L1728,823 Z M1742,864 L1785,864 L1798,905 L1755,905 Z M417,1295 L382,1320 L396,1361 L431,1336 Z M1066,342 L1023,342 L1036,301 L1079,301 Z M1093,342 L1128,317 L1114,276 L1079,301 Z M988,368 L953,342 L988,317 L1023,342 Z M966,383 L923,383 L910,342 L953,342 Z M1171,368 L1136,342 L1171,317 L1206,342 Z M862,409 L875,368 L840,342 L827,383 Z M840,424 L797,424 L783,383 L827,383 Z M888,409 L923,383 L910,342 L875,368 Z M1297,409 L1332,383 L1319,342 L1284,368 Z M1424,450 L1467,450 L1454,409 L1411,409 Z M762,450 L797,424 L783,383 L748,409 Z M735,450 L692,450 L705,409 L748,409 Z M657,475 L670,434 L635,409 L622,450 Z M635,491 L592,491 L579,450 L622,450 Z M587,557 L544,557 L557,516 L600,516 Z M579,583 L544,557 L509,583 L544,608 Z M531,649 L544,608 L509,583 L496,624 Z M509,665 L466,665 L452,624 L496,624 Z M501,690 L466,665 L431,690 L466,716 Z M452,757 L466,716 L431,690 L417,731 Z M431,773 L396,798 L382,757 L417,731 Z M382,839 L339,839 L353,798 L396,798 Z M374,864 L339,839 L304,864 L339,890 Z M374,947 L339,972 L326,931 L361,905 Z M374,1080 L339,1054 L304,1080 L339,1105 Z M374,1212 L361,1254 L326,1228 L339,1187 Z M1572,557 L1615,557 L1602,516 L1559,516 Z M1580,583 L1615,608 L1650,583 L1615,557 Z M1650,665 L1693,665 L1707,624 L1663,624 Z M1628,649 L1663,624 L1650,583 L1615,608 Z M1502,475 L1537,450 L1524,409 L1489,434 Z M1524,491 L1537,450 L1572,475 L1559,516 Z M1698,731 L1742,731 L1728,690 L1685,690 Z M1728,773 L1742,731 L1777,757 L1763,798 Z M1093,1817 L1080,1858 L1114,1883 L1128,1842 Z M1171,1791 L1206,1817 L1171,1842 L1136,1817 Z M1066,1817 L1023,1817 L1036,1858 L1080,1858 Z M966,1776 L923,1776 L910,1817 L953,1817 Z M988,1791 L1023,1817 L988,1842 L953,1817 Z M1297,1750 L1284,1791 L1319,1817 L1332,1776 Z M888,1750 L875,1791 L910,1817 L923,1776 Z M840,1735 L797,1735 L783,1776 L827,1776 Z M862,1750 L827,1776 L840,1817 L875,1791 Z M1424,1709 L1467,1709 L1454,1750 L1411,1750 Z M762,1709 L748,1750 L783,1776 L797,1735 Z M735,1709 L692,1709 L705,1750 L748,1750 Z M1572,1602 L1615,1602 L1602,1643 L1559,1643 Z M1580,1576 L1615,1602 L1650,1576 L1615,1551 Z M1628,1510 L1615,1551 L1650,1576 L1663,1535 Z M1650,1494 L1693,1494 L1707,1535 L1663,1535 Z M1698,1428 L1742,1428 L1728,1469 L1685,1469 Z M1728,1386 L1763,1361 L1777,1402 L1742,1428 Z M1502,1684 L1489,1725 L1524,1750 L1537,1709 Z M1524,1668 L1559,1643 L1572,1684 L1537,1709 Z M1777,1187 L1820,1187 L1833,1146 L1790,1146 Z M1785,1212 L1820,1187 L1833,1228 L1798,1254 Z M1777,1054 L1820,1054 L1833,1013 L1790,1013 Z M1777,1105 L1820,1105 L1833,1146 L1790,1146 Z M1785,1080 L1820,1105 L1855,1080 L1820,1054 Z M1777,1320 L1820,1320 L1833,1361 L1790,1361 Z M1785,1295 L1820,1320 L1855,1295 L1820,1269 Z M1777,972 L1820,972 L1833,1013 L1790,1013 Z M1785,947 L1798,905 L1833,931 L1820,972 Z M587,1602 L544,1602 L557,1643 L600,1643 Z M579,1576 L544,1551 L509,1576 L544,1602 Z M509,1494 L466,1494 L452,1535 L496,1535 Z M531,1510 L496,1535 L509,1576 L544,1551 Z M501,1469 L466,1443 L431,1469 L466,1494 Z M452,1402 L417,1428 L431,1469 L466,1443 Z M431,1386 L417,1428 L382,1402 L396,1361 Z M635,1668 L592,1668 L579,1709 L622,1709 Z M657,1684 L622,1709 L635,1750 L670,1725 Z M1777,839 L1820,839 L1833,798 L1790,798 Z M1785,864 L1820,890 L1855,864 L1820,839 Z M382,1320 L339,1320 L353,1361 L396,1361 Z M374,1295 L339,1269 L304,1295 L339,1320 Z M1079,301 L1045,276 L1079,250 L1114,276 Z M1023,342 L1036,301 L1001,276 L988,317 Z M1128,317 L1171,317 L1158,276 L1114,276 Z M953,342 L910,342 L923,301 L966,301 Z M1206,342 L1241,317 L1228,276 L1193,301 Z M827,383 L783,383 L797,342 L840,342 Z M875,368 L840,342 L875,317 L910,342 Z M1284,368 L1249,342 L1284,317 L1319,342 Z M1332,383 L1376,383 L1362,342 L1319,342 Z M1411,409 L1445,383 L1432,342 L1397,368 Z M748,409 L762,368 L727,342 L714,383 Z M622,450 L579,450 L592,409 L635,409 Z M670,434 L635,409 L670,383 L705,409 Z M592,491 L557,516 L544,475 L579,450 Z M544,557 L501,557 L487,516 L531,516 Z M496,624 L452,624 L466,583 L509,583 Z M466,665 L431,690 L417,649 L452,624 Z M417,731 L374,731 L388,690 L431,690 Z M396,798 L353,798 L339,757 L382,757 Z M339,839 L304,864 L291,823 L326,798 Z M339,890 L326,931 L291,905 L304,864 Z M339,1054 L304,1080 L291,1038 L326,1013 Z M339,1105 L326,1146 L291,1121 L304,1080 Z M1559,516 L1602,516 L1615,475 L1572,475 Z M1615,557 L1628,516 L1663,542 L1650,583 Z M1663,624 L1707,624 L1693,583 L1650,583 Z M1693,665 L1707,624 L1742,649 L1728,690 Z M1489,434 L1454,409 L1489,383 L1524,409 Z M1537,450 L1580,450 L1567,409 L1524,409 Z M1742,731 L1785,731 L1798,690 L1755,690 Z M1128,1842 L1171,1842 L1158,1883 L1114,1883 Z M1080,1858 L1114,1883 L1080,1909 L1045,1883 Z M1206,1817 L1193,1858 L1228,1883 L1241,1842 Z M1023,1817 L988,1842 L1001,1883 L1036,1858 Z M953,1817 L910,1817 L923,1858 L966,1858 Z M1284,1791 L1319,1817 L1284,1842 L1249,1817 Z M1332,1776 L1376,1776 L1362,1817 L1319,1817 Z M875,1791 L910,1817 L875,1842 L840,1817 Z M827,1776 L783,1776 L797,1817 L840,1817 Z M1411,1750 L1397,1791 L1432,1817 L1445,1776 Z M748,1750 L714,1776 L727,1817 L762,1791 Z M1559,1643 L1602,1643 L1615,1684 L1572,1684 Z M1615,1602 L1650,1576 L1663,1617 L1628,1643 Z M1663,1535 L1707,1535 L1693,1576 L1650,1576 Z M1693,1494 L1728,1469 L1742,1510 L1707,1535 Z M1742,1428 L1785,1428 L1798,1469 L1755,1469 Z M1537,1709 L1580,1709 L1567,1750 L1524,1750 Z M1489,1725 L1524,1750 L1489,1776 L1454,1750 Z M1820,1187 L1855,1212 L1890,1187 L1855,1162 Z M1820,1054 L1833,1013 L1868,1038 L1855,1080 Z M1820,1105 L1855,1080 L1868,1121 L1833,1146 Z M1790,1361 L1833,1361 L1820,1402 L1777,1402 Z M1820,1320 L1855,1295 L1868,1336 L1833,1361 Z M1820,1269 L1833,1228 L1868,1254 L1855,1295 Z M1820,972 L1855,997 L1890,972 L1855,947 Z M544,1602 L501,1602 L487,1643 L531,1643 Z M496,1535 L452,1535 L466,1576 L509,1576 Z M466,1494 L452,1535 L417,1510 L431,1469 Z M417,1428 L374,1428 L388,1469 L431,1469 Z M396,1361 L353,1361 L339,1402 L382,1402 Z M622,1709 L579,1709 L592,1750 L635,1750 Z M592,1668 L579,1709 L544,1684 L557,1643 Z M670,1725 L705,1750 L670,1776 L635,1750 Z M1790,798 L1833,798 L1820,757 L1777,757 Z M1820,839 L1833,798 L1868,823 L1855,864 Z M1820,890 L1855,864 L1868,905 L1833,931 Z M339,1320 L326,1361 L291,1336 L304,1295 Z M339,1269 L304,1295 L291,1254 L326,1228 Z M1114,276 L1128,235 L1093,209 L1079,250 Z M1114,276 L1158,276 L1171,235 L1128,235 Z M1045,276 L1079,250 L1066,209 L1031,235 Z M1045,276 L1001,276 L988,235 L1031,235 Z M966,301 L1001,276 L988,235 L953,260 Z M910,342 L923,301 L888,276 L875,317 Z M1193,301 L1206,260 L1171,235 L1158,276 Z M1241,317 L1284,317 L1271,276 L1228,276 Z M840,342 L875,317 L862,276 L827,301 Z M840,342 L797,342 L783,301 L827,301 Z M1319,342 L1332,301 L1297,276 L1284,317 Z M1319,342 L1362,342 L1376,301 L1332,301 Z M1397,368 L1362,342 L1397,317 L1432,342 Z M1445,383 L1489,383 L1502,342 L1459,342 Z M714,383 L670,383 L657,342 L700,342 Z M762,368 L727,342 L762,317 L797,342 Z M635,409 L670,383 L657,342 L622,368 Z M635,409 L592,409 L579,368 L622,368 Z M579,450 L544,424 L509,450 L544,475 Z M579,450 L592,409 L557,383 L544,424 Z M531,516 L544,475 L509,450 L496,491 Z M501,557 L466,583 L452,542 L487,516 Z M452,624 L417,598 L382,624 L417,649 Z M452,624 L466,583 L431,557 L417,598 Z M431,690 L388,690 L374,649 L417,649 Z M374,731 L339,706 L304,731 L339,757 Z M326,798 L339,757 L304,731 L291,773 Z M304,864 L261,864 L248,823 L291,823 Z M304,864 L261,864 L248,905 L291,905 Z M304,997 L261,997 L248,1038 L291,1038 Z M304,947 L261,947 L248,905 L291,905 Z M296,972 L261,947 L226,972 L261,997 Z M304,1080 L261,1080 L248,1038 L291,1038 Z M304,1080 L261,1080 L248,1121 L291,1121 Z M304,1212 L261,1212 L248,1254 L291,1254 Z M304,1162 L261,1162 L248,1121 L291,1121 Z M296,1187 L261,1162 L226,1187 L261,1212 Z M1650,583 L1693,583 L1707,542 L1663,542 Z M1628,516 L1663,491 L1650,450 L1615,475 Z M1628,516 L1663,542 L1698,516 L1663,491 Z M1707,624 L1742,598 L1728,557 L1693,583 Z M1707,624 L1742,649 L1777,624 L1742,598 Z M1524,409 L1537,368 L1502,342 L1489,383 Z M1524,409 L1567,409 L1580,368 L1537,368 Z M1580,450 L1615,424 L1602,383 L1567,409 Z M1580,450 L1615,475 L1650,450 L1615,424 Z M1755,690 L1790,665 L1777,624 L1742,649 Z M1785,731 L1820,757 L1855,731 L1820,706 Z M1114,1883 L1080,1909 L1093,1950 L1128,1924 Z M1114,1883 L1158,1883 L1171,1924 L1128,1924 Z M1045,1883 L1031,1924 L1066,1950 L1080,1909 Z M1045,1883 L1001,1883 L988,1924 L1031,1924 Z M1241,1842 L1284,1842 L1271,1883 L1228,1883 Z M1193,1858 L1158,1883 L1171,1924 L1206,1899 Z M966,1858 L953,1899 L988,1924 L1001,1883 Z M910,1817 L875,1842 L888,1883 L923,1858 Z M1319,1817 L1284,1842 L1297,1883 L1332,1858 Z M1319,1817 L1362,1817 L1376,1858 L1332,1858 Z M840,1817 L827,1858 L862,1883 L875,1842 Z M840,1817 L797,1817 L783,1858 L827,1858 Z M1445,1776 L1489,1776 L1502,1817 L1459,1817 Z M1397,1791 L1432,1817 L1397,1842 L1362,1817 Z M762,1791 L797,1817 L762,1842 L727,1817 Z M714,1776 L670,1776 L657,1817 L700,1817 Z M1628,1643 L1663,1668 L1698,1643 L1663,1617 Z M1628,1643 L1615,1684 L1650,1709 L1663,1668 Z M1650,1576 L1693,1576 L1707,1617 L1663,1617 Z M1707,1535 L1742,1561 L1777,1535 L1742,1510 Z M1707,1535 L1693,1576 L1728,1602 L1742,1561 Z M1755,1469 L1742,1510 L1777,1535 L1790,1494 Z M1785,1428 L1820,1453 L1855,1428 L1820,1402 Z M1524,1750 L1489,1776 L1502,1817 L1537,1791 Z M1524,1750 L1567,1750 L1580,1791 L1537,1791 Z M1580,1709 L1615,1735 L1650,1709 L1615,1684 Z M1580,1709 L1567,1750 L1602,1776 L1615,1735 Z M1855,1162 L1868,1121 L1903,1146 L1890,1187 Z M1855,1212 L1898,1212 L1911,1254 L1868,1254 Z M1855,1080 L1898,1080 L1911,1121 L1868,1121 Z M1855,1080 L1898,1080 L1911,1038 L1868,1038 Z M1833,1361 L1868,1386 L1903,1361 L1868,1336 Z M1833,1361 L1820,1402 L1855,1428 L1868,1386 Z M1855,1295 L1898,1295 L1911,1336 L1868,1336 Z M1855,1295 L1898,1295 L1911,1254 L1868,1254 Z M1855,947 L1898,947 L1911,905 L1868,905 Z M1855,997 L1890,972 L1903,1013 L1868,1038 Z M531,1643 L496,1668 L509,1709 L544,1684 Z M501,1602 L487,1643 L452,1617 L466,1576 Z M452,1535 L417,1561 L431,1602 L466,1576 Z M452,1535 L417,1510 L382,1535 L417,1561 Z M431,1469 L388,1469 L374,1510 L417,1510 Z M374,1428 L339,1402 L304,1428 L339,1453 Z M635,1750 L622,1791 L657,1817 L670,1776 Z M635,1750 L592,1750 L579,1791 L622,1791 Z M579,1709 L544,1735 L557,1776 L592,1750 Z M579,1709 L544,1684 L509,1709 L544,1735 Z M1833,798 L1868,773 L1855,731 L1820,757 Z M1833,798 L1868,823 L1903,798 L1868,773 Z M1855,864 L1898,864 L1911,905 L1868,905 Z M1855,864 L1898,864 L1911,823 L1868,823 Z M304,1295 L261,1295 L248,1254 L291,1254 Z M304,1295 L261,1295 L248,1336 L291,1336 Z M326,1361 L291,1386 L304,1428 L339,1402 Z M1128,235 L1171,235 L1158,194 L1114,194 Z M1031,235 L988,235 L1001,194 L1045,194 Z M953,260 L918,235 L953,209 L988,235 Z M931,276 L888,276 L875,235 L918,235 Z M1228,276 L1271,276 L1284,235 L1241,235 Z M1206,260 L1171,235 L1206,209 L1241,235 Z M1332,301 L1367,276 L1354,235 L1319,260 Z M1432,342 L1445,301 L1411,276 L1397,317 Z M1459,342 L1502,342 L1489,301 L1445,301 Z M700,342 L657,342 L670,301 L714,301 Z M727,342 L762,317 L748,276 L714,301 Z M622,368 L587,342 L622,317 L657,342 Z M544,424 L509,450 L496,409 L531,383 Z M496,491 L452,491 L466,450 L509,450 Z M487,516 L452,491 L417,516 L452,542 Z M417,598 L374,598 L388,557 L431,557 Z M361,690 L374,649 L339,624 L326,665 Z M339,706 L304,731 L291,690 L326,665 Z M291,773 L248,773 L261,731 L304,731 Z M283,798 L248,773 L213,798 L248,823 Z M261,864 L248,905 L213,880 L226,839 Z M261,997 L248,1038 L213,1013 L226,972 Z M261,947 L226,972 L213,931 L248,905 Z M261,1080 L226,1054 L191,1080 L226,1105 Z M261,1212 L248,1254 L213,1228 L226,1187 Z M261,1162 L226,1187 L213,1146 L248,1121 Z M1663,491 L1707,491 L1693,450 L1650,450 Z M1742,598 L1755,557 L1790,583 L1777,624 Z M1537,368 L1502,342 L1537,317 L1572,342 Z M1615,424 L1628,383 L1663,409 L1650,450 Z M1790,665 L1833,665 L1820,624 L1777,624 Z M1820,706 L1833,665 L1868,690 L1855,731 Z M1128,1924 L1171,1924 L1158,1965 L1114,1965 Z M1031,1924 L988,1924 L1001,1965 L1045,1965 Z M1228,1883 L1271,1883 L1284,1924 L1241,1924 Z M1206,1899 L1241,1924 L1206,1950 L1171,1924 Z M931,1883 L888,1883 L875,1924 L918,1924 Z M953,1899 L988,1924 L953,1950 L918,1924 Z M1332,1858 L1319,1899 L1354,1924 L1367,1883 Z M1459,1817 L1502,1817 L1489,1858 L1445,1858 Z M1432,1817 L1397,1842 L1411,1883 L1445,1858 Z M727,1817 L714,1858 L748,1883 L762,1842 Z M700,1817 L657,1817 L670,1858 L714,1858 Z M1663,1668 L1707,1668 L1693,1709 L1650,1709 Z M1742,1561 L1777,1535 L1790,1576 L1755,1602 Z M1790,1494 L1833,1494 L1820,1535 L1777,1535 Z M1820,1453 L1855,1428 L1868,1469 L1833,1494 Z M1537,1791 L1572,1817 L1537,1842 L1502,1817 Z M1615,1735 L1650,1709 L1663,1750 L1628,1776 Z M1890,1187 L1933,1187 L1946,1146 L1903,1146 Z M1898,1212 L1933,1187 L1946,1228 L1911,1254 Z M1898,1080 L1933,1105 L1968,1080 L1933,1054 Z M1868,1386 L1911,1386 L1898,1428 L1855,1428 Z M1898,1295 L1911,1254 L1946,1279 L1933,1320 Z M1890,972 L1933,972 L1946,1013 L1903,1013 Z M1898,947 L1911,905 L1946,931 L1933,972 Z M496,1668 L452,1668 L466,1709 L509,1709 Z M487,1643 L452,1617 L417,1643 L452,1668 Z M417,1561 L374,1561 L388,1602 L431,1602 Z M339,1453 L326,1494 L291,1469 L304,1428 Z M361,1469 L326,1494 L339,1535 L374,1510 Z M622,1791 L657,1817 L622,1842 L587,1817 Z M544,1735 L531,1776 L496,1750 L509,1709 Z M1868,773 L1911,773 L1898,731 L1855,731 Z M1898,864 L1933,839 L1946,880 L1911,905 Z M261,1295 L226,1320 L213,1279 L248,1254 Z M291,1386 L248,1386 L261,1428 L304,1428 Z M283,1361 L248,1336 L213,1361 L248,1386 Z M1171,235 L1206,209 L1193,168 L1158,194 Z M988,235 L1001,194 L966,168 L953,209 Z M862,276 L818,276 L832,235 L875,235 Z M783,301 L797,260 L762,235 L748,276 Z M1319,260 L1284,235 L1319,209 L1354,235 Z M1367,276 L1411,276 L1397,235 L1354,235 Z M1502,342 L1537,317 L1524,276 L1489,301 Z M657,342 L670,301 L635,276 L622,317 Z M509,450 L466,450 L452,409 L496,409 Z M431,557 L388,557 L374,516 L417,516 Z M374,598 L339,624 L326,583 L361,557 Z M304,731 L261,731 L248,690 L291,690 Z M248,905 L213,880 L178,905 L213,931 Z M226,1105 L213,1146 L178,1121 L191,1080 Z M226,1054 L191,1080 L178,1038 L213,1013 Z M248,1254 L213,1228 L178,1254 L213,1279 Z M1650,450 L1693,450 L1707,409 L1663,409 Z M1777,624 L1820,624 L1833,583 L1790,583 Z M1855,731 L1898,731 L1911,690 L1868,690 Z M1171,1924 L1158,1965 L1193,1991 L1206,1950 Z M988,1924 L953,1950 L966,1991 L1001,1965 Z M862,1883 L818,1883 L832,1924 L875,1924 Z M1367,1883 L1411,1883 L1397,1924 L1354,1924 Z M1319,1899 L1354,1924 L1319,1950 L1284,1924 Z M783,1858 L748,1883 L762,1924 L797,1899 Z M1502,1817 L1489,1858 L1524,1883 L1537,1842 Z M657,1817 L622,1842 L635,1883 L670,1858 Z M1650,1709 L1693,1709 L1707,1750 L1663,1750 Z M1777,1535 L1820,1535 L1833,1576 L1790,1576 Z M1855,1428 L1898,1428 L1911,1469 L1868,1469 Z M1911,1254 L1946,1279 L1981,1254 L1946,1228 Z M1933,1054 L1946,1013 L1981,1038 L1968,1080 Z M1933,1105 L1968,1080 L1981,1121 L1946,1146 Z M1911,905 L1946,931 L1981,905 L1946,880 Z M509,1709 L466,1709 L452,1750 L496,1750 Z M431,1602 L388,1602 L374,1643 L417,1643 Z M374,1561 L361,1602 L326,1576 L339,1535 Z M304,1428 L261,1428 L248,1469 L291,1469 Z M1158,194 L1123,168 L1158,143 L1193,168 Z M1206,209 L1249,209 L1236,168 L1193,168 Z M1001,194 L966,168 L1001,143 L1036,168 Z M953,209 L910,209 L923,168 L966,168 Z M875,235 L910,209 L897,168 L862,194 Z M1284,235 L1297,194 L1262,168 L1249,209 Z M748,276 L705,276 L692,235 L735,235 Z M797,260 L762,235 L797,209 L832,235 Z M1411,276 L1454,276 L1467,235 L1424,235 Z M1489,301 L1454,276 L1489,250 L1524,276 Z M1537,317 L1580,317 L1567,276 L1524,276 Z M670,301 L635,276 L670,250 L705,276 Z M622,317 L579,317 L592,276 L635,276 Z M496,409 L452,409 L466,368 L509,368 Z M466,450 L431,475 L417,434 L452,409 Z M417,516 L431,475 L396,450 L382,491 Z M291,690 L248,690 L261,649 L304,649 Z M261,731 L226,757 L213,716 L248,690 Z M213,931 L170,931 L156,972 L199,972 Z M213,880 L178,905 L165,864 L199,839 Z M213,1013 L170,1013 L156,972 L199,972 Z M213,1146 L170,1146 L156,1187 L199,1187 Z M213,1279 L199,1320 L165,1295 L178,1254 Z M213,1228 L170,1228 L156,1187 L199,1187 Z M1663,409 L1707,409 L1693,368 L1650,368 Z M1693,450 L1707,409 L1742,434 L1728,475 Z M1742,516 L1777,491 L1763,450 L1728,475 Z M1790,583 L1833,583 L1820,542 L1777,542 Z M1820,624 L1855,649 L1890,624 L1855,598 Z M1615,342 L1650,368 L1685,342 L1650,317 Z M1868,690 L1903,665 L1890,624 L1855,649 Z M1898,731 L1911,690 L1946,716 L1933,757 Z M1158,1965 L1193,1991 L1158,2016 L1123,1991 Z M1206,1950 L1249,1950 L1236,1991 L1193,1991 Z M1001,1965 L1036,1991 L1001,2016 L966,1991 Z M953,1950 L910,1950 L923,1991 L966,1991 Z M1284,1924 L1249,1950 L1262,1991 L1297,1965 Z M875,1924 L862,1965 L897,1991 L910,1950 Z M1411,1883 L1454,1883 L1467,1924 L1424,1924 Z M797,1899 L832,1924 L797,1950 L762,1924 Z M748,1883 L705,1883 L692,1924 L735,1924 Z M1489,1858 L1524,1883 L1489,1909 L1454,1883 Z M1537,1842 L1580,1842 L1567,1883 L1524,1883 Z M670,1858 L705,1883 L670,1909 L635,1883 Z M622,1842 L579,1842 L592,1883 L635,1883 Z M1663,1750 L1707,1750 L1693,1791 L1650,1791 Z M1693,1709 L1728,1684 L1742,1725 L1707,1750 Z M1742,1643 L1728,1684 L1763,1709 L1777,1668 Z M1790,1576 L1833,1576 L1820,1617 L1777,1617 Z M1820,1535 L1855,1561 L1890,1535 L1855,1510 Z M1868,1469 L1855,1510 L1890,1535 L1903,1494 Z M1898,1428 L1933,1402 L1946,1443 L1911,1469 Z M1615,1817 L1650,1842 L1685,1817 L1650,1791 Z M1946,1146 L1989,1146 L2003,1187 L1960,1187 Z M1946,1228 L1960,1187 L1994,1212 L1981,1254 Z M1946,1279 L1981,1254 L1994,1295 L1960,1320 Z M1946,1013 L1989,1013 L2003,972 L1960,972 Z M1946,931 L1981,905 L1994,947 L1960,972 Z M1946,880 L1960,839 L1994,864 L1981,905 Z M496,1750 L452,1750 L466,1791 L509,1791 Z M466,1709 L452,1750 L417,1725 L431,1684 Z M417,1643 L382,1668 L396,1709 L431,1684 Z M291,1469 L248,1469 L261,1510 L304,1510 Z M261,1428 L248,1469 L213,1443 L226,1402 Z M1066,127 L1079,86 L1045,61 L1031,102 Z M1114,143 L1158,143 L1171,102 L1128,102 Z M1045,143 L1001,143 L988,102 L1031,102 Z M1093,127 L1128,102 L1114,61 L1079,86 Z M1193,168 L1206,127 L1171,102 L1158,143 Z M1193,168 L1236,168 L1249,127 L1206,127 Z M966,168 L1001,143 L988,102 L953,127 Z M966,168 L923,168 L910,127 L953,127 Z M862,194 L875,153 L840,127 L827,168 Z M840,209 L797,209 L783,168 L827,168 Z M1319,209 L1362,209 L1376,168 L1332,168 Z M1297,194 L1332,168 L1319,127 L1284,153 Z M735,235 L692,235 L705,194 L748,194 Z M762,235 L797,209 L783,168 L748,194 Z M1397,235 L1411,194 L1376,168 L1362,209 Z M1424,235 L1459,209 L1445,168 L1411,194 Z M1524,276 L1537,235 L1502,209 L1489,250 Z M1524,276 L1567,276 L1580,235 L1537,235 Z M635,276 L670,250 L657,209 L622,235 Z M635,276 L592,276 L579,235 L622,235 Z M531,301 L544,260 L509,235 L496,276 Z M509,317 L466,317 L452,276 L496,276 Z M557,301 L592,276 L579,235 L544,260 Z M501,342 L466,317 L431,342 L466,368 Z M452,409 L417,383 L382,409 L417,434 Z M452,409 L466,368 L431,342 L417,383 Z M382,491 L339,491 L353,450 L396,450 Z M374,516 L339,491 L304,516 L339,542 Z M326,583 L339,542 L304,516 L291,557 Z M304,598 L261,598 L248,557 L291,557 Z M296,624 L261,598 L226,624 L261,649 Z M248,690 L213,665 L178,690 L213,716 Z M248,690 L261,649 L226,624 L213,665 Z M199,757 L213,716 L178,690 L165,731 Z M178,823 L135,823 L121,864 L165,864 Z M178,773 L135,773 L121,731 L165,731 Z M170,798 L135,773 L100,798 L135,823 Z M178,905 L135,905 L121,864 L165,864 Z M170,931 L156,972 L121,947 L135,905 Z M178,1038 L135,1038 L121,1080 L165,1080 Z M170,1013 L135,988 L100,1013 L135,1038 Z M178,1121 L135,1121 L121,1080 L165,1080 Z M170,1146 L135,1121 L100,1146 L135,1171 Z M178,1254 L135,1254 L121,1295 L165,1295 Z M170,1228 L135,1254 L121,1212 L156,1187 Z M1707,409 L1742,383 L1728,342 L1693,368 Z M1707,409 L1742,434 L1777,409 L1742,383 Z M1777,491 L1820,491 L1833,450 L1790,450 Z M1785,516 L1820,542 L1855,516 L1820,491 Z M1833,583 L1868,557 L1855,516 L1820,542 Z M1855,598 L1868,557 L1903,583 L1890,624 Z M1602,301 L1615,260 L1580,235 L1567,276 Z M1650,317 L1693,317 L1707,276 L1663,276 Z M1628,301 L1663,276 L1650,235 L1615,260 Z M1903,665 L1946,665 L1933,624 L1890,624 Z M1911,690 L1946,716 L1981,690 L1946,665 Z M1093,2032 L1080,2073 L1114,2098 L1128,2057 Z M1045,2016 L1001,2016 L988,2057 L1031,2057 Z M1114,2016 L1158,2016 L1171,2057 L1128,2057 Z M1066,2032 L1031,2057 L1045,2098 L1080,2073 Z M1193,1991 L1158,2016 L1171,2057 L1206,2032 Z M1193,1991 L1236,1991 L1249,2032 L1206,2032 Z M966,1991 L953,2032 L988,2057 L1001,2016 Z M966,1991 L923,1991 L910,2032 L953,2032 Z M1297,1965 L1284,2006 L1319,2032 L1332,1991 Z M1319,1950 L1362,1950 L1376,1991 L1332,1991 Z M840,1950 L797,1950 L783,1991 L827,1991 Z M862,1965 L827,1991 L840,2032 L875,2006 Z M1397,1924 L1362,1950 L1376,1991 L1411,1965 Z M1424,1924 L1411,1965 L1445,1991 L1459,1950 Z M762,1924 L748,1965 L783,1991 L797,1950 Z M735,1924 L692,1924 L705,1965 L748,1965 Z M1524,1883 L1489,1909 L1502,1950 L1537,1924 Z M1524,1883 L1567,1883 L1580,1924 L1537,1924 Z M635,1883 L622,1924 L657,1950 L670,1909 Z M635,1883 L592,1883 L579,1924 L622,1924 Z M1707,1750 L1742,1776 L1777,1750 L1742,1725 Z M1707,1750 L1693,1791 L1728,1817 L1742,1776 Z M1777,1668 L1820,1668 L1833,1709 L1790,1709 Z M1785,1643 L1820,1668 L1855,1643 L1820,1617 Z M1833,1576 L1820,1617 L1855,1643 L1868,1602 Z M1855,1561 L1890,1535 L1903,1576 L1868,1602 Z M1903,1494 L1946,1494 L1933,1535 L1890,1535 Z M1911,1469 L1946,1494 L1981,1469 L1946,1443 Z M1628,1858 L1615,1899 L1650,1924 L1663,1883 Z M1650,1842 L1693,1842 L1707,1883 L1663,1883 Z M1602,1858 L1567,1883 L1580,1924 L1615,1899 Z M1981,1121 L2024,1121 L2038,1080 L1994,1080 Z M1989,1146 L2024,1171 L2059,1146 L2024,1121 Z M1981,1254 L2024,1254 L2038,1295 L1994,1295 Z M1981,1254 L2024,1254 L2038,1212 L1994,1212 Z M1981,1038 L2024,1038 L2038,1080 L1994,1080 Z M1989,1013 L2024,1038 L2059,1013 L2024,988 Z M1960,1402 L1946,1443 L1981,1469 L1994,1428 Z M1981,1336 L2024,1336 L2038,1295 L1994,1295 Z M1981,1386 L2024,1386 L2038,1428 L1994,1428 Z M1989,1361 L2024,1386 L2059,1361 L2024,1336 Z M1981,905 L2024,905 L2038,947 L1994,947 Z M1981,905 L2024,905 L2038,864 L1994,864 Z M452,1750 L417,1776 L431,1817 L466,1791 Z M452,1750 L417,1725 L382,1750 L417,1776 Z M382,1668 L339,1668 L353,1709 L396,1709 Z M374,1643 L339,1617 L304,1643 L339,1668 Z M304,1561 L261,1561 L248,1602 L291,1602 Z M326,1576 L291,1602 L304,1643 L339,1617 Z M296,1535 L261,1510 L226,1535 L261,1561 Z M248,1469 L213,1494 L226,1535 L261,1510 Z M248,1469 L213,1443 L178,1469 L213,1494 Z M557,1858 L544,1899 L579,1924 L592,1883 Z M509,1842 L466,1842 L452,1883 L496,1883 Z M531,1858 L496,1883 L509,1924 L544,1899 Z M501,1817 L466,1791 L431,1817 L466,1842 Z M1981,773 L2024,773 L2038,731 L1994,731 Z M1981,823 L2024,823 L2038,864 L1994,864 Z M1960,757 L1994,731 L1981,690 L1946,716 Z M1989,798 L2024,823 L2059,798 L2024,773 Z M178,1386 L135,1386 L121,1428 L165,1428 Z M178,1336 L135,1336 L121,1295 L165,1295 Z M199,1402 L165,1428 L178,1469 L213,1443 Z M170,1361 L135,1336 L100,1361 L135,1386 Z M1031,102 L988,102 L1001,61 L1045,61 Z M1079,86 L1045,61 L1079,35 L1114,61 Z M1128,102 L1171,102 L1158,61 L1114,61 Z M1206,127 L1241,102 L1228,61 L1193,86 Z M953,127 L966,86 L931,61 L918,102 Z M827,168 L783,168 L797,127 L840,127 Z M875,153 L840,127 L875,102 L910,127 Z M1332,168 L1376,168 L1362,127 L1319,127 Z M1284,153 L1249,127 L1284,102 L1319,127 Z M748,194 L714,168 L748,143 L783,168 Z M692,235 L705,194 L670,168 L657,209 Z M1411,194 L1376,168 L1411,143 L1445,168 Z M1459,209 L1502,209 L1489,168 L1445,168 Z M1537,235 L1572,209 L1559,168 L1524,194 Z M622,235 L579,235 L592,194 L635,194 Z M496,276 L452,276 L466,235 L509,235 Z M544,260 L509,235 L544,209 L579,235 Z M466,317 L431,342 L417,301 L452,276 Z M417,383 L374,383 L388,342 L431,342 Z M396,450 L353,450 L339,409 L382,409 Z M339,491 L304,516 L291,475 L326,450 Z M291,557 L248,557 L261,516 L304,516 Z M261,598 L226,624 L213,583 L248,557 Z M213,665 L170,665 L156,624 L199,624 Z M165,731 L121,731 L135,690 L178,690 Z M135,823 L121,864 L86,839 L100,798 Z M135,773 L100,798 L86,757 L121,731 Z M135,905 L100,880 L65,905 L100,931 Z M135,1038 L121,1080 L86,1054 L100,1013 Z M135,988 L100,1013 L86,972 L121,947 Z M135,1121 L100,1146 L86,1105 L121,1080 Z M135,1171 L121,1212 L86,1187 L100,1146 Z M135,1254 L100,1228 L65,1254 L100,1279 Z M1742,383 L1785,383 L1798,342 L1755,342 Z M1790,450 L1833,450 L1820,409 L1777,409 Z M1820,491 L1833,450 L1868,475 L1855,516 Z M1868,557 L1911,557 L1898,516 L1855,516 Z M1890,624 L1933,624 L1946,583 L1903,583 Z M1615,260 L1580,235 L1615,209 L1650,235 Z M1663,276 L1707,276 L1693,235 L1650,235 Z M1693,317 L1707,276 L1742,301 L1728,342 Z M1946,665 L1960,624 L1994,649 L1981,690 Z M1128,2057 L1171,2057 L1158,2098 L1114,2098 Z M1080,2073 L1114,2098 L1080,2124 L1045,2098 Z M1031,2057 L988,2057 L1001,2098 L1045,2098 Z M1206,2032 L1193,2073 L1228,2098 L1241,2057 Z M953,2032 L918,2057 L931,2098 L966,2073 Z M1332,1991 L1376,1991 L1362,2032 L1319,2032 Z M1284,2006 L1319,2032 L1284,2057 L1249,2032 Z M827,1991 L783,1991 L797,2032 L840,2032 Z M875,2006 L910,2032 L875,2057 L840,2032 Z M1411,1965 L1445,1991 L1411,2016 L1376,1991 Z M1459,1950 L1502,1950 L1489,1991 L1445,1991 Z M748,1965 L783,1991 L748,2016 L714,1991 Z M692,1924 L657,1950 L670,1991 L705,1965 Z M1537,1924 L1524,1965 L1559,1991 L1572,1950 Z M622,1924 L579,1924 L592,1965 L635,1965 Z M1742,1776 L1785,1776 L1798,1817 L1755,1817 Z M1790,1709 L1833,1709 L1820,1750 L1777,1750 Z M1820,1668 L1855,1643 L1868,1684 L1833,1709 Z M1868,1602 L1911,1602 L1898,1643 L1855,1643 Z M1890,1535 L1933,1535 L1946,1576 L1903,1576 Z M1946,1494 L1981,1469 L1994,1510 L1960,1535 Z M1663,1883 L1707,1883 L1693,1924 L1650,1924 Z M1615,1899 L1650,1924 L1615,1950 L1580,1924 Z M1693,1842 L1728,1817 L1742,1858 L1707,1883 Z M2024,1121 L2038,1080 L2073,1105 L2059,1146 Z M2024,1171 L2059,1146 L2073,1187 L2038,1212 Z M2024,1254 L2059,1279 L2094,1254 L2059,1228 Z M2024,1038 L2059,1013 L2073,1054 L2038,1080 Z M2024,988 L2038,947 L2073,972 L2059,1013 Z M1994,1428 L2038,1428 L2024,1469 L1981,1469 Z M2024,1336 L2038,1295 L2073,1320 L2059,1361 Z M2024,1386 L2059,1361 L2073,1402 L2038,1428 Z M2024,905 L2059,931 L2094,905 L2059,880 Z M417,1776 L374,1776 L388,1817 L431,1817 Z M396,1709 L353,1709 L339,1750 L382,1750 Z M339,1668 L326,1709 L291,1684 L304,1643 Z M291,1602 L248,1602 L261,1643 L304,1643 Z M261,1561 L248,1602 L213,1576 L226,1535 Z M213,1494 L170,1494 L156,1535 L199,1535 Z M544,1899 L579,1924 L544,1950 L509,1924 Z M496,1883 L452,1883 L466,1924 L509,1924 Z M466,1842 L452,1883 L417,1858 L431,1817 Z M1994,731 L2038,731 L2024,690 L1981,690 Z M2024,773 L2038,731 L2073,757 L2059,798 Z M2024,823 L2059,798 L2073,839 L2038,864 Z M165,1428 L121,1428 L135,1469 L178,1469 Z M135,1386 L121,1428 L86,1402 L100,1361 Z M135,1336 L100,1361 L86,1320 L121,1295 Z M1045,61 L1001,61 L988,20 L1031,20 Z M1114,61 L1158,61 L1171,20 L1128,20 Z M1193,86 L1158,61 L1193,35 L1228,61 Z M1241,102 L1284,102 L1271,61 L1228,61 Z M918,102 L875,102 L888,61 L931,61 Z M966,86 L931,61 L966,35 L1001,61 Z M840,127 L875,102 L862,61 L827,86 Z M840,127 L797,127 L783,86 L827,86 Z M783,168 L797,127 L762,102 L748,143 Z M1319,127 L1332,86 L1297,61 L1284,102 Z M1319,127 L1362,127 L1376,86 L1332,86 Z M1376,168 L1411,143 L1397,102 L1362,127 Z M714,168 L748,143 L735,102 L700,127 Z M714,168 L670,168 L657,127 L700,127 Z M1445,168 L1459,127 L1424,102 L1411,143 Z M1445,168 L1489,168 L1502,127 L1459,127 Z M1524,194 L1489,168 L1524,143 L1559,168 Z M1572,209 L1615,209 L1602,168 L1559,168 Z M635,194 L600,168 L635,143 L670,168 Z M579,235 L592,194 L557,168 L544,209 Z M509,235 L544,209 L531,168 L496,194 Z M452,276 L417,250 L382,276 L417,301 Z M431,342 L388,342 L374,301 L417,301 Z M374,383 L339,409 L326,368 L361,342 Z M326,450 L339,409 L304,383 L291,424 Z M304,516 L261,516 L248,475 L291,475 Z M248,557 L213,532 L178,557 L213,583 Z M248,557 L261,516 L226,491 L213,532 Z M199,624 L156,624 L170,583 L213,583 Z M170,665 L135,690 L121,649 L156,624 Z M121,731 L135,690 L100,665 L86,706 Z M100,798 L57,798 L43,839 L86,839 Z M100,931 L57,931 L43,972 L86,972 Z M100,880 L65,905 L51,864 L86,839 Z M121,1080 L86,1054 L51,1080 L86,1105 Z M100,1013 L57,1013 L43,972 L86,972 Z M100,1013 L57,1013 L43,1054 L86,1054 Z M100,1146 L57,1146 L43,1105 L86,1105 Z M100,1146 L57,1146 L43,1187 L86,1187 Z M100,1279 L86,1320 L51,1295 L65,1254 Z M100,1228 L57,1228 L43,1187 L86,1187 Z M1755,342 L1798,342 L1785,301 L1742,301 Z M1785,383 L1798,342 L1833,368 L1820,409 Z M1833,450 L1868,424 L1855,383 L1820,409 Z M1833,450 L1868,475 L1903,450 L1868,424 Z M1855,516 L1898,516 L1911,475 L1868,475 Z M1911,557 L1946,532 L1933,491 L1898,516 Z M1911,557 L1946,583 L1981,557 L1946,532 Z M1650,235 L1663,194 L1628,168 L1615,209 Z M1707,276 L1742,301 L1777,276 L1742,250 Z M1981,690 L2024,690 L2038,649 L1994,649 Z M1960,624 L1994,598 L1981,557 L1946,583 Z M1114,2098 L1158,2098 L1171,2139 L1128,2139 Z M1045,2098 L1001,2098 L988,2139 L1031,2139 Z M1241,2057 L1284,2057 L1271,2098 L1228,2098 Z M1193,2073 L1228,2098 L1193,2124 L1158,2098 Z M966,2073 L1001,2098 L966,2124 L931,2098 Z M918,2057 L875,2057 L888,2098 L931,2098 Z M1319,2032 L1284,2057 L1297,2098 L1332,2073 Z M1319,2032 L1362,2032 L1376,2073 L1332,2073 Z M1376,1991 L1362,2032 L1397,2057 L1411,2016 Z M840,2032 L827,2073 L862,2098 L875,2057 Z M840,2032 L797,2032 L783,2073 L827,2073 Z M783,1991 L748,2016 L762,2057 L797,2032 Z M1445,1991 L1411,2016 L1424,2057 L1459,2032 Z M1445,1991 L1489,1991 L1502,2032 L1459,2032 Z M714,1991 L700,2032 L735,2057 L748,2016 Z M714,1991 L670,1991 L657,2032 L700,2032 Z M1572,1950 L1615,1950 L1602,1991 L1559,1991 Z M1524,1965 L1559,1991 L1524,2016 L1489,1991 Z M635,1965 L670,1991 L635,2016 L600,1991 Z M579,1924 L544,1950 L557,1991 L592,1965 Z M1755,1817 L1798,1817 L1785,1858 L1742,1858 Z M1785,1776 L1820,1750 L1833,1791 L1798,1817 Z M1855,1643 L1898,1643 L1911,1684 L1868,1684 Z M1833,1709 L1868,1735 L1903,1709 L1868,1684 Z M1833,1709 L1820,1750 L1855,1776 L1868,1735 Z M1911,1602 L1946,1627 L1981,1602 L1946,1576 Z M1911,1602 L1898,1643 L1933,1668 L1946,1627 Z M1960,1535 L1946,1576 L1981,1602 L1994,1561 Z M1981,1469 L2024,1469 L2038,1510 L1994,1510 Z M1650,1924 L1615,1950 L1628,1991 L1663,1965 Z M1707,1883 L1742,1909 L1777,1883 L1742,1858 Z M2038,1080 L2073,1105 L2108,1080 L2073,1054 Z M2059,1146 L2102,1146 L2116,1187 L2073,1187 Z M2059,1146 L2102,1146 L2116,1105 L2073,1105 Z M2059,1228 L2073,1187 L2108,1212 L2094,1254 Z M2059,1279 L2094,1254 L2108,1295 L2073,1320 Z M2059,1013 L2102,1013 L2116,1054 L2073,1054 Z M2059,1013 L2102,1013 L2116,972 L2073,972 Z M2038,1428 L2024,1469 L2059,1494 L2073,1453 Z M2059,1361 L2102,1361 L2116,1320 L2073,1320 Z M2059,880 L2073,839 L2108,864 L2094,905 Z M2059,931 L2094,905 L2108,947 L2073,972 Z M431,1817 L388,1817 L374,1858 L417,1858 Z M374,1776 L361,1817 L326,1791 L339,1750 Z M304,1643 L261,1643 L248,1684 L291,1684 Z M326,1709 L291,1735 L304,1776 L339,1750 Z M248,1602 L213,1627 L226,1668 L261,1643 Z M248,1602 L213,1576 L178,1602 L213,1627 Z M199,1535 L156,1535 L170,1576 L213,1576 Z M170,1494 L156,1535 L121,1510 L135,1469 Z M509,1924 L496,1965 L531,1991 L544,1950 Z M452,1883 L417,1858 L382,1883 L417,1909 Z M2038,731 L2073,706 L2059,665 L2024,690 Z M2059,798 L2102,798 L2116,839 L2073,839 Z M121,1428 L86,1453 L100,1494 L135,1469 Z M100,1361 L57,1361 L43,1320 L86,1320 Z M1228,61 L1271,61 L1284,20 L1241,20 Z M931,61 L888,61 L875,20 L918,20 Z M1332,86 L1297,61 L1332,35 L1367,61 Z M1459,127 L1502,127 L1489,86 L1445,86 Z M1559,168 L1572,127 L1537,102 L1524,143 Z M600,168 L635,143 L622,102 L587,127 Z M361,342 L326,317 L291,342 L326,368 Z M291,424 L248,424 L261,383 L304,383 Z M283,450 L248,424 L213,450 L248,475 Z M213,532 L178,557 L165,516 L199,491 Z M156,624 L170,583 L135,557 L121,598 Z M57,931 L43,972 L8,947 L22,905 Z M57,1013 L22,1038 L8,997 L43,972 Z M57,1146 L43,1187 L8,1162 L22,1121 Z M57,1228 L22,1254 L8,1212 L43,1187 Z M1798,342 L1833,368 L1868,342 L1833,317 Z M1946,532 L1960,491 L1994,516 L1981,557 Z M1994,598 L2038,598 L2024,557 L1981,557 Z M1228,2098 L1271,2098 L1284,2139 L1241,2139 Z M931,2098 L888,2098 L875,2139 L918,2139 Z M1332,2073 L1367,2098 L1332,2124 L1297,2098 Z M1459,2032 L1502,2032 L1489,2073 L1445,2073 Z M1559,1991 L1524,2016 L1537,2057 L1572,2032 Z M600,1991 L587,2032 L622,2057 L635,2016 Z M1798,1817 L1833,1842 L1868,1817 L1833,1791 Z M1946,1627 L1981,1602 L1994,1643 L1960,1668 Z M1994,1561 L2038,1561 L2024,1602 L1981,1602 Z M2102,1146 L2137,1121 L2151,1162 L2116,1187 Z M2094,1254 L2137,1254 L2151,1212 L2108,1212 Z M2102,1013 L2116,972 L2151,997 L2137,1038 Z M2094,905 L2137,905 L2151,947 L2108,947 Z M361,1817 L326,1791 L291,1817 L326,1842 Z M291,1735 L248,1735 L261,1776 L304,1776 Z M283,1709 L248,1684 L213,1709 L248,1735 Z M213,1627 L199,1668 L165,1643 L178,1602 Z M156,1535 L121,1561 L135,1602 L170,1576 Z " fill="rgb(33, 33, 33)"/>
</g></svg>