<svg width="800" height="800" viewBox="0 0 800 800" xmlns="http://www.w3.org/2000/svg">
<g stroke="rgb(242, 242, 242)" stroke-width="1" stroke-linecap="round" stroke-linejoin="round" fill="transparent">
<path d="M400,400 L412,409 L417,424 L404,415 Z M400,400 L404,384 L417,375 L412,390 Z M384,400 L371,390 L366,375 L379,384 Z M384,400 L379,415 L384,430 L388,415 Z M384,400 L379,415 L366,424 L371,409 Z M384,400 L388,384 L384,369 L379,384 Z M417,424 L433,424 L446,415 L430,415 Z M400,430 L384,430 L396,439 L412,439 Z M417,375 L433,375 L446,384 L430,384 Z M400,369 L384,369 L396,360 L412,360 Z M412,439 L425,449 L430,464 L417,455 Z M412,439 L396,439 L384,449 L400,449 Z M412,439 L428,439 L441,449 L425,449 Z M441,400 L446,384 L451,400 L446,415 Z M412,360 L417,344 L430,335 L425,350 Z M412,360 L396,360 L384,350 L400,350 Z M412,360 L428,360 L441,350 L425,350 Z M366,375 L350,375 L337,384 L353,384 Z M366,424 L350,424 L337,415 L353,415 Z M446,434 L441,449 L454,439 L459,424 Z M371,439 L366,455 L353,464 L358,449 Z M371,439 L355,439 L342,449 L358,449 Z M446,365 L459,375 L454,360 L441,350 Z M371,360 L358,350 L353,335 L366,344 Z M371,360 L355,360 L342,350 L358,350 Z M342,400 L337,415 L332,400 L337,384 Z M459,424 L454,439 L459,455 L464,439 Z M459,424 L464,409 L477,400 L472,415 Z M459,424 L475,424 L488,415 L472,415 Z M430,464 L425,479 L412,489 L417,473 Z M384,449 L379,464 L384,479 L388,464 Z M459,375 L472,384 L477,400 L464,390 Z M459,375 L464,360 L459,344 L454,360 Z M459,375 L475,375 L488,384 L472,384 Z M430,335 L417,326 L412,310 L425,320 Z M384,350 L388,335 L384,320 L379,335 Z M337,365 L342,350 L329,360 L324,375 Z M337,434 L324,424 L329,439 L342,449 Z M400,479 L384,479 L396,489 L412,489 Z M425,479 L441,479 L428,489 L412,489 Z M353,464 L366,473 L371,489 L358,479 Z M425,320 L441,320 L428,310 L412,310 Z M400,320 L384,320 L396,310 L412,310 Z M353,335 L358,320 L371,310 L366,326 Z M324,375 L319,390 L306,400 L311,384 Z M324,375 L329,360 L324,344 L319,360 Z M324,375 L308,375 L295,384 L311,384 Z M324,424 L311,415 L306,400 L319,409 Z M324,424 L319,439 L324,455 L329,439 Z M324,424 L308,424 L295,415 L311,415 Z M459,455 L475,455 L488,464 L472,464 Z M488,415 L501,424 L506,439 L493,430 Z M412,489 L396,489 L384,498 L400,498 Z M441,479 L454,489 L459,504 L446,494 Z M459,473 L454,489 L459,504 L464,489 Z M459,473 L475,473 L488,464 L472,464 Z M358,479 L342,479 L355,489 L371,489 Z M459,344 L475,344 L488,335 L472,335 Z M488,384 L493,369 L506,360 L501,375 Z M412,310 L396,310 L384,301 L400,301 Z M441,320 L446,305 L459,295 L454,310 Z M459,326 L464,310 L459,295 L454,310 Z M459,326 L475,326 L488,335 L472,335 Z M358,320 L342,320 L355,310 L371,310 Z M493,449 L488,464 L501,455 L506,439 Z M493,400 L509,400 L522,390 L506,390 Z M493,400 L509,400 L522,409 L506,409 Z M417,504 L412,519 L400,528 L404,513 Z M417,504 L433,504 L446,513 L430,513 Z M342,479 L337,494 L324,504 L329,489 Z M324,473 L319,489 L324,504 L329,489 Z M324,473 L308,473 L295,464 L311,464 Z M324,455 L308,455 L295,464 L311,464 Z M493,350 L506,360 L501,344 L488,335 Z M417,295 L404,286 L400,271 L412,280 Z M417,295 L433,295 L446,286 L430,286 Z M342,320 L329,310 L324,295 L337,305 Z M324,344 L308,344 L295,335 L311,335 Z M324,326 L329,310 L324,295 L319,310 Z M324,326 L308,326 L295,335 L311,335 Z M295,384 L282,375 L277,360 L290,369 Z M295,415 L290,430 L277,439 L282,424 Z M488,464 L504,464 L517,455 L501,455 Z M517,424 L522,409 L527,424 L522,439 Z M384,498 L379,513 L384,528 L388,513 Z M366,504 L379,513 L384,528 L371,519 Z M366,504 L350,504 L337,513 L353,513 Z M480,489 L475,504 L488,494 L493,479 Z M488,335 L504,335 L517,344 L501,344 Z M517,375 L522,360 L527,375 L522,390 Z M384,301 L388,286 L384,271 L379,286 Z M480,310 L493,320 L488,305 L475,295 Z M366,295 L371,280 L384,271 L379,286 Z M366,295 L350,295 L337,286 L353,286 Z M290,350 L295,335 L282,344 L277,360 Z M290,400 L274,400 L261,409 L277,409 Z M290,400 L274,400 L261,390 L277,390 Z M290,449 L277,439 L282,455 L295,464 Z M493,479 L509,479 L522,489 L506,489 Z M522,439 L527,424 L540,415 L535,430 Z M400,528 L412,538 L417,553 L404,544 Z M446,513 L441,528 L446,544 L451,528 Z M464,519 L459,534 L446,544 L451,528 Z M464,519 L480,519 L493,528 L477,528 Z M475,504 L488,513 L493,528 L480,519 Z M295,464 L279,464 L266,455 L282,455 Z M303,489 L290,479 L295,494 L308,504 Z M493,320 L509,320 L522,310 L506,310 Z M522,360 L535,369 L540,384 L527,375 Z M400,271 L404,255 L417,246 L412,261 Z M446,286 L451,271 L446,255 L441,271 Z M464,280 L451,271 L446,255 L459,265 Z M464,280 L480,280 L493,271 L477,271 Z M475,295 L480,280 L493,271 L488,286 Z M295,335 L279,335 L266,344 L282,344 Z M303,310 L308,295 L295,305 L290,320 Z M266,375 L261,390 L256,375 L261,360 Z M266,424 L261,439 L256,424 L261,409 Z M517,455 L530,464 L535,479 L522,470 Z M535,449 L530,464 L535,479 L540,464 Z M535,449 L551,449 L564,439 L548,439 Z M384,528 L379,544 L384,559 L388,544 Z M384,528 L379,544 L366,553 L371,538 Z M430,544 L446,544 L433,553 L417,553 Z M337,513 L332,528 L337,544 L342,528 Z M319,519 L332,528 L337,544 L324,534 Z M319,519 L303,519 L290,528 L306,528 Z M308,504 L303,519 L290,528 L295,513 Z M290,479 L274,479 L261,489 L277,489 Z M517,344 L522,329 L535,320 L530,335 Z M535,350 L540,335 L535,320 L530,335 Z M535,350 L551,350 L564,360 L548,360 Z M384,271 L371,261 L366,246 L379,255 Z M384,271 L388,255 L384,240 L379,255 Z M430,255 L446,255 L433,246 L417,246 Z M337,286 L342,271 L337,255 L332,271 Z M319,280 L324,265 L337,255 L332,271 Z M319,280 L303,280 L290,271 L306,271 Z M308,295 L295,286 L290,271 L303,280 Z M290,320 L274,320 L261,310 L277,310 Z M261,360 L256,375 L243,384 L248,369 Z M261,439 L248,430 L243,415 L256,424 Z M522,489 L517,504 L522,519 L527,504 Z M540,415 L556,415 L569,424 L553,424 Z M540,384 L556,384 L569,375 L553,375 Z M551,400 L564,409 L569,424 L556,415 Z M551,400 L556,384 L569,375 L564,390 Z M400,559 L384,559 L396,568 L412,568 Z M446,544 L441,559 L428,568 L433,553 Z M353,544 L337,544 L350,553 L366,553 Z M472,544 L488,544 L475,553 L459,553 Z M493,528 L509,528 L522,519 L506,519 Z M493,528 L509,528 L522,538 L506,538 Z M266,455 L261,470 L248,479 L253,464 Z M522,310 L527,295 L522,280 L517,295 Z M400,240 L384,240 L396,231 L412,231 Z M446,255 L433,246 L428,231 L441,240 Z M472,255 L488,255 L475,246 L459,246 Z M493,271 L509,271 L522,261 L506,261 Z M493,271 L509,271 L522,280 L506,280 Z M353,255 L337,255 L350,246 L366,246 Z M266,344 L253,335 L248,320 L261,329 Z M248,350 L253,335 L248,320 L243,335 Z M248,350 L232,350 L219,360 L235,360 Z M248,449 L243,464 L248,479 L253,464 Z M248,449 L232,449 L219,439 L235,439 Z M535,479 L548,489 L553,504 L540,494 Z M535,479 L551,479 L564,489 L548,489 Z M564,439 L577,449 L582,464 L569,455 Z M412,568 L396,568 L384,578 L400,578 Z M459,553 L454,568 L459,583 L464,568 Z M337,544 L350,553 L355,568 L342,559 Z M488,544 L501,553 L506,568 L493,559 Z M311,544 L295,544 L308,553 L324,553 Z M290,528 L274,528 L261,538 L277,538 Z M290,528 L274,528 L261,519 L277,519 Z M261,489 L256,504 L261,519 L266,504 Z M535,320 L540,305 L553,295 L548,310 Z M535,320 L551,320 L564,310 L548,310 Z M564,360 L569,344 L582,335 L577,350 Z M412,231 L396,231 L384,221 L400,221 Z M459,246 L464,231 L459,216 L454,231 Z M488,255 L493,240 L506,231 L501,246 Z M337,255 L342,240 L355,231 L350,246 Z M311,255 L295,255 L308,246 L324,246 Z M290,271 L274,271 L261,280 L277,280 Z M290,271 L274,271 L261,261 L277,261 Z M261,310 L266,295 L261,280 L256,295 Z M243,384 L227,384 L214,375 L230,375 Z M243,415 L227,415 L214,424 L230,424 Z M232,400 L219,390 L214,375 L227,384 Z M232,400 L227,415 L214,424 L219,409 Z M540,513 L535,528 L548,519 L553,504 Z M577,449 L582,434 L587,449 L582,464 Z M569,473 L564,489 L577,479 L582,464 Z M577,400 L582,384 L587,400 L582,415 Z M417,583 L412,599 L400,608 L404,593 Z M417,583 L433,583 L446,593 L430,593 Z M428,568 L441,578 L446,593 L433,583 Z M324,553 L319,568 L324,583 L329,568 Z M522,538 L517,553 L522,568 L527,553 Z M295,544 L290,559 L277,568 L282,553 Z M248,479 L243,494 L230,504 L235,489 Z M248,479 L232,479 L219,489 L235,489 Z M540,286 L553,295 L548,280 L535,271 Z M577,350 L582,335 L587,350 L582,365 Z M569,326 L582,335 L577,320 L564,310 Z M417,216 L404,206 L399,191 L412,200 Z M417,216 L433,216 L446,206 L430,206 Z M428,231 L433,216 L446,206 L441,221 Z M522,261 L527,246 L522,231 L517,246 Z M324,246 L329,231 L324,216 L319,231 Z M295,255 L282,246 L277,231 L290,240 Z M248,320 L235,310 L230,295 L243,305 Z M248,320 L232,320 L219,310 L235,310 Z M219,360 L206,350 L201,335 L214,344 Z M219,439 L214,455 L201,464 L206,449 Z M535,528 L551,528 L564,519 L548,519 Z M582,415 L598,415 L611,424 L595,424 Z M582,434 L598,434 L611,424 L595,424 Z M582,464 L577,479 L582,494 L587,479 Z M582,365 L598,365 L611,375 L595,375 Z M582,384 L598,384 L611,375 L595,375 Z M384,578 L379,593 L384,608 L388,593 Z M366,583 L379,593 L384,608 L371,599 Z M366,583 L350,583 L337,593 L353,593 Z M355,568 L350,583 L337,593 L342,578 Z M459,583 L475,583 L488,593 L472,593 Z M506,568 L501,583 L488,593 L493,578 Z M527,553 L522,568 L535,559 L540,544 Z M261,538 L256,553 L261,568 L266,553 Z M243,513 L230,504 L235,519 L248,528 Z M535,271 L551,271 L564,280 L548,280 Z M582,335 L587,320 L582,305 L577,320 Z M384,221 L388,206 L383,191 L379,206 Z M366,216 L371,200 L383,191 L379,206 Z M366,216 L350,216 L337,206 L353,206 Z M355,231 L342,221 L337,206 L350,216 Z M459,216 L475,216 L488,206 L472,206 Z M506,231 L493,221 L488,206 L501,216 Z M527,246 L540,255 L535,240 L522,231 Z M261,261 L266,246 L261,231 L256,246 Z M243,286 L248,271 L235,280 L230,295 Z M206,350 L201,365 L196,350 L201,335 Z M214,326 L219,310 L206,320 L201,335 Z M206,400 L201,415 L196,400 L201,384 Z M206,449 L201,464 L196,449 L201,434 Z M214,473 L201,464 L206,479 L219,489 Z M540,544 L556,544 L569,553 L553,553 Z M598,464 L611,473 L616,489 L603,479 Z M598,464 L603,449 L616,439 L611,455 Z M400,608 L412,618 L417,633 L404,623 Z M446,593 L459,602 L464,618 L451,608 Z M446,593 L441,608 L446,623 L451,608 Z M324,583 L308,583 L295,593 L311,593 Z M522,568 L535,578 L540,593 L527,583 Z M522,568 L517,583 L522,599 L527,583 Z M277,568 L290,578 L295,593 L282,583 Z M248,528 L232,528 L219,519 L235,519 Z M256,553 L243,544 L248,559 L261,568 Z M540,255 L556,255 L569,246 L553,246 Z M598,335 L611,344 L616,360 L603,350 Z M598,335 L603,320 L616,310 L611,326 Z M399,191 L404,176 L417,166 L412,181 Z M446,206 L451,191 L446,176 L441,191 Z M446,206 L451,191 L464,181 L459,197 Z M522,231 L527,216 L522,200 L517,216 Z M522,231 L527,216 L540,206 L535,221 Z M324,216 L308,216 L295,206 L311,206 Z M277,231 L282,216 L295,206 L290,221 Z M248,271 L232,271 L219,280 L235,280 Z M256,246 L261,231 L248,240 L243,255 Z M201,384 L185,384 L172,375 L188,375 Z M201,365 L185,365 L172,375 L188,375 Z M201,335 L206,320 L201,305 L196,320 Z M201,434 L185,434 L172,424 L188,424 Z M201,415 L185,415 L172,424 L188,424 Z M201,464 L196,479 L201,494 L206,479 Z M564,519 L577,528 L582,544 L569,534 Z M582,494 L598,494 L611,504 L595,504 Z M582,513 L577,528 L582,544 L587,528 Z M582,513 L598,513 L611,504 L595,504 Z M611,424 L616,409 L629,400 L624,415 Z M611,424 L627,424 L640,415 L624,415 Z M611,375 L624,384 L629,400 L616,390 Z M611,375 L627,375 L640,384 L624,384 Z M384,608 L379,623 L384,639 L388,623 Z M384,608 L379,623 L366,633 L371,618 Z M430,623 L446,623 L433,633 L417,633 Z M337,593 L332,608 L337,623 L342,608 Z M337,593 L332,608 L319,618 L324,602 Z M477,608 L493,608 L480,618 L464,618 Z M506,599 L522,599 L509,608 L493,608 Z M261,568 L256,583 L261,599 L266,583 Z M261,568 L256,583 L243,593 L248,578 Z M243,544 L227,544 L214,553 L230,553 Z M564,280 L569,265 L582,255 L577,271 Z M582,286 L587,271 L582,255 L577,271 Z M582,286 L598,286 L611,295 L595,295 Z M582,305 L598,305 L611,295 L595,295 Z M383,191 L371,181 L366,166 L379,176 Z M383,191 L388,176 L383,160 L379,176 Z M430,176 L446,176 L433,166 L417,166 Z M337,206 L324,197 L319,181 L332,191 Z M337,206 L342,191 L337,176 L332,191 Z M477,191 L493,191 L480,181 L464,181 Z M506,200 L522,200 L509,191 L493,191 Z M261,231 L248,221 L243,206 L256,216 Z M261,231 L266,216 L261,200 L256,216 Z M243,255 L227,255 L214,246 L230,246 Z M185,335 L172,326 L167,310 L180,320 Z M185,335 L180,350 L167,360 L172,344 Z M185,464 L172,455 L167,439 L180,449 Z M185,464 L180,479 L167,489 L172,473 Z M569,553 L564,568 L569,583 L574,568 Z M616,439 L632,439 L645,449 L629,449 Z M616,489 L632,489 L645,479 L629,479 Z M616,360 L632,360 L645,350 L629,350 Z M400,639 L384,639 L396,648 L412,648 Z M353,623 L337,623 L350,633 L366,633 Z M493,608 L488,623 L475,633 L480,618 Z M493,608 L509,608 L522,618 L506,618 Z M306,608 L290,608 L303,618 L319,618 Z M540,593 L556,593 L569,583 L553,583 Z M277,599 L261,599 L274,608 L290,608 Z M219,519 L214,534 L201,544 L206,528 Z M201,513 L196,528 L201,544 L206,528 Z M201,513 L185,513 L172,504 L188,504 Z M201,494 L185,494 L172,504 L188,504 Z M569,246 L574,231 L569,216 L564,231 Z M616,310 L632,310 L645,320 L629,320 Z M399,160 L383,160 L396,151 L412,151 Z M353,176 L337,176 L350,166 L366,166 Z M493,191 L480,181 L475,166 L488,176 Z M493,191 L509,191 L522,181 L506,181 Z M540,206 L556,206 L569,216 L553,216 Z M306,191 L290,191 L303,181 L319,181 Z M277,200 L261,200 L274,191 L290,191 Z M219,280 L206,271 L201,255 L214,265 Z M201,305 L185,305 L172,295 L188,295 Z M201,286 L206,271 L201,255 L196,271 Z M201,286 L185,286 L172,295 L188,295 Z M172,375 L167,390 L154,400 L159,384 Z M172,375 L156,375 L143,384 L159,384 Z M172,424 L159,415 L154,400 L167,409 Z M172,424 L156,424 L143,415 L159,415 Z M574,568 L569,583 L582,574 L587,559 Z M603,528 L598,544 L611,534 L616,519 Z M640,415 L653,424 L658,439 L645,430 Z M632,489 L627,504 L640,494 L645,479 Z M640,464 L645,449 L650,464 L645,479 Z M640,384 L645,369 L658,360 L653,375 Z M412,648 L425,657 L430,673 L417,663 Z M412,648 L396,648 L384,657 L400,657 Z M412,648 L428,648 L441,657 L425,657 Z M459,633 L454,648 L459,663 L464,648 Z M459,633 L454,648 L441,657 L446,642 Z M290,608 L303,618 L308,633 L295,623 Z M290,608 L274,608 L261,618 L277,618 Z M556,593 L551,608 L564,599 L569,583 Z M243,593 L227,593 L214,583 L230,583 Z M214,553 L209,568 L214,583 L219,568 Z M603,271 L616,280 L611,265 L598,255 Z M574,231 L587,240 L582,225 L569,216 Z M632,310 L645,320 L640,305 L627,295 Z M640,335 L645,320 L650,335 L645,350 Z M412,151 L417,136 L430,126 L425,142 Z M412,151 L396,151 L383,142 L399,142 Z M412,151 L428,151 L441,142 L425,142 Z M459,166 L446,157 L441,142 L454,151 Z M459,166 L464,151 L459,136 L454,151 Z M556,206 L569,216 L564,200 L551,191 Z M290,191 L295,176 L308,166 L303,181 Z M290,191 L274,191 L261,181 L277,181 Z M243,206 L227,206 L214,216 L230,216 Z M214,246 L219,231 L214,216 L209,231 Z M167,360 L151,360 L138,350 L154,350 Z M167,310 L151,310 L138,320 L154,320 Z M167,439 L151,439 L138,449 L154,449 Z M167,489 L151,489 L138,479 L154,479 Z M587,559 L603,559 L616,568 L600,568 Z M598,544 L611,553 L616,568 L603,559 Z M616,519 L632,519 L645,528 L629,528 Z M627,504 L640,513 L645,528 L632,519 Z M653,424 L658,409 L663,424 L658,439 Z M645,479 L650,464 L663,455 L658,470 Z M653,375 L658,360 L663,375 L658,390 Z M371,648 L366,663 L353,673 L358,657 Z M371,648 L355,648 L342,657 L358,657 Z M475,633 L488,642 L493,657 L480,648 Z M324,633 L337,642 L342,657 L329,648 Z M324,633 L319,648 L324,663 L329,648 Z M522,618 L517,633 L522,648 L527,633 Z M540,623 L535,639 L522,648 L527,633 Z M540,623 L556,623 L569,633 L553,633 Z M551,608 L564,618 L569,633 L556,623 Z M227,593 L214,583 L219,599 L232,608 Z M209,568 L196,559 L201,574 L214,583 Z M180,528 L167,519 L172,534 L185,544 Z M587,240 L603,240 L616,231 L600,231 Z M598,255 L603,240 L616,231 L611,246 Z M616,280 L632,280 L645,271 L629,271 Z M627,295 L632,280 L645,271 L640,286 Z M645,320 L658,329 L663,344 L650,335 Z M371,151 L358,142 L353,126 L366,136 Z M371,151 L355,151 L342,142 L358,142 Z M475,166 L480,151 L493,142 L488,157 Z M324,166 L329,151 L324,136 L319,151 Z M324,166 L329,151 L342,142 L337,157 Z M522,181 L527,166 L522,151 L517,166 Z M540,176 L527,166 L522,151 L535,160 Z M540,176 L556,176 L569,166 L553,166 Z M551,191 L556,176 L569,166 L564,181 Z M227,206 L232,191 L219,200 L214,216 Z M209,231 L214,216 L201,225 L196,240 Z M180,271 L185,255 L172,265 L167,280 Z M143,384 L130,375 L125,360 L138,369 Z M151,310 L156,295 L143,305 L138,320 Z M143,335 L138,350 L133,335 L138,320 Z M143,415 L138,430 L125,439 L130,424 Z M151,489 L138,479 L143,494 L156,504 Z M143,464 L138,479 L133,464 L138,449 Z M582,593 L577,608 L582,623 L587,608 Z M582,593 L598,593 L611,583 L595,583 Z M658,390 L674,390 L687,400 L671,400 Z M658,409 L674,409 L687,400 L671,400 Z M658,489 L653,504 L658,519 L663,504 Z M658,489 L674,489 L687,479 L671,479 Z M430,673 L425,688 L412,697 L417,682 Z M384,657 L379,673 L384,688 L388,673 Z M459,663 L475,663 L488,673 L472,673 Z M308,633 L303,648 L290,657 L295,642 Z M506,648 L522,648 L509,657 L493,657 Z M261,618 L256,633 L261,648 L266,633 Z M243,623 L256,633 L261,648 L248,639 Z M243,623 L227,623 L214,633 L230,633 Z M232,608 L227,623 L214,633 L219,618 Z M196,559 L180,559 L167,568 L183,568 Z M185,544 L180,559 L167,568 L172,553 Z M167,519 L151,519 L138,528 L154,528 Z M156,504 L151,519 L138,528 L143,513 Z M582,206 L587,191 L582,176 L577,191 Z M582,206 L598,206 L611,216 L595,216 Z M658,310 L663,295 L658,280 L653,295 Z M658,310 L674,310 L687,320 L671,320 Z M430,126 L417,117 L412,102 L425,111 Z M383,142 L388,126 L383,111 L379,126 Z M459,136 L475,136 L488,126 L472,126 Z M308,166 L295,157 L290,142 L303,151 Z M506,151 L522,151 L509,142 L493,142 Z M261,181 L266,166 L261,151 L256,166 Z M243,176 L248,160 L261,151 L256,166 Z M243,176 L227,176 L214,166 L230,166 Z M232,191 L219,181 L214,166 L227,176 Z M196,240 L180,240 L167,231 L183,231 Z M185,255 L172,246 L167,231 L180,240 Z M167,280 L151,280 L138,271 L154,271 Z M156,295 L143,286 L138,271 L151,280 Z M130,375 L125,390 L120,375 L125,360 Z M138,320 L133,335 L120,344 L125,329 Z M130,424 L125,439 L120,424 L125,409 Z M138,479 L125,470 L120,455 L133,464 Z M616,568 L632,568 L645,559 L629,559 Z M616,568 L632,568 L645,578 L629,578 Z M645,528 L658,538 L663,553 L650,544 Z M645,528 L640,544 L645,559 L650,544 Z M663,455 L679,455 L692,464 L676,464 Z M674,439 L687,449 L692,464 L679,455 Z M674,439 L679,424 L692,415 L687,430 Z M663,344 L679,344 L692,335 L676,335 Z M674,360 L687,369 L692,384 L679,375 Z M674,360 L679,344 L692,335 L687,350 Z M400,688 L384,688 L396,697 L412,697 Z M425,688 L441,688 L428,697 L412,697 Z M353,673 L366,682 L371,697 L358,688 Z M472,673 L488,673 L475,682 L459,682 Z M324,663 L308,663 L295,673 L311,673 Z M522,648 L517,663 L504,673 L509,657 Z M277,648 L261,648 L274,657 L290,657 Z M548,648 L564,648 L551,657 L535,657 Z M201,593 L196,608 L201,623 L206,608 Z M201,593 L185,593 L172,583 L188,583 Z M616,231 L632,231 L645,221 L629,221 Z M616,231 L632,231 L645,240 L629,240 Z M645,271 L650,255 L645,240 L640,255 Z M645,271 L650,255 L663,246 L658,261 Z M425,111 L441,111 L428,102 L412,102 Z M399,111 L383,111 L396,102 L412,102 Z M353,126 L358,111 L371,102 L366,117 Z M472,126 L488,126 L475,117 L459,117 Z M324,136 L308,136 L295,126 L311,126 Z M522,151 L509,142 L504,126 L517,136 Z M548,151 L564,151 L551,142 L535,142 Z M277,151 L261,151 L274,142 L290,142 Z M201,206 L206,191 L201,176 L196,191 Z M201,206 L185,206 L172,216 L188,216 Z M125,409 L109,409 L96,400 L112,400 Z M125,390 L109,390 L96,400 L112,400 Z M125,310 L130,295 L125,280 L120,295 Z M125,310 L109,310 L96,320 L112,320 Z M125,489 L120,504 L125,519 L130,504 Z M125,489 L109,489 L96,479 L112,479 Z M611,583 L624,593 L629,608 L616,599 Z M582,623 L598,623 L611,633 L595,633 Z M658,519 L674,519 L687,528 L671,528 Z M687,479 L700,489 L704,504 L692,494 Z M412,697 L396,697 L384,707 L400,707 Z M441,688 L454,697 L459,712 L446,703 Z M459,682 L454,697 L459,712 L464,697 Z M358,688 L342,688 L355,697 L371,697 Z M311,673 L295,673 L308,682 L324,682 Z M535,657 L530,673 L535,688 L540,673 Z M261,648 L274,657 L279,673 L266,663 Z M564,648 L577,657 L582,673 L569,663 Z M582,642 L577,657 L582,673 L587,657 Z M582,642 L598,642 L611,633 L595,633 Z M235,648 L219,648 L232,657 L248,657 Z M167,568 L151,568 L138,578 L154,578 Z M167,568 L151,568 L138,559 L154,559 Z M138,528 L133,544 L138,559 L143,544 Z M138,528 L133,544 L120,553 L125,538 Z M611,216 L616,200 L629,191 L624,206 Z M658,280 L674,280 L687,271 L671,271 Z M582,176 L598,176 L611,166 L595,166 Z M687,320 L692,305 L704,295 L700,310 Z M412,102 L396,102 L383,92 L399,92 Z M441,111 L446,96 L459,87 L454,102 Z M459,117 L464,102 L459,87 L454,102 Z M358,111 L342,111 L355,102 L371,102 Z M311,126 L295,126 L308,117 L324,117 Z M535,142 L540,126 L535,111 L530,126 Z M564,151 L569,136 L582,126 L577,142 Z M582,157 L587,142 L582,126 L577,142 Z M582,157 L598,157 L611,166 L595,166 Z M261,151 L266,136 L279,126 L274,142 Z M235,151 L219,151 L232,142 L248,142 Z M167,231 L151,231 L138,240 L154,240 Z M167,231 L151,231 L138,221 L154,221 Z M138,271 L125,261 L120,246 L133,255 Z M138,271 L143,255 L138,240 L133,255 Z M120,344 L104,344 L91,335 L107,335 Z M109,360 L96,350 L91,335 L104,344 Z M109,360 L104,375 L91,384 L96,369 Z M120,455 L104,455 L91,464 L107,464 Z M109,439 L96,430 L91,415 L104,424 Z M109,439 L104,455 L91,464 L96,449 Z M616,618 L611,633 L624,623 L629,608 Z M645,578 L640,593 L645,608 L650,593 Z M663,553 L679,553 L692,544 L676,544 Z M692,464 L708,464 L720,455 L704,455 Z M692,464 L708,464 L720,473 L704,473 Z M692,415 L708,415 L720,424 L704,424 Z M692,384 L708,384 L720,375 L704,375 Z M703,400 L716,409 L720,424 L708,415 Z M703,400 L708,384 L720,375 L716,390 Z M692,513 L687,528 L700,519 L704,504 Z M692,335 L708,335 L720,326 L704,326 Z M692,335 L708,335 L720,344 L704,344 Z M417,712 L412,728 L400,737 L404,722 Z M417,712 L433,712 L446,722 L430,722 Z M342,688 L337,703 L324,712 L329,697 Z M324,682 L319,697 L324,712 L329,697 Z M493,688 L488,703 L475,712 L480,697 Z M493,688 L509,688 L522,697 L506,697 Z M504,673 L517,682 L522,697 L509,688 Z M248,657 L243,673 L248,688 L253,673 Z M219,648 L214,663 L201,673 L206,657 Z M201,642 L196,657 L201,673 L206,657 Z M201,642 L185,642 L172,633 L188,633 Z M201,623 L185,623 L172,633 L188,633 Z M172,583 L167,599 L154,608 L159,593 Z M125,519 L109,519 L96,528 L112,528 Z M645,221 L650,206 L645,191 L640,206 Z M663,246 L679,246 L692,255 L676,255 Z M616,181 L629,191 L624,176 L611,166 Z M692,286 L704,295 L700,280 L687,271 Z M417,87 L404,77 L399,62 L412,71 Z M417,87 L433,87 L446,77 L430,77 Z M342,111 L329,102 L324,87 L337,96 Z M324,117 L329,102 L324,87 L319,102 Z M493,111 L480,102 L475,87 L488,96 Z M493,111 L509,111 L522,102 L506,102 Z M504,126 L509,111 L522,102 L517,117 Z M248,142 L253,126 L248,111 L243,126 Z M219,151 L206,142 L201,126 L214,136 Z M201,176 L185,176 L172,166 L188,166 Z M201,157 L206,142 L201,126 L196,142 Z M201,157 L185,157 L172,166 L188,166 Z M172,216 L159,206 L154,191 L167,200 Z M125,280 L109,280 L96,271 L112,271 Z M96,320 L83,310 L79,295 L91,305 Z M96,479 L91,494 L79,504 L83,489 Z M611,633 L627,633 L640,623 L624,623 Z M650,593 L645,608 L658,599 L663,583 Z M679,553 L674,568 L687,559 L692,544 Z M716,439 L720,424 L725,439 L720,455 Z M716,489 L720,473 L725,489 L720,504 Z M716,360 L720,344 L725,360 L720,375 Z M384,707 L379,722 L384,737 L388,722 Z M366,712 L379,722 L384,737 L371,728 Z M366,712 L350,712 L337,722 L353,722 Z M290,688 L303,697 L308,712 L295,703 Z M290,688 L274,688 L261,697 L277,697 Z M279,673 L274,688 L261,697 L266,682 Z M535,688 L551,688 L564,697 L548,697 Z M582,673 L577,688 L582,703 L587,688 Z M582,673 L577,688 L564,697 L569,682 Z M603,657 L598,673 L611,663 L616,648 Z M167,618 L154,608 L159,623 L172,633 Z M138,578 L133,593 L138,608 L143,593 Z M120,553 L104,553 L91,544 L107,544 Z M650,206 L663,216 L658,200 L645,191 Z M679,246 L692,255 L687,240 L674,231 Z M611,166 L627,166 L640,176 L624,176 Z M716,310 L720,295 L725,310 L720,326 Z M383,92 L388,77 L383,62 L379,77 Z M366,87 L371,71 L383,62 L379,77 Z M366,87 L350,87 L337,77 L353,77 Z M290,111 L295,96 L308,87 L303,102 Z M290,111 L274,111 L261,102 L277,102 Z M279,126 L266,117 L261,102 L274,111 Z M535,111 L551,111 L564,102 L548,102 Z M582,126 L569,117 L564,102 L577,111 Z M582,126 L587,111 L582,96 L577,111 Z M603,142 L616,151 L611,136 L598,126 Z M167,181 L172,166 L159,176 L154,191 Z M138,221 L143,206 L138,191 L133,206 Z M120,246 L104,246 L91,255 L107,255 Z M91,335 L75,335 L63,344 L79,344 Z M91,335 L75,335 L63,326 L79,326 Z M91,384 L75,384 L63,375 L79,375 Z M91,415 L75,415 L63,424 L79,424 Z M80,400 L67,390 L63,375 L75,384 Z M80,400 L75,415 L63,424 L67,409 Z M91,286 L96,271 L83,280 L79,295 Z M91,464 L75,464 L63,473 L79,473 Z M91,464 L75,464 L63,455 L79,455 Z M91,513 L79,504 L83,519 L96,528 Z M616,648 L632,648 L645,657 L629,657 Z M663,583 L679,583 L692,593 L676,593 Z M674,568 L687,578 L692,593 L679,583 Z M692,544 L708,544 L720,534 L704,534 Z M692,544 L708,544 L720,553 L704,553 Z M720,424 L733,434 L738,449 L725,439 Z M720,375 L725,360 L738,350 L733,365 Z M728,400 L733,384 L738,399 L733,415 Z M720,504 L733,513 L738,528 L725,519 Z M720,504 L716,519 L720,534 L725,519 Z M720,504 L725,489 L738,479 L733,494 Z M400,737 L412,746 L417,762 L404,752 Z M446,722 L441,737 L446,752 L451,737 Z M464,728 L459,743 L446,752 L451,737 Z M464,728 L480,728 L493,737 L477,737 Z M475,712 L488,722 L493,737 L480,728 Z M522,697 L535,707 L540,722 L527,712 Z M522,697 L517,712 L522,728 L527,712 Z M248,688 L232,688 L219,697 L235,697 Z M598,673 L611,682 L616,697 L603,688 Z M201,673 L214,682 L219,697 L206,688 Z M201,673 L196,688 L201,703 L206,688 Z M172,633 L156,633 L143,623 L159,623 Z M180,657 L167,648 L172,663 L185,673 Z M133,593 L120,583 L125,599 L138,608 Z M104,553 L91,544 L96,559 L109,568 Z M663,216 L679,216 L692,206 L676,206 Z M674,231 L679,216 L692,206 L687,221 Z M692,255 L708,255 L720,246 L704,246 Z M692,255 L708,255 L720,265 L704,265 Z M616,151 L632,151 L645,142 L629,142 Z M720,295 L733,305 L738,320 L725,310 Z M720,295 L725,280 L720,265 L716,280 Z M720,295 L725,280 L738,271 L733,286 Z M399,62 L404,47 L417,37 L412,53 Z M446,77 L451,62 L446,47 L441,62 Z M464,71 L451,62 L446,47 L459,56 Z M464,71 L480,71 L493,62 L477,62 Z M475,87 L480,71 L493,62 L488,77 Z M522,102 L527,87 L522,71 L517,87 Z M522,102 L527,87 L540,77 L535,92 Z M598,126 L603,111 L616,102 L611,117 Z M248,111 L232,111 L219,102 L235,102 Z M201,126 L206,111 L201,96 L196,111 Z M201,126 L206,111 L219,102 L214,117 Z M172,166 L156,166 L143,176 L159,176 Z M180,142 L185,126 L172,136 L167,151 Z M133,206 L138,191 L125,200 L120,216 Z M104,246 L109,231 L96,240 L91,255 Z M67,360 L63,375 L58,360 L63,344 Z M67,310 L63,326 L58,310 L63,295 Z M67,439 L63,455 L58,439 L63,424 Z M67,489 L63,504 L58,489 L63,473 Z M640,623 L653,633 L658,648 L645,639 Z M658,618 L653,633 L658,648 L663,633 Z M658,618 L674,618 L687,608 L671,608 Z M733,415 L749,415 L762,424 L746,424 Z M733,384 L749,384 L762,375 L746,375 Z M384,737 L379,752 L384,767 L388,752 Z M384,737 L379,752 L366,762 L371,746 Z M430,752 L446,752 L433,762 L417,762 Z M337,722 L332,737 L337,752 L342,737 Z M319,728 L332,737 L337,752 L324,743 Z M319,728 L303,728 L290,737 L306,737 Z M308,712 L303,728 L290,737 L295,722 Z M506,728 L522,728 L509,737 L493,737 Z M261,697 L256,712 L261,728 L266,712 Z M261,697 L256,712 L243,722 L248,707 Z M553,712 L569,712 L556,722 L540,722 Z M582,703 L598,703 L611,712 L595,712 Z M185,673 L180,688 L167,697 L172,682 Z M167,648 L151,648 L138,657 L154,657 Z M120,583 L104,583 L91,593 L107,593 Z M109,568 L104,583 L91,593 L96,578 Z M91,544 L75,544 L63,553 L79,553 Z M91,544 L75,544 L63,534 L79,534 Z M640,176 L645,160 L658,151 L653,166 Z M658,181 L663,166 L658,151 L653,166 Z M658,181 L674,181 L687,191 L671,191 Z M383,62 L371,53 L366,37 L379,47 Z M383,62 L388,47 L383,32 L379,47 Z M430,47 L446,47 L433,37 L417,37 Z M337,77 L342,62 L337,47 L332,62 Z M319,71 L324,56 L337,47 L332,62 Z M319,71 L303,71 L290,62 L306,62 Z M308,87 L295,77 L290,62 L303,71 Z M506,71 L522,71 L509,62 L493,62 Z M261,102 L248,92 L243,77 L256,87 Z M261,102 L266,87 L261,71 L256,87 Z M553,87 L569,87 L556,77 L540,77 Z M582,96 L598,96 L611,87 L595,87 Z M185,126 L172,117 L167,102 L180,111 Z M167,151 L151,151 L138,142 L154,142 Z M120,216 L104,216 L91,206 L107,206 Z M109,231 L96,221 L91,206 L104,216 Z M91,255 L75,255 L63,265 L79,265 Z M91,255 L75,255 L63,246 L79,246 Z M63,375 L50,365 L45,350 L58,360 Z M63,424 L58,439 L45,449 L50,434 Z M55,400 L50,415 L45,400 L50,384 Z M63,295 L50,286 L45,271 L58,280 Z M63,295 L58,310 L45,320 L50,305 Z M63,295 L67,280 L63,265 L58,280 Z M63,504 L50,494 L45,479 L58,489 Z M63,504 L58,519 L63,534 L67,519 Z M63,504 L58,519 L45,528 L50,513 Z M645,657 L640,673 L645,688 L650,673 Z M692,593 L708,593 L720,583 L704,583 Z M692,593 L708,593 L720,602 L704,602 Z M720,553 L716,568 L720,583 L725,568 Z M738,479 L754,479 L767,489 L751,489 Z M738,449 L754,449 L767,439 L751,439 Z M749,464 L762,473 L767,489 L754,479 Z M749,464 L754,449 L767,439 L762,455 Z M738,350 L754,350 L767,360 L751,360 Z M738,528 L754,528 L767,519 L751,519 Z M738,320 L754,320 L767,310 L751,310 Z M749,335 L762,344 L767,360 L754,350 Z M749,335 L754,320 L767,310 L762,326 Z M400,767 L384,767 L396,777 L412,777 Z M446,752 L441,767 L428,777 L433,762 Z M353,752 L337,752 L350,762 L366,762 Z M472,752 L488,752 L475,762 L459,762 Z M493,737 L509,737 L522,746 L506,746 Z M277,728 L261,728 L274,737 L290,737 Z M569,712 L564,728 L551,737 L556,722 Z M230,712 L214,712 L227,722 L243,722 Z M595,712 L611,712 L598,722 L582,722 Z M616,697 L632,697 L645,688 L629,688 Z M201,703 L185,703 L172,712 L188,712 Z M143,623 L138,639 L125,648 L130,633 Z M125,618 L120,633 L125,648 L130,633 Z M125,618 L109,618 L96,608 L112,608 Z M692,206 L708,206 L720,197 L704,197 Z M692,206 L708,206 L720,216 L704,216 Z M720,246 L725,231 L720,216 L716,231 Z M645,142 L650,126 L645,111 L640,126 Z M738,271 L754,271 L767,280 L751,280 Z M399,32 L383,32 L396,22 L412,22 Z M446,47 L433,37 L428,22 L441,32 Z M472,47 L488,47 L475,37 L459,37 Z M493,62 L509,62 L522,53 L506,53 Z M353,47 L337,47 L350,37 L366,37 Z M277,71 L261,71 L274,62 L290,62 Z M569,87 L556,77 L551,62 L564,71 Z M595,87 L611,87 L598,77 L582,77 Z M616,102 L632,102 L645,111 L629,111 Z M230,87 L214,87 L227,77 L243,77 Z M201,96 L185,96 L172,87 L188,87 Z M143,176 L130,166 L125,151 L138,160 Z M125,181 L130,166 L125,151 L120,166 Z M125,181 L109,181 L96,191 L112,191 Z M50,384 L34,384 L21,375 L37,375 Z M50,415 L34,415 L21,424 L37,424 Z M658,648 L671,657 L676,673 L663,663 Z M658,648 L674,648 L687,657 L671,657 Z M687,608 L700,618 L704,633 L692,623 Z M733,544 L746,553 L751,568 L738,559 Z M733,544 L749,544 L762,553 L746,553 Z M762,424 L767,409 L780,399 L775,415 Z M762,375 L775,384 L780,399 L767,390 Z M762,504 L767,489 L772,504 L767,519 Z M412,777 L396,777 L384,786 L400,786 Z M459,762 L454,777 L459,792 L464,777 Z M337,752 L350,762 L355,777 L342,767 Z M488,752 L501,762 L506,777 L493,767 Z M311,752 L295,752 L308,762 L324,762 Z M290,737 L274,737 L261,746 L277,746 Z M582,722 L577,737 L582,752 L587,737 Z M214,712 L227,722 L232,737 L219,728 Z M188,712 L172,712 L185,722 L201,722 Z M167,697 L151,697 L138,688 L154,688 Z M138,657 L133,673 L138,688 L143,673 Z M91,593 L75,593 L63,602 L79,602 Z M91,593 L75,593 L63,583 L79,583 Z M63,553 L58,568 L63,583 L67,568 Z M658,151 L663,136 L676,126 L671,142 Z M658,151 L674,151 L687,142 L671,142 Z M687,191 L692,176 L704,166 L700,181 Z M733,255 L738,240 L751,231 L746,246 Z M733,255 L749,255 L762,246 L746,246 Z M762,295 L767,280 L772,295 L767,310 Z M412,22 L396,22 L383,13 L399,13 Z M459,37 L464,22 L459,7 L454,22 Z M488,47 L493,32 L506,22 L501,37 Z M337,47 L342,32 L355,22 L350,37 Z M311,47 L295,47 L308,37 L324,37 Z M290,62 L274,62 L261,53 L277,53 Z M582,77 L587,62 L582,47 L577,62 Z M214,87 L219,71 L232,62 L227,77 Z M188,87 L172,87 L185,77 L201,77 Z M167,102 L151,102 L138,111 L154,111 Z M138,142 L143,126 L138,111 L133,126 Z M91,206 L75,206 L63,216 L79,216 Z M91,206 L75,206 L63,197 L79,197 Z M63,246 L67,231 L63,216 L58,231 Z M45,320 L29,320 L16,310 L32,310 Z M45,350 L29,350 L16,360 L32,360 Z M34,335 L21,326 L16,310 L29,320 Z M34,335 L29,350 L16,360 L21,344 Z M45,449 L29,449 L16,439 L32,439 Z M45,479 L29,479 L16,489 L32,489 Z M34,464 L21,455 L16,439 L29,449 Z M34,464 L29,479 L16,489 L21,473 Z M692,642 L687,657 L700,648 L704,633 Z M663,682 L658,697 L671,688 L676,673 Z M720,602 L716,618 L720,633 L725,618 Z M738,578 L733,593 L746,583 L751,568 Z M775,464 L780,449 L785,464 L780,479 Z M775,415 L780,399 L785,415 L780,430 Z M775,384 L780,369 L785,384 L780,399 Z M775,335 L780,320 L785,335 L780,350 Z M324,762 L319,777 L324,792 L329,777 Z M522,746 L517,762 L522,777 L527,762 Z M295,752 L290,767 L277,777 L282,762 Z M540,752 L535,767 L522,777 L527,762 Z M540,752 L556,752 L569,762 L553,762 Z M551,737 L564,746 L569,762 L556,752 Z M125,648 L120,663 L107,673 L112,657 Z M125,648 L109,648 L96,657 L112,657 Z M96,608 L91,623 L79,633 L83,618 Z M692,157 L704,166 L700,151 L687,142 Z M720,197 L725,181 L720,166 L716,181 Z M738,221 L751,231 L746,216 L733,206 Z M663,117 L676,126 L671,111 L658,102 Z M522,53 L527,37 L522,22 L517,37 Z M324,37 L329,22 L324,7 L319,22 Z M295,47 L282,37 L277,22 L290,32 Z M540,47 L527,37 L522,22 L535,32 Z M540,47 L556,47 L569,37 L553,37 Z M551,62 L556,47 L569,37 L564,53 Z M125,151 L112,142 L107,126 L120,136 Z M125,151 L109,151 L96,142 L112,142 Z M96,191 L83,181 L79,166 L91,176 Z M21,375 L16,390 L3,400 L8,384 Z M21,424 L8,415 L3,400 L16,409 Z " fill="rgb(33, 33, 33)"/>
<path d="M400,400 L412,409 L425,400 L412,390 Z M400,400 L384,400 L388,415 L404,415 Z M400,400 L384,400 L388,384 L404,384 Z M404,415 L400,430 L412,439 L417,424 Z M404,415 L388,415 L384,430 L400,430 Z M412,390 L417,375 L430,384 L425,400 Z M412,409 L425,400 L430,415 L417,424 Z M404,384 L417,375 L412,360 L400,369 Z M404,384 L388,384 L384,369 L400,369 Z M384,400 L371,390 L358,400 L371,409 Z M417,424 L433,424 L428,439 L412,439 Z M425,400 L441,400 L446,415 L430,415 Z M425,400 L441,400 L446,384 L430,384 Z M417,375 L433,375 L428,360 L412,360 Z M379,384 L384,369 L371,360 L366,375 Z M371,409 L366,424 L353,415 L358,400 Z M371,390 L358,400 L353,384 L366,375 Z M379,415 L366,424 L371,439 L384,430 Z M412,439 L400,449 L404,464 L417,455 Z M433,424 L446,434 L459,424 L446,415 Z M433,424 L428,439 L441,449 L446,434 Z M384,430 L396,439 L384,449 L371,439 Z M412,360 L417,344 L404,335 L400,350 Z M433,375 L446,365 L441,350 L428,360 Z M433,375 L446,384 L459,375 L446,365 Z M384,369 L371,360 L384,350 L396,360 Z M366,375 L350,375 L355,360 L371,360 Z M358,400 L342,400 L337,384 L353,384 Z M358,400 L342,400 L337,415 L353,415 Z M366,424 L350,424 L355,439 L371,439 Z M446,415 L451,400 L464,409 L459,424 Z M417,455 L430,464 L417,473 L404,464 Z M400,449 L384,449 L388,464 L404,464 Z M425,449 L441,449 L446,464 L430,464 Z M371,439 L366,455 L379,464 L384,449 Z M446,384 L459,375 L464,390 L451,400 Z M425,350 L441,350 L446,335 L430,335 Z M400,350 L384,350 L388,335 L404,335 Z M417,344 L404,335 L417,326 L430,335 Z M371,360 L384,350 L379,335 L366,344 Z M350,375 L337,365 L324,375 L337,384 Z M350,375 L355,360 L342,350 L337,365 Z M350,424 L337,434 L342,449 L355,439 Z M350,424 L337,415 L324,424 L337,434 Z M459,424 L475,424 L480,439 L464,439 Z M451,400 L464,409 L477,400 L464,390 Z M404,464 L400,479 L412,489 L417,473 Z M404,464 L388,464 L384,479 L400,479 Z M430,464 L446,464 L441,479 L425,479 Z M441,449 L454,439 L459,455 L446,464 Z M358,449 L342,449 L337,464 L353,464 Z M366,455 L379,464 L366,473 L353,464 Z M459,375 L475,375 L480,360 L464,360 Z M430,335 L446,335 L441,320 L425,320 Z M441,350 L446,335 L459,344 L454,360 Z M404,335 L417,326 L412,310 L400,320 Z M404,335 L388,335 L384,320 L400,320 Z M366,344 L353,335 L366,326 L379,335 Z M358,350 L342,350 L337,335 L353,335 Z M337,384 L332,400 L319,390 L324,375 Z M337,415 L324,424 L319,409 L332,400 Z M464,439 L480,439 L475,455 L459,455 Z M472,415 L488,415 L493,400 L477,400 Z M475,424 L488,415 L493,430 L480,439 Z M446,464 L459,473 L472,464 L459,455 Z M446,464 L441,479 L454,489 L459,473 Z M379,464 L366,473 L371,489 L384,479 Z M353,464 L337,464 L342,479 L358,479 Z M342,449 L337,464 L324,455 L329,439 Z M472,384 L488,384 L493,400 L477,400 Z M464,360 L480,360 L475,344 L459,344 Z M475,375 L480,360 L493,369 L488,384 Z M446,335 L459,326 L454,310 L441,320 Z M446,335 L459,344 L472,335 L459,326 Z M379,335 L384,320 L371,310 L366,326 Z M353,335 L337,335 L342,320 L358,320 Z M342,350 L329,360 L324,344 L337,335 Z M324,375 L308,375 L303,360 L319,360 Z M332,400 L319,390 L306,400 L319,409 Z M324,424 L308,424 L303,439 L319,439 Z M480,439 L493,449 L506,439 L493,430 Z M480,439 L475,455 L488,464 L493,449 Z M488,415 L493,400 L506,409 L501,424 Z M412,489 L400,498 L404,513 L417,504 Z M412,489 L428,489 L433,504 L417,504 Z M384,479 L396,489 L384,498 L371,489 Z M441,479 L428,489 L433,504 L446,494 Z M459,473 L475,473 L480,489 L464,489 Z M337,464 L324,473 L329,489 L342,479 Z M337,464 L324,455 L311,464 L324,473 Z M488,384 L501,375 L506,390 L493,400 Z M480,360 L493,350 L488,335 L475,344 Z M480,360 L493,369 L506,360 L493,350 Z M412,310 L417,295 L404,286 L400,301 Z M412,310 L428,310 L433,295 L417,295 Z M441,320 L446,305 L433,295 L428,310 Z M459,326 L475,326 L480,310 L464,310 Z M384,320 L371,310 L384,301 L396,310 Z M337,335 L324,326 L311,335 L324,344 Z M337,335 L342,320 L329,310 L324,326 Z M319,360 L303,360 L308,344 L324,344 Z M311,384 L295,384 L290,400 L306,400 Z M308,375 L295,384 L290,369 L303,360 Z M311,415 L295,415 L290,400 L306,400 Z M319,439 L303,439 L308,455 L324,455 Z M308,424 L303,439 L290,430 L295,415 Z M501,424 L517,424 L522,439 L506,439 Z M501,424 L517,424 L522,409 L506,409 Z M417,504 L412,519 L425,528 L430,513 Z M400,498 L384,498 L388,513 L404,513 Z M371,489 L366,504 L379,513 L384,498 Z M371,489 L355,489 L350,504 L366,504 Z M446,494 L459,504 L446,513 L433,504 Z M464,489 L480,489 L475,504 L459,504 Z M475,473 L488,464 L493,479 L480,489 Z M342,479 L337,494 L350,504 L355,489 Z M324,473 L308,473 L303,489 L319,489 Z M501,375 L517,375 L522,390 L506,390 Z M501,375 L517,375 L522,360 L506,360 Z M400,301 L384,301 L388,286 L404,286 Z M417,295 L430,286 L425,271 L412,280 Z M446,305 L433,295 L446,286 L459,295 Z M464,310 L480,310 L475,295 L459,295 Z M475,326 L480,310 L493,320 L488,335 Z M371,310 L384,301 L379,286 L366,295 Z M371,310 L355,310 L350,295 L366,295 Z M342,320 L355,310 L350,295 L337,305 Z M324,326 L308,326 L303,310 L319,310 Z M303,360 L290,350 L277,360 L290,369 Z M303,360 L308,344 L295,335 L290,350 Z M295,384 L290,400 L277,390 L282,375 Z M295,415 L282,424 L277,409 L290,400 Z M303,439 L290,449 L295,464 L308,455 Z M303,439 L290,430 L277,439 L290,449 Z M488,464 L504,464 L509,479 L493,479 Z M506,439 L522,439 L517,455 L501,455 Z M509,400 L522,409 L535,400 L522,390 Z M404,513 L388,513 L384,528 L400,528 Z M430,513 L446,513 L441,528 L425,528 Z M412,519 L425,528 L412,538 L400,528 Z M366,504 L353,513 L358,528 L371,519 Z M459,504 L446,513 L451,528 L464,519 Z M459,504 L475,504 L480,519 L464,519 Z M337,494 L350,504 L337,513 L324,504 Z M319,489 L303,489 L308,504 L324,504 Z M308,473 L303,489 L290,479 L295,464 Z M488,335 L504,335 L509,320 L493,320 Z M506,360 L522,360 L517,344 L501,344 Z M404,286 L388,286 L384,271 L400,271 Z M412,280 L400,271 L412,261 L425,271 Z M430,286 L446,286 L441,271 L425,271 Z M459,295 L464,280 L451,271 L446,286 Z M459,295 L475,295 L480,280 L464,280 Z M366,295 L371,280 L358,271 L353,286 Z M337,305 L324,295 L337,286 L350,295 Z M319,310 L303,310 L308,295 L324,295 Z M308,326 L295,335 L290,320 L303,310 Z M282,375 L266,375 L261,360 L277,360 Z M282,375 L266,375 L261,390 L277,390 Z M282,424 L266,424 L261,409 L277,409 Z M282,424 L266,424 L261,439 L277,439 Z M493,479 L488,494 L501,504 L506,489 Z M504,464 L517,455 L522,470 L509,479 Z M522,439 L535,449 L548,439 L535,430 Z M522,439 L517,455 L530,464 L535,449 Z M522,390 L527,375 L540,384 L535,400 Z M522,409 L535,400 L540,415 L527,424 Z M400,528 L384,528 L388,544 L404,544 Z M425,528 L412,538 L417,553 L430,544 Z M425,528 L441,528 L446,544 L430,544 Z M371,519 L384,528 L371,538 L358,528 Z M353,513 L337,513 L342,528 L358,528 Z M464,519 L459,534 L472,544 L477,528 Z M475,504 L488,513 L501,504 L488,494 Z M324,504 L319,519 L332,528 L337,513 Z M324,504 L308,504 L303,519 L319,519 Z M295,464 L279,464 L274,479 L290,479 Z M493,320 L506,310 L501,295 L488,305 Z M504,335 L509,320 L522,329 L517,344 Z M522,360 L535,350 L530,335 L517,344 Z M522,360 L535,369 L548,360 L535,350 Z M400,271 L384,271 L388,255 L404,255 Z M425,271 L430,255 L417,246 L412,261 Z M425,271 L441,271 L446,255 L430,255 Z M464,280 L477,271 L472,255 L459,265 Z M475,295 L488,305 L501,295 L488,286 Z M353,286 L337,286 L342,271 L358,271 Z M371,280 L358,271 L371,261 L384,271 Z M324,295 L337,286 L332,271 L319,280 Z M324,295 L308,295 L303,280 L319,280 Z M295,335 L279,335 L274,320 L290,320 Z M277,360 L261,360 L266,344 L282,344 Z M274,400 L261,390 L248,400 L261,409 Z M277,439 L261,439 L266,455 L282,455 Z M506,489 L522,489 L517,504 L501,504 Z M509,479 L522,489 L535,479 L522,470 Z M535,430 L540,415 L553,424 L548,439 Z M535,449 L551,449 L556,464 L540,464 Z M535,400 L551,400 L556,415 L540,415 Z M535,400 L551,400 L556,384 L540,384 Z M404,544 L400,559 L412,568 L417,553 Z M404,544 L388,544 L384,559 L400,559 Z M358,528 L353,544 L366,553 L371,538 Z M358,528 L342,528 L337,544 L353,544 Z M477,528 L493,528 L488,544 L472,544 Z M459,534 L472,544 L459,553 L446,544 Z M488,513 L501,504 L506,519 L493,528 Z M319,519 L306,528 L311,544 L324,534 Z M308,504 L295,494 L282,504 L295,513 Z M290,479 L277,489 L282,504 L295,494 Z M279,464 L274,479 L261,470 L266,455 Z M506,310 L522,310 L517,295 L501,295 Z M509,320 L522,329 L535,320 L522,310 Z M535,350 L551,350 L556,335 L540,335 Z M535,369 L548,360 L553,375 L540,384 Z M404,255 L417,246 L412,231 L400,240 Z M404,255 L388,255 L384,240 L400,240 Z M459,265 L446,255 L459,246 L472,255 Z M477,271 L493,271 L488,255 L472,255 Z M488,286 L493,271 L506,280 L501,295 Z M358,271 L371,261 L366,246 L353,255 Z M358,271 L342,271 L337,255 L353,255 Z M319,280 L324,265 L311,255 L306,271 Z M308,295 L295,286 L282,295 L295,305 Z M290,320 L295,305 L282,295 L277,310 Z M279,335 L266,344 L261,329 L274,320 Z M261,360 L248,350 L235,360 L248,369 Z M261,360 L266,344 L253,335 L248,350 Z M261,409 L256,424 L243,415 L248,400 Z M261,390 L248,400 L243,384 L256,375 Z M261,439 L248,449 L253,464 L266,455 Z M261,439 L248,430 L235,439 L248,449 Z M501,504 L517,504 L522,519 L506,519 Z M522,489 L535,479 L540,494 L527,504 Z M548,439 L564,439 L569,424 L553,424 Z M540,464 L556,464 L551,479 L535,479 Z M551,449 L564,439 L569,455 L556,464 Z M551,400 L564,409 L577,400 L564,390 Z M417,553 L433,553 L428,568 L412,568 Z M379,544 L366,553 L371,568 L384,559 Z M446,544 L441,559 L454,568 L459,553 Z M493,528 L488,544 L501,553 L506,538 Z M324,534 L337,544 L324,553 L311,544 Z M306,528 L290,528 L295,544 L311,544 Z M295,513 L290,528 L277,519 L282,504 Z M277,489 L261,489 L266,504 L282,504 Z M274,479 L261,470 L248,479 L261,489 Z M501,295 L517,295 L522,280 L506,280 Z M522,310 L527,295 L540,305 L535,320 Z M548,360 L564,360 L569,375 L553,375 Z M540,335 L556,335 L551,320 L535,320 Z M551,350 L556,335 L569,344 L564,360 Z M417,246 L433,246 L428,231 L412,231 Z M379,255 L384,240 L371,231 L366,246 Z M446,255 L459,246 L454,231 L441,240 Z M493,271 L506,261 L501,246 L488,255 Z M306,271 L290,271 L295,255 L311,255 Z M324,265 L311,255 L324,246 L337,255 Z M295,286 L282,295 L277,280 L290,271 Z M277,310 L261,310 L266,295 L282,295 Z M274,320 L261,310 L248,320 L261,329 Z M248,369 L243,384 L230,375 L235,360 Z M248,350 L232,350 L227,335 L243,335 Z M248,400 L232,400 L227,384 L243,384 Z M248,400 L232,400 L227,415 L243,415 Z M248,449 L232,449 L227,464 L243,464 Z M248,430 L235,439 L230,424 L243,415 Z M527,504 L540,513 L553,504 L540,494 Z M527,504 L522,519 L535,528 L540,513 Z M564,439 L569,424 L582,434 L577,449 Z M556,464 L569,473 L582,464 L569,455 Z M556,464 L551,479 L564,489 L569,473 Z M564,390 L569,375 L582,384 L577,400 Z M564,409 L577,400 L582,415 L569,424 Z M412,568 L400,578 L404,593 L417,583 Z M412,568 L428,568 L433,583 L417,583 Z M384,559 L396,568 L384,578 L371,568 Z M366,553 L350,553 L355,568 L371,568 Z M459,553 L475,553 L480,568 L464,568 Z M441,559 L454,568 L441,578 L428,568 Z M337,544 L324,553 L329,568 L342,559 Z M488,544 L475,553 L480,568 L493,559 Z M506,538 L522,538 L517,553 L501,553 Z M509,528 L522,538 L535,528 L522,519 Z M290,528 L277,538 L282,553 L295,544 Z M282,504 L266,504 L261,519 L277,519 Z M261,489 L256,504 L243,494 L248,479 Z M527,295 L540,286 L535,271 L522,280 Z M527,295 L540,305 L553,295 L540,286 Z M564,360 L577,350 L582,365 L569,375 Z M556,335 L569,326 L564,310 L551,320 Z M556,335 L569,344 L582,335 L569,326 Z M412,231 L417,216 L404,206 L400,221 Z M412,231 L428,231 L433,216 L417,216 Z M384,240 L371,231 L384,221 L396,231 Z M366,246 L350,246 L355,231 L371,231 Z M441,240 L428,231 L441,221 L454,231 Z M459,246 L475,246 L480,231 L464,231 Z M488,255 L493,240 L480,231 L475,246 Z M506,261 L522,261 L517,246 L501,246 Z M509,271 L522,280 L535,271 L522,261 Z M337,255 L342,240 L329,231 L324,246 Z M290,271 L295,255 L282,246 L277,261 Z M282,295 L266,295 L261,280 L277,280 Z M261,310 L248,320 L243,305 L256,295 Z M235,360 L219,360 L214,375 L230,375 Z M243,335 L227,335 L232,320 L248,320 Z M232,350 L219,360 L214,344 L227,335 Z M232,400 L219,390 L206,400 L219,409 Z M235,439 L219,439 L214,424 L230,424 Z M243,464 L227,464 L232,479 L248,479 Z M232,449 L227,464 L214,455 L219,439 Z M548,489 L564,489 L569,504 L553,504 Z M569,424 L582,434 L595,424 L582,415 Z M569,375 L582,384 L595,375 L582,365 Z M417,583 L412,599 L425,608 L430,593 Z M400,578 L384,578 L388,593 L404,593 Z M371,568 L366,583 L379,593 L384,578 Z M371,568 L355,568 L350,583 L366,583 Z M464,568 L480,568 L475,583 L459,583 Z M454,568 L441,578 L446,593 L459,583 Z M342,559 L355,568 L342,578 L329,568 Z M324,553 L308,553 L303,568 L319,568 Z M493,559 L506,568 L493,578 L480,568 Z M501,553 L517,553 L522,568 L506,568 Z M522,538 L535,528 L540,544 L527,553 Z M295,544 L290,559 L303,568 L308,553 Z M277,538 L261,538 L266,553 L282,553 Z M274,528 L261,519 L248,528 L261,538 Z M256,504 L243,513 L248,528 L261,519 Z M256,504 L243,494 L230,504 L243,513 Z M548,310 L564,310 L569,295 L553,295 Z M400,221 L384,221 L388,206 L404,206 Z M417,216 L430,206 L425,191 L412,200 Z M371,231 L384,221 L379,206 L366,216 Z M371,231 L355,231 L350,216 L366,216 Z M454,231 L459,216 L446,206 L441,221 Z M464,231 L480,231 L475,216 L459,216 Z M501,246 L517,246 L522,231 L506,231 Z M493,240 L480,231 L493,221 L506,231 Z M522,261 L527,246 L540,255 L535,271 Z M324,246 L308,246 L303,231 L319,231 Z M342,240 L329,231 L342,221 L355,231 Z M295,255 L308,246 L303,231 L290,240 Z M277,261 L261,261 L266,246 L282,246 Z M274,271 L261,261 L248,271 L261,280 Z M256,295 L243,286 L230,295 L243,305 Z M256,295 L261,280 L248,271 L243,286 Z M219,360 L214,375 L201,365 L206,350 Z M227,335 L214,326 L201,335 L214,344 Z M227,335 L232,320 L219,310 L214,326 Z M219,409 L214,424 L201,415 L206,400 Z M219,390 L206,400 L201,384 L214,375 Z M219,439 L206,449 L201,434 L214,424 Z M227,464 L214,473 L219,489 L232,479 Z M227,464 L214,455 L201,464 L214,473 Z M535,528 L551,528 L556,544 L540,544 Z M553,504 L569,504 L564,519 L548,519 Z M564,489 L577,479 L582,494 L569,504 Z M582,415 L598,415 L603,400 L587,400 Z M582,434 L598,434 L603,449 L587,449 Z M582,464 L598,464 L603,479 L587,479 Z M582,464 L598,464 L603,449 L587,449 Z M582,365 L598,365 L603,350 L587,350 Z M582,384 L598,384 L603,400 L587,400 Z M404,593 L388,593 L384,608 L400,608 Z M430,593 L446,593 L441,608 L425,608 Z M412,599 L425,608 L412,618 L400,608 Z M366,583 L353,593 L358,608 L371,599 Z M459,583 L472,593 L459,602 L446,593 Z M480,568 L475,583 L488,593 L493,578 Z M329,568 L324,583 L337,593 L342,578 Z M319,568 L303,568 L308,583 L324,583 Z M506,568 L522,568 L517,583 L501,583 Z M282,553 L266,553 L261,568 L277,568 Z M290,559 L303,568 L290,578 L277,568 Z M261,538 L256,553 L243,544 L248,528 Z M235,489 L219,489 L214,504 L230,504 Z M553,295 L569,295 L564,280 L548,280 Z M564,310 L569,295 L582,305 L577,320 Z M535,271 L551,271 L556,255 L540,255 Z M582,335 L598,335 L603,350 L587,350 Z M582,335 L598,335 L603,320 L587,320 Z M404,206 L388,206 L383,191 L399,191 Z M412,200 L399,191 L412,181 L425,191 Z M430,206 L446,206 L441,191 L425,191 Z M366,216 L371,200 L358,191 L353,206 Z M459,216 L446,206 L459,197 L472,206 Z M480,231 L493,221 L488,206 L475,216 Z M506,231 L522,231 L517,216 L501,216 Z M319,231 L303,231 L308,216 L324,216 Z M329,231 L342,221 L337,206 L324,216 Z M290,240 L277,231 L290,221 L303,231 Z M282,246 L266,246 L261,231 L277,231 Z M261,261 L248,271 L243,255 L256,246 Z M235,310 L219,310 L214,295 L230,295 Z M214,375 L201,365 L188,375 L201,384 Z M214,424 L201,415 L188,424 L201,434 Z M540,544 L535,559 L548,568 L553,553 Z M551,528 L564,519 L569,534 L556,544 Z M569,504 L582,513 L595,504 L582,494 Z M569,504 L564,519 L577,528 L582,513 Z M598,415 L603,400 L616,409 L611,424 Z M598,434 L611,424 L616,439 L603,449 Z M587,479 L603,479 L598,494 L582,494 Z M598,464 L611,473 L624,464 L611,455 Z M598,365 L603,350 L616,360 L611,375 Z M598,384 L611,375 L616,390 L603,400 Z M400,608 L384,608 L388,623 L404,623 Z M425,608 L412,618 L417,633 L430,623 Z M425,608 L441,608 L446,623 L430,623 Z M371,599 L384,608 L371,618 L358,608 Z M353,593 L337,593 L342,608 L358,608 Z M472,593 L459,602 L464,618 L477,608 Z M472,593 L488,593 L493,608 L477,608 Z M324,583 L337,593 L324,602 L311,593 Z M303,568 L290,578 L295,593 L308,583 Z M501,583 L488,593 L493,608 L506,599 Z M501,583 L517,583 L522,599 L506,599 Z M522,568 L535,578 L548,568 L535,559 Z M277,568 L261,568 L266,583 L282,583 Z M248,528 L232,528 L227,544 L243,544 Z M230,504 L214,504 L219,519 L235,519 Z M219,489 L214,504 L201,494 L206,479 Z M569,295 L582,286 L577,271 L564,280 Z M569,295 L582,305 L595,295 L582,286 Z M540,255 L553,246 L548,231 L535,240 Z M551,271 L556,255 L569,265 L564,280 Z M587,320 L603,320 L598,305 L582,305 Z M598,335 L611,344 L624,335 L611,326 Z M399,191 L383,191 L388,176 L404,176 Z M425,191 L430,176 L417,166 L412,181 Z M425,191 L441,191 L446,176 L430,176 Z M353,206 L337,206 L342,191 L358,191 Z M371,200 L358,191 L371,181 L383,191 Z M472,206 L477,191 L464,181 L459,197 Z M472,206 L488,206 L493,191 L477,191 Z M501,216 L506,200 L493,191 L488,206 Z M501,216 L517,216 L522,200 L506,200 Z M522,231 L535,240 L548,231 L535,221 Z M324,216 L311,206 L324,197 L337,206 Z M303,231 L308,216 L295,206 L290,221 Z M277,231 L261,231 L266,216 L282,216 Z M248,271 L232,271 L227,255 L243,255 Z M230,295 L214,295 L219,280 L235,280 Z M219,310 L206,320 L201,305 L214,295 Z M201,384 L185,384 L180,400 L196,400 Z M201,365 L185,365 L180,350 L196,350 Z M201,335 L185,335 L180,320 L196,320 Z M201,335 L185,335 L180,350 L196,350 Z M201,434 L185,434 L180,449 L196,449 Z M201,415 L185,415 L180,400 L196,400 Z M201,464 L185,464 L180,449 L196,449 Z M201,464 L185,464 L180,479 L196,479 Z M553,553 L569,553 L564,568 L548,568 Z M556,544 L569,553 L582,544 L569,534 Z M582,513 L598,513 L603,528 L587,528 Z M611,424 L627,424 L632,439 L616,439 Z M603,400 L616,409 L629,400 L616,390 Z M603,479 L598,494 L611,504 L616,489 Z M611,455 L616,439 L629,449 L624,464 Z M611,473 L624,464 L629,479 L616,489 Z M611,375 L627,375 L632,360 L616,360 Z M404,623 L400,639 L412,648 L417,633 Z M404,623 L388,623 L384,639 L400,639 Z M451,608 L446,623 L459,633 L464,618 Z M358,608 L353,623 L366,633 L371,618 Z M358,608 L342,608 L337,623 L353,623 Z M311,593 L306,608 L319,618 L324,602 Z M311,593 L295,593 L290,608 L306,608 Z M527,583 L522,599 L535,608 L540,593 Z M535,578 L548,568 L553,583 L540,593 Z M282,583 L277,599 L290,608 L295,593 Z M282,583 L266,583 L261,599 L277,599 Z M261,568 L248,559 L235,568 L248,578 Z M243,544 L230,553 L235,568 L248,559 Z M232,528 L227,544 L214,534 L219,519 Z M214,504 L201,513 L206,528 L219,519 Z M214,504 L201,494 L188,504 L201,513 Z M582,286 L598,286 L603,271 L587,271 Z M553,246 L569,246 L564,231 L548,231 Z M556,255 L569,265 L582,255 L569,246 Z M603,320 L616,310 L611,295 L598,305 Z M611,326 L616,310 L629,320 L624,335 Z M611,344 L624,335 L629,350 L616,360 Z M404,176 L417,166 L412,151 L399,160 Z M404,176 L388,176 L383,160 L399,160 Z M451,191 L464,181 L459,166 L446,176 Z M358,191 L371,181 L366,166 L353,176 Z M358,191 L342,191 L337,176 L353,176 Z M535,221 L540,206 L553,216 L548,231 Z M527,216 L540,206 L535,191 L522,200 Z M311,206 L324,197 L319,181 L306,191 Z M311,206 L295,206 L290,191 L306,191 Z M282,216 L295,206 L290,191 L277,200 Z M282,216 L266,216 L261,200 L277,200 Z M261,231 L248,221 L235,231 L248,240 Z M243,255 L248,240 L235,231 L230,246 Z M232,271 L219,280 L214,265 L227,255 Z M214,295 L201,286 L188,295 L201,305 Z M214,295 L219,280 L206,271 L201,286 Z M185,384 L180,400 L167,390 L172,375 Z M185,365 L172,375 L167,360 L180,350 Z M196,320 L180,320 L185,305 L201,305 Z M185,335 L172,326 L159,335 L172,344 Z M185,434 L180,449 L167,439 L172,424 Z M185,415 L172,424 L167,409 L180,400 Z M196,479 L180,479 L185,494 L201,494 Z M185,464 L172,455 L159,464 L172,473 Z M548,568 L564,568 L569,583 L553,583 Z M569,553 L582,544 L587,559 L574,568 Z M587,528 L603,528 L598,544 L582,544 Z M598,513 L611,504 L616,519 L603,528 Z M624,415 L640,415 L645,400 L629,400 Z M627,424 L640,415 L645,430 L632,439 Z M616,489 L632,489 L627,504 L611,504 Z M624,464 L640,464 L645,479 L629,479 Z M624,464 L640,464 L645,449 L629,449 Z M624,384 L640,384 L645,400 L629,400 Z M627,375 L632,360 L645,369 L640,384 Z M417,633 L433,633 L428,648 L412,648 Z M379,623 L366,633 L371,648 L384,639 Z M446,623 L459,633 L446,642 L433,633 Z M464,618 L480,618 L475,633 L459,633 Z M332,608 L319,618 L324,633 L337,623 Z M493,608 L488,623 L501,633 L506,618 Z M522,599 L535,608 L522,618 L509,608 Z M540,593 L556,593 L551,608 L535,608 Z M248,578 L243,593 L230,583 L235,568 Z M256,583 L243,593 L248,608 L261,599 Z M230,553 L214,553 L219,568 L235,568 Z M227,544 L214,534 L201,544 L214,553 Z M201,513 L185,513 L180,528 L196,528 Z M587,271 L603,271 L598,255 L582,255 Z M598,286 L603,271 L616,280 L611,295 Z M548,231 L564,231 L569,216 L553,216 Z M569,246 L574,231 L587,240 L582,255 Z M616,310 L632,310 L627,295 L611,295 Z M624,335 L640,335 L645,350 L629,350 Z M624,335 L640,335 L645,320 L629,320 Z M417,166 L433,166 L428,151 L412,151 Z M379,176 L383,160 L371,151 L366,166 Z M446,176 L433,166 L446,157 L459,166 Z M464,181 L480,181 L475,166 L459,166 Z M332,191 L337,176 L324,166 L319,181 Z M493,191 L506,181 L501,166 L488,176 Z M522,200 L509,191 L522,181 L535,191 Z M540,206 L556,206 L551,191 L535,191 Z M256,216 L261,200 L248,191 L243,206 Z M248,221 L235,231 L230,216 L243,206 Z M230,246 L214,246 L219,231 L235,231 Z M227,255 L214,246 L201,255 L214,265 Z M201,286 L185,286 L180,271 L196,271 Z M172,375 L156,375 L151,360 L167,360 Z M180,400 L167,390 L154,400 L167,409 Z M180,320 L185,305 L172,295 L167,310 Z M172,344 L167,360 L154,350 L159,335 Z M172,326 L159,335 L154,320 L167,310 Z M172,424 L156,424 L151,439 L167,439 Z M180,479 L167,489 L172,504 L185,494 Z M172,473 L167,489 L154,479 L159,464 Z M172,455 L159,464 L154,449 L167,439 Z M582,544 L598,544 L603,559 L587,559 Z M611,504 L627,504 L632,519 L616,519 Z M632,439 L645,449 L658,439 L645,430 Z M640,415 L645,400 L658,409 L653,424 Z M640,384 L653,375 L658,390 L645,400 Z M632,360 L645,369 L658,360 L645,350 Z M412,648 L400,657 L404,673 L417,663 Z M433,633 L428,648 L441,657 L446,642 Z M384,639 L396,648 L384,657 L371,648 Z M366,633 L350,633 L355,648 L371,648 Z M459,633 L475,633 L480,648 L464,648 Z M337,623 L350,633 L337,642 L324,633 Z M319,618 L303,618 L308,633 L324,633 Z M506,618 L522,618 L517,633 L501,633 Z M488,623 L501,633 L488,642 L475,633 Z M290,608 L277,618 L282,633 L295,623 Z M535,608 L522,618 L527,633 L540,623 Z M535,608 L551,608 L556,623 L540,623 Z M261,599 L274,608 L261,618 L248,608 Z M235,568 L219,568 L214,583 L230,583 Z M243,593 L227,593 L232,608 L248,608 Z M214,553 L209,568 L196,559 L201,544 Z M196,528 L180,528 L185,544 L201,544 Z M185,513 L180,528 L167,519 L172,504 Z M582,255 L598,255 L603,240 L587,240 Z M611,295 L627,295 L632,280 L616,280 Z M412,151 L417,136 L404,126 L399,142 Z M433,166 L446,157 L441,142 L428,151 Z M383,160 L371,151 L383,142 L396,151 Z M366,166 L350,166 L355,151 L371,151 Z M459,166 L475,166 L480,151 L464,151 Z M337,176 L324,166 L337,157 L350,166 Z M319,181 L303,181 L308,166 L324,166 Z M488,176 L475,166 L488,157 L501,166 Z M506,181 L522,181 L517,166 L501,166 Z M535,191 L540,176 L527,166 L522,181 Z M535,191 L551,191 L556,176 L540,176 Z M290,191 L295,176 L282,166 L277,181 Z M261,200 L248,191 L261,181 L274,191 Z M243,206 L227,206 L232,191 L248,191 Z M235,231 L219,231 L214,216 L230,216 Z M214,246 L201,255 L196,240 L209,231 Z M196,271 L180,271 L185,255 L201,255 Z M185,286 L172,295 L167,280 L180,271 Z M159,384 L143,384 L138,400 L154,400 Z M156,375 L143,384 L138,369 L151,360 Z M167,310 L151,310 L156,295 L172,295 Z M159,335 L143,335 L138,320 L154,320 Z M159,335 L143,335 L138,350 L154,350 Z M159,415 L143,415 L138,400 L154,400 Z M156,424 L151,439 L138,430 L143,415 Z M167,489 L151,489 L156,504 L172,504 Z M159,464 L143,464 L138,449 L154,449 Z M159,464 L143,464 L138,479 L154,479 Z M569,583 L582,593 L595,583 L582,574 Z M569,583 L564,599 L577,608 L582,593 Z M587,559 L582,574 L595,583 L600,568 Z M598,544 L611,553 L624,544 L611,534 Z M616,519 L611,534 L624,544 L629,528 Z M627,504 L640,513 L653,504 L640,494 Z M645,449 L658,439 L663,455 L650,464 Z M645,400 L658,409 L671,400 L658,390 Z M645,479 L658,489 L671,479 L658,470 Z M645,479 L640,494 L653,504 L658,489 Z M645,350 L650,335 L663,344 L658,360 Z M417,663 L430,673 L417,682 L404,673 Z M400,657 L384,657 L388,673 L404,673 Z M425,657 L441,657 L446,673 L430,673 Z M371,648 L366,663 L379,673 L384,657 Z M350,633 L337,642 L342,657 L355,648 Z M464,648 L480,648 L475,663 L459,663 Z M454,648 L441,657 L446,673 L459,663 Z M324,633 L308,633 L303,648 L319,648 Z M501,633 L488,642 L493,657 L506,648 Z M501,633 L517,633 L522,648 L506,648 Z M295,623 L308,633 L295,642 L282,633 Z M277,618 L261,618 L266,633 L282,633 Z M540,623 L535,639 L548,648 L553,633 Z M551,608 L564,618 L577,608 L564,599 Z M248,608 L243,623 L256,633 L261,618 Z M248,608 L232,608 L227,623 L243,623 Z M201,544 L185,544 L180,559 L196,559 Z M172,504 L156,504 L151,519 L167,519 Z M587,240 L600,231 L595,216 L582,225 Z M598,255 L611,265 L624,255 L611,246 Z M616,280 L629,271 L624,255 L611,265 Z M627,295 L640,305 L653,295 L640,286 Z M569,216 L582,206 L577,191 L564,200 Z M569,216 L582,225 L595,216 L582,206 Z M645,320 L658,310 L653,295 L640,305 Z M645,320 L658,329 L671,320 L658,310 Z M425,142 L441,142 L446,126 L430,126 Z M399,142 L383,142 L388,126 L404,126 Z M417,136 L404,126 L417,117 L430,126 Z M371,151 L383,142 L379,126 L366,136 Z M350,166 L355,151 L342,142 L337,157 Z M454,151 L459,136 L446,126 L441,142 Z M464,151 L480,151 L475,136 L459,136 Z M324,166 L308,166 L303,151 L319,151 Z M501,166 L506,151 L493,142 L488,157 Z M501,166 L517,166 L522,151 L506,151 Z M540,176 L553,166 L548,151 L535,160 Z M551,191 L564,200 L577,191 L564,181 Z M277,181 L261,181 L266,166 L282,166 Z M295,176 L282,166 L295,157 L308,166 Z M248,191 L261,181 L256,166 L243,176 Z M248,191 L232,191 L227,176 L243,176 Z M201,255 L185,255 L180,240 L196,240 Z M172,295 L156,295 L151,280 L167,280 Z M151,360 L138,350 L125,360 L138,369 Z M143,384 L138,400 L125,390 L130,375 Z M143,415 L130,424 L125,409 L138,400 Z M151,439 L138,430 L125,439 L138,449 Z M582,593 L598,593 L603,608 L587,608 Z M600,568 L616,568 L611,583 L595,583 Z M611,553 L624,544 L629,559 L616,568 Z M629,528 L645,528 L640,544 L624,544 Z M640,513 L653,504 L658,519 L645,528 Z M658,439 L674,439 L679,455 L663,455 Z M658,439 L674,439 L679,424 L663,424 Z M658,390 L674,390 L679,375 L663,375 Z M658,409 L674,409 L679,424 L663,424 Z M658,470 L663,455 L676,464 L671,479 Z M658,489 L674,489 L679,504 L663,504 Z M658,360 L674,360 L679,375 L663,375 Z M658,360 L674,360 L679,344 L663,344 Z M404,673 L400,688 L412,697 L417,682 Z M404,673 L388,673 L384,688 L400,688 Z M430,673 L446,673 L441,688 L425,688 Z M358,657 L342,657 L337,673 L353,673 Z M366,663 L379,673 L366,682 L353,673 Z M459,663 L472,673 L459,682 L446,673 Z M480,648 L475,663 L488,673 L493,657 Z M329,648 L324,663 L337,673 L342,657 Z M319,648 L303,648 L308,663 L324,663 Z M282,633 L277,648 L290,657 L295,642 Z M282,633 L266,633 L261,648 L277,648 Z M553,633 L569,633 L564,648 L548,648 Z M535,639 L548,648 L535,657 L522,648 Z M564,618 L577,608 L582,623 L569,633 Z M243,623 L230,633 L235,648 L248,639 Z M232,608 L219,599 L206,608 L219,618 Z M214,583 L201,593 L206,608 L219,599 Z M214,583 L201,574 L188,583 L201,593 Z M196,559 L183,568 L188,583 L201,574 Z M185,544 L172,534 L159,544 L172,553 Z M167,519 L154,528 L159,544 L172,534 Z M156,504 L143,494 L130,504 L143,513 Z M600,231 L616,231 L611,216 L595,216 Z M611,246 L616,231 L629,240 L624,255 Z M629,271 L645,271 L640,255 L624,255 Z M640,286 L645,271 L658,280 L653,295 Z M582,206 L598,206 L603,191 L587,191 Z M658,310 L674,310 L679,295 L663,295 Z M658,329 L671,320 L676,335 L663,344 Z M430,126 L446,126 L441,111 L425,111 Z M404,126 L417,117 L412,102 L399,111 Z M404,126 L388,126 L383,111 L399,111 Z M366,136 L353,126 L366,117 L379,126 Z M358,142 L342,142 L337,126 L353,126 Z M459,136 L446,126 L459,117 L472,126 Z M480,151 L493,142 L488,126 L475,136 Z M319,151 L303,151 L308,136 L324,136 Z M329,151 L342,142 L337,126 L324,136 Z M535,160 L522,151 L535,142 L548,151 Z M553,166 L569,166 L564,151 L548,151 Z M564,181 L569,166 L582,176 L577,191 Z M282,166 L295,157 L290,142 L277,151 Z M282,166 L266,166 L261,151 L277,151 Z M243,176 L248,160 L235,151 L230,166 Z M232,191 L219,181 L206,191 L219,200 Z M214,216 L201,206 L188,216 L201,225 Z M214,216 L219,200 L206,191 L201,206 Z M196,240 L201,225 L188,216 L183,231 Z M185,255 L172,246 L159,255 L172,265 Z M167,280 L172,265 L159,255 L154,271 Z M156,295 L143,286 L130,295 L143,305 Z M138,350 L125,360 L120,344 L133,335 Z M138,400 L125,390 L112,400 L125,409 Z M138,320 L125,310 L112,320 L125,329 Z M138,320 L143,305 L130,295 L125,310 Z M138,449 L133,464 L120,455 L125,439 Z M138,479 L125,489 L130,504 L143,494 Z M138,479 L125,470 L112,479 L125,489 Z M587,608 L603,608 L598,623 L582,623 Z M598,593 L611,583 L616,599 L603,608 Z M616,568 L611,583 L624,593 L629,578 Z M624,544 L640,544 L645,559 L629,559 Z M645,528 L658,538 L671,528 L658,519 Z M674,439 L687,449 L700,439 L687,430 Z M674,390 L679,375 L692,384 L687,400 Z M674,409 L687,400 L692,415 L679,424 Z M671,479 L687,479 L692,464 L676,464 Z M663,504 L679,504 L674,519 L658,519 Z M674,489 L687,479 L692,494 L679,504 Z M674,360 L687,369 L700,360 L687,350 Z M446,673 L441,688 L454,697 L459,682 Z M379,673 L366,682 L371,697 L384,688 Z M353,673 L337,673 L342,688 L358,688 Z M493,657 L509,657 L504,673 L488,673 Z M324,663 L337,673 L324,682 L311,673 Z M303,648 L290,657 L295,673 L308,663 Z M522,648 L517,663 L530,673 L535,657 Z M569,633 L582,642 L595,633 L582,623 Z M569,633 L564,648 L577,657 L582,642 Z M248,639 L261,648 L248,657 L235,648 Z M230,633 L214,633 L219,648 L235,648 Z M219,618 L214,633 L201,623 L206,608 Z M201,593 L185,593 L180,608 L196,608 Z M183,568 L167,568 L172,583 L188,583 Z M172,553 L167,568 L154,559 L159,544 Z M154,528 L138,528 L143,544 L159,544 Z M143,513 L138,528 L125,519 L130,504 Z M616,231 L629,221 L624,206 L611,216 Z M624,255 L640,255 L645,240 L629,240 Z M645,271 L658,280 L671,271 L658,261 Z M587,191 L603,191 L598,176 L582,176 Z M598,206 L603,191 L616,200 L611,216 Z M671,320 L687,320 L692,335 L676,335 Z M663,295 L679,295 L674,280 L658,280 Z M674,310 L679,295 L692,305 L687,320 Z M446,126 L459,117 L454,102 L441,111 Z M379,126 L383,111 L371,102 L366,117 Z M353,126 L337,126 L342,111 L358,111 Z M493,142 L509,142 L504,126 L488,126 Z M324,136 L311,126 L324,117 L337,126 Z M303,151 L308,136 L295,126 L290,142 Z M522,151 L535,142 L530,126 L517,136 Z M569,166 L582,157 L577,142 L564,151 Z M569,166 L582,176 L595,166 L582,157 Z M230,166 L214,166 L219,151 L235,151 Z M248,160 L235,151 L248,142 L261,151 Z M219,181 L206,191 L201,176 L214,166 Z M201,206 L185,206 L180,191 L196,191 Z M183,231 L167,231 L172,216 L188,216 Z M172,246 L159,255 L154,240 L167,231 Z M154,271 L138,271 L143,255 L159,255 Z M143,286 L130,295 L125,280 L138,271 Z M125,360 L109,360 L104,344 L120,344 Z M125,360 L109,360 L104,375 L120,375 Z M125,409 L109,409 L104,424 L120,424 Z M125,390 L109,390 L104,375 L120,375 Z M125,329 L120,344 L107,335 L112,320 Z M125,310 L109,310 L104,295 L120,295 Z M125,439 L109,439 L104,424 L120,424 Z M125,439 L109,439 L104,455 L120,455 Z M125,489 L109,489 L104,504 L120,504 Z M125,470 L112,479 L107,464 L120,455 Z M603,608 L616,618 L629,608 L616,599 Z M603,608 L598,623 L611,633 L616,618 Z M629,578 L645,578 L640,593 L624,593 Z M632,568 L645,578 L658,568 L645,559 Z M650,544 L645,559 L658,568 L663,553 Z M658,538 L671,528 L676,544 L663,553 Z M687,430 L692,415 L704,424 L700,439 Z M687,449 L700,439 L704,455 L692,464 Z M687,400 L703,400 L708,415 L692,415 Z M687,400 L703,400 L708,384 L692,384 Z M687,479 L692,464 L704,473 L700,489 Z M679,504 L692,513 L704,504 L692,494 Z M679,504 L674,519 L687,528 L692,513 Z M687,350 L692,335 L704,344 L700,360 Z M687,369 L700,360 L704,375 L692,384 Z M412,697 L400,707 L404,722 L417,712 Z M412,697 L428,697 L433,712 L417,712 Z M384,688 L396,697 L384,707 L371,697 Z M441,688 L428,697 L433,712 L446,703 Z M459,682 L475,682 L480,697 L464,697 Z M337,673 L324,682 L329,697 L342,688 Z M488,673 L475,682 L480,697 L493,688 Z M488,673 L504,673 L509,688 L493,688 Z M290,657 L274,657 L279,673 L295,673 Z M535,657 L551,657 L556,673 L540,673 Z M517,663 L530,673 L517,682 L504,673 Z M261,648 L248,657 L253,673 L266,663 Z M564,648 L551,657 L556,673 L569,663 Z M582,642 L598,642 L603,657 L587,657 Z M214,633 L201,642 L206,657 L219,648 Z M214,633 L201,623 L188,633 L201,642 Z M196,608 L180,608 L185,623 L201,623 Z M185,593 L180,608 L167,599 L172,583 Z M167,568 L154,578 L159,593 L172,583 Z M159,544 L143,544 L138,559 L154,559 Z M138,528 L125,519 L112,528 L125,538 Z M629,221 L645,221 L640,206 L624,206 Z M632,231 L645,240 L658,231 L645,221 Z M658,261 L663,246 L676,255 L671,271 Z M650,255 L663,246 L658,231 L645,240 Z M603,191 L616,181 L611,166 L598,176 Z M603,191 L616,200 L629,191 L616,181 Z M687,320 L700,310 L704,326 L692,335 Z M679,295 L692,286 L687,271 L674,280 Z M679,295 L692,305 L704,295 L692,286 Z M412,102 L417,87 L404,77 L399,92 Z M412,102 L428,102 L433,87 L417,87 Z M441,111 L446,96 L433,87 L428,102 Z M459,117 L475,117 L480,102 L464,102 Z M383,111 L371,102 L383,92 L396,102 Z M337,126 L342,111 L329,102 L324,117 Z M488,126 L493,111 L480,102 L475,117 Z M488,126 L504,126 L509,111 L493,111 Z M290,142 L274,142 L279,126 L295,126 Z M517,136 L504,126 L517,117 L530,126 Z M535,142 L551,142 L556,126 L540,126 Z M564,151 L569,136 L556,126 L551,142 Z M582,157 L598,157 L603,142 L587,142 Z M261,151 L266,136 L253,126 L248,142 Z M214,166 L201,157 L188,166 L201,176 Z M214,166 L219,151 L206,142 L201,157 Z M196,191 L180,191 L185,176 L201,176 Z M185,206 L172,216 L167,200 L180,191 Z M167,231 L172,216 L159,206 L154,221 Z M159,255 L143,255 L138,240 L154,240 Z M138,271 L125,261 L112,271 L125,280 Z M109,360 L96,350 L83,360 L96,369 Z M109,409 L104,424 L91,415 L96,400 Z M109,390 L96,400 L91,384 L104,375 Z M112,320 L96,320 L91,335 L107,335 Z M120,295 L104,295 L109,280 L125,280 Z M109,310 L96,320 L91,305 L104,295 Z M109,439 L96,430 L83,439 L96,449 Z M112,479 L96,479 L91,464 L107,464 Z M120,504 L104,504 L109,519 L125,519 Z M109,489 L104,504 L91,494 L96,479 Z M624,593 L640,593 L645,608 L629,608 Z M645,578 L658,568 L663,583 L650,593 Z M663,553 L679,553 L674,568 L658,568 Z M671,528 L687,528 L692,544 L676,544 Z M700,439 L716,439 L720,455 L704,455 Z M700,439 L716,439 L720,424 L704,424 Z M703,400 L716,409 L728,400 L716,390 Z M700,489 L716,489 L720,504 L704,504 Z M700,489 L716,489 L720,473 L704,473 Z M700,360 L716,360 L720,375 L704,375 Z M700,360 L716,360 L720,344 L704,344 Z M417,712 L412,728 L425,737 L430,722 Z M400,707 L384,707 L388,722 L404,722 Z M371,697 L366,712 L379,722 L384,707 Z M371,697 L355,697 L350,712 L366,712 Z M446,703 L459,712 L446,722 L433,712 Z M464,697 L480,697 L475,712 L459,712 Z M342,688 L337,703 L350,712 L355,697 Z M324,682 L308,682 L303,697 L319,697 Z M493,688 L488,703 L501,712 L506,697 Z M295,673 L290,688 L303,697 L308,682 Z M295,673 L279,673 L274,688 L290,688 Z M540,673 L556,673 L551,688 L535,688 Z M530,673 L517,682 L522,697 L535,688 Z M266,663 L279,673 L266,682 L253,673 Z M248,657 L232,657 L227,673 L243,673 Z M569,663 L582,673 L569,682 L556,673 Z M587,657 L603,657 L598,673 L582,673 Z M598,642 L611,633 L616,648 L603,657 Z M219,648 L214,663 L227,673 L232,657 Z M201,642 L185,642 L180,657 L196,657 Z M180,608 L167,618 L172,633 L185,623 Z M180,608 L167,599 L154,608 L167,618 Z M154,578 L138,578 L143,593 L159,593 Z M151,568 L138,559 L125,568 L138,578 Z M125,538 L120,553 L107,544 L112,528 Z M133,544 L120,553 L125,568 L138,559 Z M624,206 L640,206 L645,191 L629,191 Z M645,221 L650,206 L663,216 L658,231 Z M671,271 L687,271 L692,255 L676,255 Z M663,246 L679,246 L674,231 L658,231 Z M700,310 L716,310 L720,326 L704,326 Z M700,310 L716,310 L720,295 L704,295 Z M399,92 L383,92 L388,77 L404,77 Z M417,87 L430,77 L425,62 L412,71 Z M446,96 L433,87 L446,77 L459,87 Z M464,102 L480,102 L475,87 L459,87 Z M371,102 L383,92 L379,77 L366,87 Z M371,102 L355,102 L350,87 L366,87 Z M342,111 L355,102 L350,87 L337,96 Z M324,117 L308,117 L303,102 L319,102 Z M493,111 L506,102 L501,87 L488,96 Z M295,126 L308,117 L303,102 L290,111 Z M295,126 L279,126 L274,111 L290,111 Z M530,126 L535,111 L522,102 L517,117 Z M540,126 L556,126 L551,111 L535,111 Z M569,136 L556,126 L569,117 L582,126 Z M587,142 L603,142 L598,126 L582,126 Z M598,157 L603,142 L616,151 L611,166 Z M248,142 L232,142 L227,126 L243,126 Z M266,136 L253,126 L266,117 L279,126 Z M219,151 L232,142 L227,126 L214,136 Z M201,157 L185,157 L180,142 L196,142 Z M180,191 L167,181 L154,191 L167,200 Z M180,191 L185,176 L172,166 L167,181 Z M154,221 L138,221 L143,206 L159,206 Z M151,231 L138,221 L125,231 L138,240 Z M133,255 L138,240 L125,231 L120,246 Z M125,261 L112,271 L107,255 L120,246 Z M96,369 L91,384 L79,375 L83,360 Z M96,350 L83,360 L79,344 L91,335 Z M96,400 L80,400 L75,384 L91,384 Z M96,400 L80,400 L75,415 L91,415 Z M96,320 L91,335 L79,326 L83,310 Z M104,295 L91,286 L79,295 L91,305 Z M104,295 L109,280 L96,271 L91,286 Z M96,449 L91,464 L79,455 L83,439 Z M96,430 L83,439 L79,424 L91,415 Z M96,479 L83,489 L79,473 L91,464 Z M104,504 L91,513 L96,528 L109,519 Z M104,504 L91,494 L79,504 L91,513 Z M629,608 L645,608 L640,623 L624,623 Z M611,633 L627,633 L632,648 L616,648 Z M658,568 L674,568 L679,583 L663,583 Z M687,528 L700,519 L704,534 L692,544 Z M708,464 L720,473 L733,464 L720,455 Z M716,390 L720,375 L733,384 L728,400 Z M716,409 L728,400 L733,415 L720,424 Z M704,504 L720,504 L716,519 L700,519 Z M708,335 L720,344 L733,335 L720,326 Z M404,722 L388,722 L384,737 L400,737 Z M430,722 L446,722 L441,737 L425,737 Z M412,728 L425,737 L412,746 L400,737 Z M366,712 L353,722 L358,737 L371,728 Z M459,712 L446,722 L451,737 L464,728 Z M459,712 L475,712 L480,728 L464,728 Z M337,703 L350,712 L337,722 L324,712 Z M319,697 L303,697 L308,712 L324,712 Z M506,697 L522,697 L517,712 L501,712 Z M488,703 L501,712 L488,722 L475,712 Z M290,688 L277,697 L282,712 L295,703 Z M535,688 L548,697 L535,707 L522,697 Z M556,673 L551,688 L564,697 L569,682 Z M253,673 L248,688 L261,697 L266,682 Z M243,673 L227,673 L232,688 L248,688 Z M582,673 L598,673 L603,688 L587,688 Z M214,663 L227,673 L214,682 L201,673 Z M196,657 L180,657 L185,673 L201,673 Z M185,642 L180,657 L167,648 L172,633 Z M159,593 L143,593 L138,608 L154,608 Z M138,578 L133,593 L120,583 L125,568 Z M112,528 L96,528 L91,544 L107,544 Z M120,553 L104,553 L109,568 L125,568 Z M629,191 L645,191 L640,176 L624,176 Z M658,231 L674,231 L679,216 L663,216 Z M687,271 L692,255 L704,265 L700,280 Z M611,166 L627,166 L632,151 L616,151 Z M704,295 L720,295 L716,280 L700,280 Z M404,77 L388,77 L383,62 L399,62 Z M412,71 L399,62 L412,53 L425,62 Z M430,77 L446,77 L441,62 L425,62 Z M459,87 L464,71 L451,62 L446,77 Z M459,87 L475,87 L480,71 L464,71 Z M366,87 L371,71 L358,62 L353,77 Z M337,96 L324,87 L337,77 L350,87 Z M319,102 L303,102 L308,87 L324,87 Z M488,96 L475,87 L488,77 L501,87 Z M506,102 L522,102 L517,87 L501,87 Z M290,111 L295,96 L282,87 L277,102 Z M535,111 L522,102 L535,92 L548,102 Z M556,126 L569,117 L564,102 L551,111 Z M582,126 L598,126 L603,111 L587,111 Z M243,126 L227,126 L232,111 L248,111 Z M253,126 L266,117 L261,102 L248,111 Z M214,136 L201,126 L214,117 L227,126 Z M196,142 L180,142 L185,126 L201,126 Z M185,157 L172,166 L167,151 L180,142 Z M159,206 L143,206 L138,191 L154,191 Z M138,221 L125,231 L120,216 L133,206 Z M120,246 L104,246 L109,231 L125,231 Z M112,271 L96,271 L91,255 L107,255 Z M83,360 L67,360 L63,344 L79,344 Z M83,360 L67,360 L63,375 L79,375 Z M80,400 L67,390 L55,400 L67,409 Z M83,310 L67,310 L63,295 L79,295 Z M83,310 L67,310 L63,326 L79,326 Z M83,439 L67,439 L63,424 L79,424 Z M83,439 L67,439 L63,455 L79,455 Z M83,489 L67,489 L63,473 L79,473 Z M83,489 L67,489 L63,504 L79,504 Z M645,608 L658,618 L671,608 L658,599 Z M645,608 L640,623 L653,633 L658,618 Z M616,648 L611,663 L624,673 L629,657 Z M627,633 L640,623 L645,639 L632,648 Z M663,583 L658,599 L671,608 L676,593 Z M674,568 L687,578 L700,568 L687,559 Z M692,544 L687,559 L700,568 L704,553 Z M700,519 L716,519 L720,534 L704,534 Z M720,455 L725,439 L738,449 L733,464 Z M720,473 L733,464 L738,479 L725,489 Z M720,424 L733,434 L746,424 L733,415 Z M720,375 L733,384 L746,375 L733,365 Z M720,504 L733,513 L746,504 L733,494 Z M720,326 L725,310 L738,320 L733,335 Z M720,344 L733,335 L738,350 L725,360 Z M400,737 L384,737 L388,752 L404,752 Z M425,737 L412,746 L417,762 L430,752 Z M425,737 L441,737 L446,752 L430,752 Z M371,728 L384,737 L371,746 L358,737 Z M353,722 L337,722 L342,737 L358,737 Z M464,728 L459,743 L472,752 L477,737 Z M324,712 L319,728 L332,737 L337,722 Z M324,712 L308,712 L303,728 L319,728 Z M501,712 L488,722 L493,737 L506,728 Z M501,712 L517,712 L522,728 L506,728 Z M295,703 L308,712 L295,722 L282,712 Z M277,697 L261,697 L266,712 L282,712 Z M548,697 L535,707 L540,722 L553,712 Z M548,697 L564,697 L569,712 L553,712 Z M248,688 L261,697 L248,707 L235,697 Z M227,673 L214,682 L219,697 L232,688 Z M587,688 L603,688 L598,703 L582,703 Z M577,688 L564,697 L569,712 L582,703 Z M598,673 L611,682 L624,673 L611,663 Z M201,673 L185,673 L180,688 L196,688 Z M172,633 L156,633 L151,648 L167,648 Z M154,608 L138,608 L143,623 L159,623 Z M125,568 L109,568 L104,583 L120,583 Z M96,528 L91,544 L79,534 L83,519 Z M645,191 L658,181 L653,166 L640,176 Z M645,191 L658,200 L671,191 L658,181 Z M663,216 L676,206 L671,191 L658,200 Z M674,231 L687,240 L700,231 L687,221 Z M692,255 L704,246 L700,231 L687,240 Z M700,280 L716,280 L720,265 L704,265 Z M616,151 L629,142 L624,126 L611,136 Z M627,166 L632,151 L645,160 L640,176 Z M720,295 L733,305 L746,295 L733,286 Z M399,62 L383,62 L388,47 L404,47 Z M425,62 L430,47 L417,37 L412,53 Z M425,62 L441,62 L446,47 L430,47 Z M464,71 L477,62 L472,47 L459,56 Z M353,77 L337,77 L342,62 L358,62 Z M371,71 L358,62 L371,53 L383,62 Z M324,87 L337,77 L332,62 L319,71 Z M324,87 L308,87 L303,71 L319,71 Z M501,87 L506,71 L493,62 L488,77 Z M501,87 L517,87 L522,71 L506,71 Z M277,102 L261,102 L266,87 L282,87 Z M295,96 L282,87 L295,77 L308,87 Z M548,102 L553,87 L540,77 L535,92 Z M548,102 L564,102 L569,87 L553,87 Z M577,111 L582,96 L569,87 L564,102 Z M587,111 L603,111 L598,96 L582,96 Z M598,126 L611,136 L624,126 L611,117 Z M248,111 L235,102 L248,92 L261,102 Z M227,126 L232,111 L219,102 L214,117 Z M201,126 L185,126 L180,111 L196,111 Z M172,166 L156,166 L151,151 L167,151 Z M154,191 L138,191 L143,176 L159,176 Z M125,231 L109,231 L104,216 L120,216 Z M96,271 L83,280 L79,265 L91,255 Z M75,335 L63,326 L50,335 L63,344 Z M67,409 L63,424 L50,415 L55,400 Z M67,390 L55,400 L50,384 L63,375 Z M79,295 L63,295 L67,280 L83,280 Z M75,464 L63,455 L50,464 L63,473 Z M79,504 L63,504 L67,519 L83,519 Z M658,618 L674,618 L679,633 L663,633 Z M629,657 L645,657 L640,673 L624,673 Z M632,648 L645,657 L658,648 L645,639 Z M676,593 L692,593 L687,608 L671,608 Z M687,578 L700,568 L704,583 L692,593 Z M704,553 L720,553 L716,568 L700,568 Z M708,544 L720,553 L733,544 L720,534 Z M733,464 L749,464 L754,479 L738,479 Z M733,464 L749,464 L754,449 L738,449 Z M733,415 L749,415 L754,399 L738,399 Z M733,434 L746,424 L751,439 L738,449 Z M733,365 L738,350 L751,360 L746,375 Z M733,384 L749,384 L754,399 L738,399 Z M725,519 L720,534 L733,544 L738,528 Z M733,494 L738,479 L751,489 L746,504 Z M733,513 L746,504 L751,519 L738,528 Z M733,335 L749,335 L754,350 L738,350 Z M733,335 L749,335 L754,320 L738,320 Z M404,752 L400,767 L412,777 L417,762 Z M404,752 L388,752 L384,767 L400,767 Z M358,737 L353,752 L366,762 L371,746 Z M358,737 L342,737 L337,752 L353,752 Z M477,737 L493,737 L488,752 L472,752 Z M459,743 L472,752 L459,762 L446,752 Z M319,728 L306,737 L311,752 L324,743 Z M527,712 L522,728 L535,737 L540,722 Z M282,712 L277,728 L290,737 L295,722 Z M282,712 L266,712 L261,728 L277,728 Z M235,697 L230,712 L243,722 L248,707 Z M235,697 L219,697 L214,712 L230,712 Z M582,703 L595,712 L582,722 L569,712 Z M603,688 L598,703 L611,712 L616,697 Z M611,682 L624,673 L629,688 L616,697 Z M206,688 L201,703 L214,712 L219,697 Z M196,688 L180,688 L185,703 L201,703 Z M185,673 L172,663 L159,673 L172,682 Z M167,648 L154,657 L159,673 L172,663 Z M156,633 L151,648 L138,639 L143,623 Z M138,608 L125,618 L130,633 L143,623 Z M138,608 L125,599 L112,608 L125,618 Z M120,583 L107,593 L112,608 L125,599 Z M109,568 L96,559 L83,568 L96,578 Z M91,544 L79,553 L83,568 L96,559 Z M83,519 L67,519 L63,534 L79,534 Z M658,181 L674,181 L679,166 L663,166 Z M676,206 L692,206 L687,191 L671,191 Z M687,221 L692,206 L704,216 L700,231 Z M704,246 L720,246 L716,231 L700,231 Z M708,255 L720,265 L733,255 L720,246 Z M629,142 L645,142 L640,126 L624,126 Z M632,151 L645,160 L658,151 L645,142 Z M733,286 L738,271 L751,280 L746,295 Z M733,305 L746,295 L751,310 L738,320 Z M725,280 L738,271 L733,255 L720,265 Z M404,47 L417,37 L412,22 L399,32 Z M404,47 L388,47 L383,32 L399,32 Z M459,56 L446,47 L459,37 L472,47 Z M477,62 L493,62 L488,47 L472,47 Z M358,62 L371,53 L366,37 L353,47 Z M358,62 L342,62 L337,47 L353,47 Z M319,71 L324,56 L311,47 L306,62 Z M527,87 L540,77 L535,62 L522,71 Z M282,87 L295,77 L290,62 L277,71 Z M282,87 L266,87 L261,71 L277,71 Z M582,96 L569,87 L582,77 L595,87 Z M603,111 L616,102 L611,87 L598,96 Z M611,117 L616,102 L629,111 L624,126 Z M235,102 L248,92 L243,77 L230,87 Z M235,102 L219,102 L214,87 L230,87 Z M196,111 L180,111 L185,96 L201,96 Z M206,111 L219,102 L214,87 L201,96 Z M185,126 L172,117 L159,126 L172,136 Z M167,151 L172,136 L159,126 L154,142 Z M156,166 L143,176 L138,160 L151,151 Z M138,191 L125,181 L112,191 L125,200 Z M138,191 L143,176 L130,166 L125,181 Z M120,216 L125,200 L112,191 L107,206 Z M109,231 L96,221 L83,231 L96,240 Z M91,255 L96,240 L83,231 L79,246 Z M83,280 L67,280 L63,265 L79,265 Z M63,344 L58,360 L45,350 L50,335 Z M63,326 L50,335 L45,320 L58,310 Z M63,375 L50,365 L37,375 L50,384 Z M63,424 L50,415 L37,424 L50,434 Z M63,295 L50,286 L37,295 L50,305 Z M63,473 L58,489 L45,479 L50,464 Z M63,455 L50,464 L45,449 L58,439 Z M63,504 L50,494 L37,504 L50,513 Z M663,633 L679,633 L674,648 L658,648 Z M674,618 L687,608 L692,623 L679,633 Z M624,673 L640,673 L645,688 L629,688 Z M645,657 L658,648 L663,663 L650,673 Z M692,593 L687,608 L700,618 L704,602 Z M700,568 L716,568 L720,583 L704,583 Z M720,553 L733,544 L738,559 L725,568 Z M749,464 L762,473 L775,464 L762,455 Z M746,424 L762,424 L767,439 L751,439 Z M749,415 L754,399 L767,409 L762,424 Z M746,375 L762,375 L767,360 L751,360 Z M749,384 L762,375 L767,390 L754,399 Z M738,528 L754,528 L749,544 L733,544 Z M746,504 L762,504 L767,519 L751,519 Z M746,504 L762,504 L767,489 L751,489 Z M749,335 L762,344 L775,335 L762,326 Z M417,762 L433,762 L428,777 L412,777 Z M379,752 L366,762 L371,777 L384,767 Z M446,752 L441,767 L454,777 L459,762 Z M493,737 L488,752 L501,762 L506,746 Z M324,743 L337,752 L324,762 L311,752 Z M306,737 L290,737 L295,752 L311,752 Z M522,728 L535,737 L522,746 L509,737 Z M540,722 L556,722 L551,737 L535,737 Z M256,712 L243,722 L248,737 L261,728 Z M569,712 L564,728 L577,737 L582,722 Z M616,697 L632,697 L627,712 L611,712 Z M201,703 L214,712 L201,722 L188,712 Z M180,688 L167,697 L172,712 L185,703 Z M172,682 L167,697 L154,688 L159,673 Z M154,657 L138,657 L143,673 L159,673 Z M151,648 L138,639 L125,648 L138,657 Z M125,618 L109,618 L104,633 L120,633 Z M107,593 L91,593 L96,608 L112,608 Z M96,578 L91,593 L79,583 L83,568 Z M79,553 L63,553 L67,568 L83,568 Z M75,544 L63,534 L50,544 L63,553 Z M663,166 L679,166 L674,151 L658,151 Z M674,181 L679,166 L692,176 L687,191 Z M692,206 L704,197 L700,181 L687,191 Z M700,231 L716,231 L720,216 L704,216 Z M720,246 L725,231 L738,240 L733,255 Z M624,126 L640,126 L645,111 L629,111 Z M645,142 L650,126 L663,136 L658,151 Z M746,295 L762,295 L767,310 L751,310 Z M746,295 L762,295 L767,280 L751,280 Z M738,271 L754,271 L749,255 L733,255 Z M417,37 L433,37 L428,22 L412,22 Z M379,47 L383,32 L371,22 L366,37 Z M446,47 L459,37 L454,22 L441,32 Z M493,62 L506,53 L501,37 L488,47 Z M306,62 L290,62 L295,47 L311,47 Z M324,56 L311,47 L324,37 L337,47 Z M522,71 L509,62 L522,53 L535,62 Z M540,77 L556,77 L551,62 L535,62 Z M256,87 L261,71 L248,62 L243,77 Z M569,87 L582,77 L577,62 L564,71 Z M616,102 L632,102 L627,87 L611,87 Z M201,96 L188,87 L201,77 L214,87 Z M180,111 L185,96 L172,87 L167,102 Z M172,117 L159,126 L154,111 L167,102 Z M154,142 L138,142 L143,126 L159,126 Z M151,151 L138,142 L125,151 L138,160 Z M125,181 L109,181 L104,166 L120,166 Z M107,206 L91,206 L96,191 L112,191 Z M96,221 L83,231 L79,216 L91,206 Z M79,246 L63,246 L67,231 L83,231 Z M75,255 L63,246 L50,255 L63,265 Z M50,335 L34,335 L29,320 L45,320 Z M50,335 L34,335 L29,350 L45,350 Z M50,384 L34,384 L29,400 L45,400 Z M50,365 L37,375 L32,360 L45,350 Z M50,434 L45,449 L32,439 L37,424 Z M50,415 L34,415 L29,400 L45,400 Z M58,280 L63,265 L50,255 L45,271 Z M50,305 L45,320 L32,310 L37,295 Z M50,286 L37,295 L32,280 L45,271 Z M50,464 L34,464 L29,449 L45,449 Z M50,464 L34,464 L29,479 L45,479 Z M50,513 L45,528 L32,519 L37,504 Z M50,494 L37,504 L32,489 L45,479 Z M58,519 L45,528 L50,544 L63,534 Z M679,633 L692,642 L704,633 L692,623 Z M679,633 L674,648 L687,657 L692,642 Z M650,673 L663,682 L676,673 L663,663 Z M650,673 L645,688 L658,697 L663,682 Z M704,602 L720,602 L716,618 L700,618 Z M708,593 L720,602 L733,593 L720,583 Z M725,568 L738,578 L751,568 L738,559 Z M725,568 L720,583 L733,593 L738,578 Z M762,455 L767,439 L780,449 L775,464 Z M762,473 L775,464 L780,479 L767,489 Z M762,424 L775,415 L780,430 L767,439 Z M754,399 L767,409 L780,399 L767,390 Z M762,375 L767,360 L780,369 L775,384 Z M754,528 L749,544 L762,553 L767,538 Z M762,326 L767,310 L780,320 L775,335 Z M762,344 L775,335 L780,350 L767,360 Z M412,777 L428,777 L433,792 L417,792 Z M384,767 L396,777 L384,786 L371,777 Z M366,762 L350,762 L355,777 L371,777 Z M459,762 L475,762 L480,777 L464,777 Z M441,767 L454,777 L441,786 L428,777 Z M337,752 L324,762 L329,777 L342,767 Z M488,752 L475,762 L480,777 L493,767 Z M506,746 L522,746 L517,762 L501,762 Z M290,737 L277,746 L282,762 L295,752 Z M535,737 L522,746 L527,762 L540,752 Z M535,737 L551,737 L556,752 L540,752 Z M261,728 L274,737 L261,746 L248,737 Z M243,722 L227,722 L232,737 L248,737 Z M582,722 L598,722 L603,737 L587,737 Z M564,728 L577,737 L564,746 L551,737 Z M214,712 L201,722 L206,737 L219,728 Z M611,712 L598,722 L603,737 L616,728 Z M632,697 L645,707 L658,697 L645,688 Z M167,697 L151,697 L156,712 L172,712 Z M159,673 L143,673 L138,688 L154,688 Z M138,657 L133,673 L120,663 L125,648 Z M120,633 L104,633 L109,648 L125,648 Z M109,618 L104,633 L91,623 L96,608 Z M91,593 L79,602 L83,618 L96,608 Z M83,568 L67,568 L63,583 L79,583 Z M63,553 L58,568 L45,559 L50,544 Z M679,166 L692,157 L687,142 L674,151 Z M679,166 L692,176 L704,166 L692,157 Z M704,197 L720,197 L716,181 L700,181 Z M708,206 L720,216 L733,206 L720,197 Z M725,231 L738,221 L733,206 L720,216 Z M725,231 L738,240 L751,231 L738,221 Z M650,126 L663,117 L658,102 L645,111 Z M650,126 L663,136 L676,126 L663,117 Z M754,271 L767,261 L762,246 L749,255 Z M412,22 L428,22 L433,7 L417,7 Z M383,32 L371,22 L383,13 L396,22 Z M366,37 L350,37 L355,22 L371,22 Z M441,32 L428,22 L441,13 L454,22 Z M459,37 L475,37 L480,22 L464,22 Z M488,47 L493,32 L480,22 L475,37 Z M506,53 L522,53 L517,37 L501,37 Z M337,47 L342,32 L329,22 L324,37 Z M290,62 L295,47 L282,37 L277,53 Z M535,62 L540,47 L527,37 L522,53 Z M535,62 L551,62 L556,47 L540,47 Z M261,71 L248,62 L261,53 L274,62 Z M243,77 L227,77 L232,62 L248,62 Z M564,71 L551,62 L564,53 L577,62 Z M582,77 L598,77 L603,62 L587,62 Z M611,87 L616,71 L603,62 L598,77 Z M632,102 L645,111 L658,102 L645,92 Z M214,87 L219,71 L206,62 L201,77 Z M167,102 L151,102 L156,87 L172,87 Z M159,126 L143,126 L138,111 L154,111 Z M138,142 L125,151 L120,136 L133,126 Z M120,166 L104,166 L109,151 L125,151 Z M109,181 L96,191 L91,176 L104,166 Z M91,206 L96,191 L83,181 L79,197 Z M83,231 L67,231 L63,216 L79,216 Z M63,246 L50,255 L45,240 L58,231 Z M34,335 L21,326 L8,335 L21,344 Z M37,375 L21,375 L16,360 L32,360 Z M34,384 L29,400 L16,390 L21,375 Z M37,424 L21,424 L16,439 L32,439 Z M34,415 L21,424 L16,409 L29,400 Z M45,271 L29,271 L34,255 L50,255 Z M37,295 L21,295 L16,310 L32,310 Z M34,464 L21,455 L8,464 L21,473 Z M37,504 L21,504 L16,489 L32,489 Z M45,528 L29,528 L34,544 L50,544 Z M671,657 L687,657 L692,673 L676,673 Z M700,618 L716,618 L720,633 L704,633 Z M720,602 L733,593 L738,608 L725,618 Z M767,439 L780,449 L793,439 L780,430 Z M767,360 L780,369 L793,360 L780,350 Z M371,777 L355,777 L350,792 L366,792 Z M464,777 L480,777 L475,792 L459,792 Z M342,767 L355,777 L342,786 L329,777 Z M324,762 L308,762 L303,777 L319,777 Z M493,767 L506,777 L493,786 L480,777 Z M501,762 L517,762 L522,777 L506,777 Z M295,752 L290,767 L303,777 L308,762 Z M277,746 L261,746 L266,762 L282,762 Z M248,737 L243,752 L256,762 L261,746 Z M248,737 L232,737 L227,752 L243,752 Z M577,737 L564,746 L569,762 L582,752 Z M219,728 L232,737 L219,746 L206,737 Z M133,673 L120,663 L107,673 L120,682 Z M104,633 L91,642 L96,657 L109,648 Z M104,633 L91,623 L79,633 L91,642 Z M79,602 L63,602 L67,618 L83,618 Z M75,593 L63,583 L50,593 L63,602 Z M58,568 L45,578 L50,593 L63,583 Z M671,142 L687,142 L692,126 L676,126 Z M700,181 L716,181 L720,166 L704,166 Z M720,197 L725,181 L738,191 L733,206 Z M371,22 L355,22 L350,7 L366,7 Z M464,22 L480,22 L475,7 L459,7 Z M501,37 L517,37 L522,22 L506,22 Z M493,32 L480,22 L493,13 L506,22 Z M324,37 L308,37 L303,22 L319,22 Z M342,32 L329,22 L342,13 L355,22 Z M295,47 L308,37 L303,22 L290,32 Z M277,53 L261,53 L266,37 L282,37 Z M248,62 L261,53 L256,37 L243,47 Z M248,62 L232,62 L227,47 L243,47 Z M577,62 L582,47 L569,37 L564,53 Z M219,71 L206,62 L219,53 L232,62 Z M133,126 L120,117 L107,126 L120,136 Z M104,166 L91,157 L79,166 L91,176 Z M104,166 L109,151 L96,142 L91,157 Z M79,197 L63,197 L67,181 L83,181 Z M75,206 L63,197 L50,206 L63,216 Z M58,231 L63,216 L50,206 L45,221 Z M21,344 L16,360 L3,350 L8,335 Z M21,375 L8,384 L3,369 L16,360 Z M29,400 L16,390 L3,400 L16,409 Z M21,424 L16,439 L3,430 L8,415 Z M21,455 L8,464 L3,449 L16,439 Z " fill="transparent"/>
</g></svg>